<svg width="57" height="64" viewBox="0 0 57 64" fill="none" xmlns="http://www.w3.org/2000/svg">
<path d="M12.25 16.875C12.25 8.12241 19.3724 1 28.125 1C36.8776 1 44 8.12241 44 16.875C44 25.6276 36.8776 32.75 28.125 32.75C19.3724 32.75 12.25 25.6276 12.25 16.875Z" stroke="#232628" stroke-width="2"/>
<path d="M31.875 38.5C38.1044 38.5 43.9735 40.9732 48.4083 45.4761L49.1208 44.7744L48.4083 45.4761C52.8224 49.958 55.25 55.8681 55.25 62.125C55.25 62.6082 54.8582 63 54.375 63H1.875C1.39178 63 1 62.6082 1 62.125C1 55.8681 3.42761 49.958 7.84173 45.4761L7.12925 44.7744L7.84173 45.4761C12.2765 40.9732 18.1457 38.5 24.375 38.5H31.875Z" stroke="#232628" stroke-width="2"/>
</svg>
