<svg width="76" height="66" viewBox="0 0 76 66" fill="none" xmlns="http://www.w3.org/2000/svg">
<line opacity="0.3" x1="4.37114e-08" y1="21.5" x2="74.3243" y2="21.5" stroke="#232628"/>
<line opacity="0.3" x1="-4.37114e-08" y1="48.5" x2="74.3243" y2="48.5" stroke="#232628"/>
<line x1="68" y1="18" x2="68" y2="2" stroke="#F52536" stroke-width="2"/>
<path d="M68.3795 21.0262L61.7017 14.3484H75.0573L68.3795 21.0262Z" fill="#F52536"/>
<line x1="8.56982" y1="7.01471" x2="21.9255" y2="7.01471" stroke="#F52536" stroke-width="2"/>
<line y1="-1" x2="13.3557" y2="-1" transform="matrix(-1 -1.56454e-09 -1.56454e-09 1 46.5566 8.01471)" stroke="#F52536" stroke-width="2"/>
<path d="M5.89941 6.67783L12.5772 13.3557L12.5772 -8.23652e-06L5.89941 6.67783Z" fill="#F52536"/>
<path d="M49.2271 6.67783L42.5492 13.3557L42.5492 -8.23652e-06L49.2271 6.67783Z" fill="#F52536"/>
<line x1="68.0439" y1="51.6705" x2="68.0439" y2="65.0262" stroke="#F52536" stroke-width="2"/>
<path d="M68.381 49L61.7031 55.6778H75.0588L68.381 49Z" fill="#F52536"/>
<rect x="0.5" y="14.4296" width="56.4961" height="41.0704" fill="white" stroke="#232628"/>
<rect x="4.91414" y="23.948" width="7.21887" height="13.383" rx="3.60944" transform="rotate(-45 4.91414 23.948)" stroke="#232628"/>
<rect x="0.707107" width="7.21887" height="13.383" rx="3.60944" transform="matrix(0.707107 0.707107 0.707107 -0.707107 4.41414 44.6352)" stroke="#232628"/>
<rect x="-0.707107" width="7.21887" height="13.383" rx="3.60944" transform="matrix(-0.707107 -0.707107 -0.707107 0.707107 49.8334 23.448)" stroke="#232628"/>
<rect x="50.3334" y="45.1352" width="7.21887" height="13.383" rx="3.60944" transform="rotate(135 50.3334 45.1352)" stroke="#232628"/>
<line opacity="0.3" x1="5.41064" y1="32.1601" x2="5.41064" y2="0.000171683" stroke="#232628"/>
<line opacity="0.3" x1="50.2363" y1="32.1601" x2="50.2363" y2="0.000171683" stroke="#232628"/>
</svg>
