<svg width="13" height="17" viewBox="0 0 13 17" fill="none" xmlns="http://www.w3.org/2000/svg">
<path d="M12.4996 11.3798H10.9931V2.51027C10.9931 2.25225 10.7762 2.04346 10.4999 2.04346H8.50017C8.22385 2.04346 8.00025 2.25225 8.00025 2.51027V11.3798H6.50045C6.08875 11.3798 5.85402 11.8201 6.10061 12.1265L9.10021 15.861C9.29981 16.1102 9.70058 16.1098 9.89989 15.861L12.8995 12.1265C13.1458 11.8205 12.9116 11.3798 12.4996 11.3798Z" fill="#41474A"/>
<path d="M6.99997 3.97091L3.95669 0.219699C3.76551 -0.0165923 3.33654 -0.0165923 3.14536 0.219699L0.102076 3.97091C-0.148114 4.27863 0.0900716 4.72095 0.507741 4.72095H2.0294V13.63C2.0294 13.8892 2.25626 14.0989 2.53661 14.0989H4.56544C4.84579 14.0989 5.06589 13.8892 5.06589 13.63V4.72095H6.59428C7.01232 4.72095 7.24989 4.27831 6.99997 3.97091Z" fill="#41474A"/>
</svg>
