<svg width="54" height="40" viewBox="0 0 54 40" fill="none" xmlns="http://www.w3.org/2000/svg">
<line opacity="0.3" x1="4.37114e-08" y1="10.4442" x2="53" y2="10.4442" stroke="#232628"/>
<line opacity="0.3" x1="-4.37114e-08" y1="39.4735" x2="53" y2="39.4735" stroke="#232628"/>
<line x1="48.8086" y1="12.8503" x2="48.8086" y2="22.3838" stroke="#F52536" stroke-width="2"/>
<path d="M48.7619 10.9441L44 15.7108H53.5238L48.7619 10.9441Z" fill="#F52536"/>
<line x1="6.11133" y1="4.72098" x2="15.6351" y2="4.72098" stroke="#F52536" stroke-width="2"/>
<line y1="-1" x2="9.52381" y2="-1" transform="matrix(-1 -1.56454e-09 -1.56454e-09 1 33.1992 5.72098)" stroke="#F52536" stroke-width="2"/>
<path d="M4.20703 4.76672L8.96894 9.53345L8.96894 -2.0836e-07L4.20703 4.76672Z" fill="#F52536"/>
<path d="M35.1035 4.76672L30.3416 9.53345L30.3416 -2.0836e-07L35.1035 4.76672Z" fill="#F52536"/>
<line y1="-1" x2="9.53345" y2="-1" transform="matrix(-4.21042e-08 -1 -1 4.21895e-08 47.8086 36.4938)" stroke="#F52536" stroke-width="2"/>
<path d="M48.7619 38.4001L44 33.6333H53.5238L48.7619 38.4001Z" fill="#F52536"/>
<rect x="0.5" y="9.97" width="40" height="29" fill="white" stroke="#232628"/>
<rect x="3.70711" y="16.614" width="4.86081" height="9.25641" rx="2.4304" transform="rotate(-45 3.70711 16.614)" stroke="#232628"/>
<rect x="0.707107" width="4.86081" height="9.25641" rx="2.4304" transform="matrix(0.707107 0.707107 0.707107 -0.707107 3.20711 31.2224)" stroke="#232628"/>
<rect x="-0.707107" width="4.86081" height="9.25641" rx="2.4304" transform="matrix(-0.707107 -0.707107 -0.707107 0.707107 35.1894 16.114)" stroke="#232628"/>
<rect x="35.6894" y="31.7224" width="4.86081" height="9.25641" rx="2.4304" transform="rotate(135 35.6894 31.7224)" stroke="#232628"/>
<line opacity="0.3" x1="3.71484" y1="22.9563" x2="3.71484" y2="9.15746e-05" stroke="#232628"/>
<line opacity="0.3" x1="35.6797" y1="22.9563" x2="35.6797" y2="9.15746e-05" stroke="#232628"/>
</svg>
