<svg width="50" height="42" viewBox="0 0 50 42" fill="none" xmlns="http://www.w3.org/2000/svg">
<line opacity="0.3" x1="37.6992" y1="0.99707" x2="49.5238" y2="0.99707" stroke="#232628"/>
<line opacity="0.3" x1="15.5547" y1="40.5405" x2="49.5229" y2="40.5405" stroke="#232628"/>
<path d="M30.6111 25.5805C30.6111 33.9046 23.87 40.6518 15.5556 40.6518C7.24108 40.6518 0.5 33.9046 0.5 25.5805C0.5 17.2563 7.24108 10.5092 15.5556 10.5092C23.87 10.5092 30.6111 17.2563 30.6111 25.5805Z" stroke="#232628"/>
<path d="M11.6678 6.00506H5.55664V1H37.2233V6.00506H31.6678V9.453L19.4455 25.6917H11.6678V6.00506Z" fill="white"/>
<path d="M11.6678 6.00506H5.55664V1H37.2233V6.00506H31.6678M11.6678 6.00506V25.6917H19.4455L31.6678 9.453V6.00506M11.6678 6.00506H31.6678" stroke="#232628"/>
<ellipse cx="15.5543" cy="25.2467" rx="2.22222" ry="2.22447" fill="white" stroke="#232628"/>
<line x1="44.8086" y1="3.40332" x2="44.8086" y2="12.9368" stroke="#F52536" stroke-width="2"/>
<path d="M44.7619 1.49707L40 6.26379H49.5238L44.7619 1.49707Z" fill="#F52536"/>
<line y1="-1" x2="9.53345" y2="-1" transform="matrix(-4.21042e-08 -1 -1 4.21895e-08 43.8086 38.1526)" stroke="#F52536" stroke-width="2"/>
<path d="M44.7619 40.0588L40 35.2921H49.5238L44.7619 40.0588Z" fill="#F52536"/>
</svg>
