<svg width="41" height="41" viewBox="0 0 41 41" fill="none" xmlns="http://www.w3.org/2000/svg">
<path d="M29.6573 26.733L29.658 26.7323C30.2254 26.1685 30.7932 25.9525 31.2931 25.9525C31.7931 25.9525 32.3636 26.1687 32.936 26.7332C34.6944 28.4824 36.4506 30.2294 38.1973 31.9854C38.7828 32.5746 39.001 33.1506 38.9989 33.6541C38.9968 34.1593 38.7722 34.7439 38.1779 35.3462C37.8655 35.6615 37.5317 35.986 37.1901 36.3181C36.5056 36.9837 35.7895 37.6799 35.1505 38.3941L35.1496 38.3952C34.0267 39.6537 32.64 40.0846 30.8968 39.9869L30.8953 39.9868C28.2194 39.8405 25.7233 38.9529 23.2397 37.7472C17.7249 35.0663 13.011 31.3519 9.05663 26.6499L9.05626 26.6495C6.11989 23.162 3.71991 19.3837 2.14811 15.1505L2.1468 15.147C1.37649 13.0959 0.870502 11.092 1.02909 9.01073C1.12223 7.82585 1.55134 6.85879 2.39542 6.05952L2.39692 6.0581C3.07614 5.41229 3.75196 4.72983 4.41555 4.05972C4.84842 3.62261 5.27609 3.19074 5.69612 2.77772L5.6975 2.77635C6.26418 2.21694 6.83308 2.00078 7.33628 2.00006C7.83984 1.99935 8.41139 2.21424 8.98288 2.77084C9.57323 3.34903 10.1514 3.93126 10.7353 4.51917C11.0295 4.81543 11.3251 5.11313 11.6244 5.41248C12.0538 5.8465 12.483 6.27561 12.9099 6.70253L12.9108 6.70346C13.3393 7.13192 13.7655 7.55819 14.1915 7.98873L14.1931 7.99037C14.8121 8.61317 15.0354 9.1951 15.0361 9.68886C15.0368 10.1821 14.8156 10.7606 14.2023 11.3776L14.2015 11.3785C14.0461 11.5352 13.8912 11.6916 13.7366 11.8477C12.8151 12.7782 11.9055 13.6967 10.9756 14.5954L10.9694 14.6013L10.9634 14.6074C10.7424 14.8283 10.5139 15.1337 10.4406 15.5493C10.3685 15.9574 10.4753 16.3119 10.5828 16.5674C11.3598 18.4164 12.4618 20.0366 13.6665 21.5164L13.6669 21.517C16.0731 24.4683 18.8126 27.1193 22.1043 29.1897L22.1088 29.1925C22.4928 29.4312 22.8882 29.6331 23.2553 29.8148C23.3367 29.8552 23.4161 29.8942 23.4939 29.9325C23.7772 30.0717 24.0392 30.2006 24.298 30.3416C24.5995 30.5103 24.9972 30.6455 25.4536 30.5542C25.8866 30.4676 26.1956 30.21 26.4011 29.9983C27.4713 28.9007 28.5608 27.8203 29.6573 26.733Z" stroke="#232628" stroke-width="2"/>
<path d="M34 17.0001C34 11.4772 29.5228 7.00006 24 7.00006" stroke="#232628" stroke-width="2"/>
<path d="M40 17.0001C40 8.16351 32.8366 1.00006 24 1.00006" stroke="#232628" stroke-width="2"/>
</svg>
