<svg width="24" height="24" viewBox="0 0 24 24" fill="none" xmlns="http://www.w3.org/2000/svg">
<circle cx="12" cy="12" r="12" fill="#232628"/>
<path d="M11.5995 14.328C11.2035 13.896 11.0055 13.368 11.0055 12.744C11.0055 12.264 11.1435 11.832 11.4195 11.448C11.6955 11.064 11.9955 10.776 12.3195 10.584C12.6435 10.392 12.9435 10.164 13.2195 9.9C13.4955 9.636 13.6335 9.372 13.6335 9.108C13.6335 8.808 13.5135 8.562 13.2735 8.37C13.0455 8.178 12.6975 8.082 12.2295 8.082C11.3775 8.082 10.6395 8.454 10.0155 9.198L8.55751 7.56C9.55351 6.396 10.8675 5.814 12.4995 5.814C13.6515 5.814 14.5635 6.078 15.2355 6.606C15.9075 7.122 16.2435 7.806 16.2435 8.658C16.2435 9.138 16.1415 9.57 15.9375 9.954C15.7335 10.338 15.4815 10.65 15.1815 10.89C14.8935 11.13 14.5995 11.352 14.2995 11.556C13.9995 11.76 13.7475 11.982 13.5435 12.222C13.3395 12.462 13.2375 12.72 13.2375 12.996C13.2375 13.308 13.3455 13.56 13.5615 13.752L11.5995 14.328ZM13.4895 17.766C13.2015 18.054 12.8595 18.198 12.4635 18.198C12.0675 18.198 11.7255 18.054 11.4375 17.766C11.1495 17.478 11.0055 17.136 11.0055 16.74C11.0055 16.344 11.1495 16.002 11.4375 15.714C11.7255 15.426 12.0675 15.282 12.4635 15.282C12.8595 15.282 13.2015 15.426 13.4895 15.714C13.7775 16.002 13.9215 16.344 13.9215 16.74C13.9215 17.136 13.7775 17.478 13.4895 17.766Z" fill="white"/>
</svg>
