<svg width="55" height="49" viewBox="0 0 55 49" fill="none" xmlns="http://www.w3.org/2000/svg">
<g filter="url(#filter0_d_2338_36035)">
<rect x="19.7236" y="1" width="13.8557" height="38.2054" rx="4" stroke="#232628" stroke-width="2"/>
<line opacity="0.3" x1="24.3848" y1="4.59668" x2="28.915" y2="4.59668" stroke="#232628"/>
<line opacity="0.3" x1="24.3848" y1="7.99365" x2="28.915" y2="7.99365" stroke="#232628"/>
<line opacity="0.3" x1="24.3848" y1="11.3921" x2="28.915" y2="11.3921" stroke="#232628"/>
<line opacity="0.3" x1="24.3848" y1="14.7896" x2="28.915" y2="14.7896" stroke="#232628"/>
<line opacity="0.3" x1="24.3848" y1="18.1865" x2="28.915" y2="18.1865" stroke="#232628"/>
<line opacity="0.3" x1="24.3848" y1="21.585" x2="28.915" y2="21.585" stroke="#232628"/>
<line opacity="0.3" x1="24.3848" y1="24.9824" x2="28.915" y2="24.9824" stroke="#232628"/>
<line opacity="0.3" x1="24.3848" y1="28.3799" x2="28.915" y2="28.3799" stroke="#232628"/>
<line opacity="0.3" x1="24.3848" y1="31.7773" x2="28.915" y2="31.7773" stroke="#232628"/>
<line opacity="0.3" x1="24.3848" y1="35.1753" x2="28.915" y2="35.1753" stroke="#232628"/>
<rect x="5" y="4.96387" width="8.19293" height="34.2415" rx="4" stroke="#232628" stroke-width="2"/>
<line opacity="0.3" x1="7.05469" y1="8.05811" x2="11.1382" y2="8.05811" stroke="#232628"/>
<line opacity="0.3" x1="7.05518" y1="11.1206" x2="11.1387" y2="11.1206" stroke="#232628"/>
<line opacity="0.3" x1="7.05518" y1="14.1836" x2="11.1387" y2="14.1836" stroke="#232628"/>
<line opacity="0.3" x1="7.05518" y1="17.2461" x2="11.1387" y2="17.2461" stroke="#232628"/>
<line opacity="0.3" x1="7.05518" y1="20.3086" x2="11.1387" y2="20.3086" stroke="#232628"/>
<line opacity="0.3" x1="7.05518" y1="23.3716" x2="11.1387" y2="23.3716" stroke="#232628"/>
<line opacity="0.3" x1="7.05518" y1="26.4341" x2="11.1387" y2="26.4341" stroke="#232628"/>
<line opacity="0.3" x1="7.05518" y1="29.4966" x2="11.1387" y2="29.4966" stroke="#232628"/>
<line opacity="0.3" x1="7.05518" y1="32.5596" x2="11.1387" y2="32.5596" stroke="#232628"/>
<line opacity="0.3" x1="7.05518" y1="35.6221" x2="11.1387" y2="35.6221" stroke="#232628"/>
<rect x="40.1089" y="12.8921" width="9.16596" height="26.3137" rx="4" stroke="#232628" stroke-width="2"/>
<line opacity="0.3" x1="43.0967" y1="14.981" x2="46.287" y2="14.981" stroke="#232628"/>
<line opacity="0.3" x1="43.0962" y1="17.3735" x2="46.2865" y2="17.3735" stroke="#232628"/>
<line opacity="0.3" x1="43.0962" y1="19.7661" x2="46.2865" y2="19.7661" stroke="#232628"/>
<line opacity="0.3" x1="43.0962" y1="22.1587" x2="46.2865" y2="22.1587" stroke="#232628"/>
<line opacity="0.3" x1="43.0962" y1="24.5513" x2="46.2865" y2="24.5513" stroke="#232628"/>
<line opacity="0.3" x1="43.0962" y1="26.9438" x2="46.2865" y2="26.9438" stroke="#232628"/>
<line opacity="0.3" x1="43.0962" y1="29.3369" x2="46.2865" y2="29.3369" stroke="#232628"/>
<line opacity="0.3" x1="43.0962" y1="31.73" x2="46.2865" y2="31.73" stroke="#232628"/>
<line opacity="0.3" x1="43.0962" y1="34.1226" x2="46.2865" y2="34.1226" stroke="#232628"/>
<line opacity="0.3" x1="43.0962" y1="36.5151" x2="46.2865" y2="36.5151" stroke="#232628"/>
</g>
<defs>
<filter id="filter0_d_2338_36035" x="0" y="0" width="54.2749" height="48.2056" filterUnits="userSpaceOnUse" color-interpolation-filters="sRGB">
<feFlood flood-opacity="0" result="BackgroundImageFix"/>
<feColorMatrix in="SourceAlpha" type="matrix" values="0 0 0 0 0 0 0 0 0 0 0 0 0 0 0 0 0 0 127 0" result="hardAlpha"/>
<feOffset dy="4"/>
<feGaussianBlur stdDeviation="2"/>
<feComposite in2="hardAlpha" operator="out"/>
<feColorMatrix type="matrix" values="0 0 0 0 0 0 0 0 0 0 0 0 0 0 0 0 0 0 0.25 0"/>
<feBlend mode="normal" in2="BackgroundImageFix" result="effect1_dropShadow_2338_36035"/>
<feBlend mode="normal" in="SourceGraphic" in2="effect1_dropShadow_2338_36035" result="shape"/>
</filter>
</defs>
</svg>
