<svg width="62" height="72" viewBox="0 0 62 72" fill="none" xmlns="http://www.w3.org/2000/svg">
<path d="M24.9683 46.0649H21.7839V52.3522H19.6465V38.063H21.7839V44.2686H25.0119L29.8103 38.063H32.1441L26.6914 44.983L32.4058 52.3522H29.9194L24.9683 46.0649Z" fill="#232628"/>
<path d="M44.6308 39.8389H36.7789L36.8007 52.3522H34.6414V38.063H44.6526L44.6308 39.8389Z" fill="#232628"/>
<path d="M8.88271 19.8707C9.03041 18.8925 9.87104 18.1693 10.8603 18.1693H50.6166C51.6058 18.1693 52.4464 18.8925 52.5941 19.8707L59.9674 68.7014C60.1501 69.9112 59.2134 71 57.9898 71H3.487C2.26348 71 1.32674 69.9112 1.50942 68.7014L8.88271 19.8707Z" stroke="#232628" stroke-width="2"/>
<circle cx="30.739" cy="9.13845" r="8.13845" stroke="#232628" stroke-width="2"/>
</svg>
