<svg width="29" height="28" viewBox="0 0 29 28" fill="none" xmlns="http://www.w3.org/2000/svg">
<path d="M28.6344 25.9334L22.3152 20.0365C24.0946 17.9224 25.1671 15.2144 25.1671 12.263C25.1671 5.49311 19.5304 0 12.5835 0C5.6306 0 0 5.49311 0 12.263C0 19.0329 5.6306 24.526 12.5835 24.526C15.6121 24.526 18.3847 23.4867 20.5541 21.7527L26.8733 27.6437C27.3608 28.1188 28.1469 28.1188 28.6344 27.6437C29.1219 27.1745 29.1219 26.4025 28.6344 25.9334ZM12.5835 22.0853C7.01996 22.0853 2.49842 17.6789 2.49842 12.263C2.49842 6.84708 7.01996 2.43478 12.5835 2.43478C18.141 2.43478 22.6686 6.84708 22.6686 12.263C22.6686 17.6789 18.141 22.0853 12.5835 22.0853Z" fill="#232628"/>
</svg>
