<svg width="37" height="32" viewBox="0 0 37 32" fill="none" xmlns="http://www.w3.org/2000/svg">
<path d="M26.6195 0C24.6525 0 22.8492 0.623292 21.2597 1.8526C19.7358 3.03115 18.7212 4.53225 18.1239 5.62379C17.5266 4.53218 16.512 3.03115 14.9881 1.8526C13.3986 0.623292 11.5953 0 9.62832 0C4.13933 0 0 4.4897 0 10.4435C0 16.8756 5.16411 21.2764 12.9819 27.9385C14.3095 29.0699 15.8142 30.3524 17.3783 31.7201C17.5844 31.9006 17.8492 32 18.1239 32C18.3986 32 18.6634 31.9006 18.8695 31.7201C20.4337 30.3522 21.9384 29.0699 23.2668 27.9378C31.0837 21.2764 36.2478 16.8756 36.2478 10.4435C36.2478 4.4897 32.1085 0 26.6195 0Z" fill="#F52536"/>
</svg>
