<svg width="22" height="22" viewBox="0 0 22 22" fill="none" xmlns="http://www.w3.org/2000/svg">
<path fill-rule="evenodd" clip-rule="evenodd" d="M15.725 4.85903C15.725 5.61653 16.3404 6.23065 17.0997 6.23065C17.8589 6.23065 18.4743 5.61653 18.4743 4.85903C18.4743 4.10149 17.8589 3.48737 17.0997 3.48737C16.3404 3.48737 15.725 4.10149 15.725 4.85903ZM7.166 10.9606C7.166 8.85629 8.87567 7.15046 10.9846 7.15046C13.0935 7.15046 14.8032 8.85629 14.8032 10.9606C14.8032 13.0649 13.0935 14.7707 10.9846 14.7707C8.87567 14.7707 7.166 13.0649 7.166 10.9606ZM10.9847 16.8302C7.73575 16.8302 5.102 14.2023 5.102 10.9605C5.102 7.71884 7.73575 5.09093 10.9847 5.09093C14.2336 5.09093 16.8674 7.71884 16.8674 10.9605C16.8674 14.2023 14.2336 16.8302 10.9847 16.8302ZM20.2843 1.71585C19.8234 1.25486 19.3845 0.969372 18.7696 0.730419C18.3054 0.549979 17.6079 0.335403 16.3234 0.276794C14.9343 0.213426 14.5177 0.200012 11.0002 0.200012C7.48267 0.200012 7.06602 0.213426 5.67687 0.276794C4.39249 0.335403 3.69496 0.549979 3.23076 0.730419C2.61583 0.969372 2.17701 1.25486 1.71603 1.71585C1.25505 2.17683 0.969555 2.61569 0.730554 3.23057C0.550162 3.69478 0.335586 4.39235 0.276977 5.67673C0.213609 7.06583 0.200195 7.48248 0.200195 11C0.200195 14.5175 0.213609 14.9341 0.276977 16.3233C0.335586 17.6077 0.550162 18.3053 0.730554 18.7695C0.969555 19.3843 1.25505 19.8232 1.71603 20.2842C2.17701 20.7452 2.61583 21.0307 3.23076 21.2696C3.69496 21.45 4.39249 21.6646 5.67692 21.7232C7.06582 21.7866 7.48243 21.8 11.0002 21.8C14.5179 21.8 14.9345 21.7866 16.3234 21.7232C17.6079 21.6646 18.3054 21.45 18.7696 21.2696C19.3845 21.0307 19.8234 20.7452 20.2844 20.2841C20.7453 19.8232 21.0308 19.3843 21.2698 18.7695C21.4502 18.3053 21.6648 17.6077 21.7234 16.3233C21.7868 14.9341 21.8002 14.5175 21.8002 11C21.8002 7.48248 21.7868 7.06583 21.7234 5.67673C21.6648 4.39235 21.4502 3.69478 21.2698 3.23057C21.0308 2.61569 20.7453 2.17683 20.2843 1.71585Z" fill="url(#paint0_radial_1895_28809)"/>
<path fill-rule="evenodd" clip-rule="evenodd" d="M15.725 4.85903C15.725 5.61653 16.3404 6.23065 17.0997 6.23065C17.8589 6.23065 18.4743 5.61653 18.4743 4.85903C18.4743 4.10149 17.8589 3.48737 17.0997 3.48737C16.3404 3.48737 15.725 4.10149 15.725 4.85903ZM7.166 10.9606C7.166 8.85629 8.87567 7.15046 10.9846 7.15046C13.0935 7.15046 14.8032 8.85629 14.8032 10.9606C14.8032 13.0649 13.0935 14.7707 10.9846 14.7707C8.87567 14.7707 7.166 13.0649 7.166 10.9606ZM10.9847 16.8302C7.73575 16.8302 5.102 14.2023 5.102 10.9605C5.102 7.71884 7.73575 5.09093 10.9847 5.09093C14.2336 5.09093 16.8674 7.71884 16.8674 10.9605C16.8674 14.2023 14.2336 16.8302 10.9847 16.8302ZM20.2843 1.71585C19.8234 1.25486 19.3845 0.969372 18.7696 0.730419C18.3054 0.549979 17.6079 0.335403 16.3234 0.276794C14.9343 0.213426 14.5177 0.200012 11.0002 0.200012C7.48267 0.200012 7.06602 0.213426 5.67687 0.276794C4.39249 0.335403 3.69496 0.549979 3.23076 0.730419C2.61583 0.969372 2.17701 1.25486 1.71603 1.71585C1.25505 2.17683 0.969555 2.61569 0.730554 3.23057C0.550162 3.69478 0.335586 4.39235 0.276977 5.67673C0.213609 7.06583 0.200195 7.48248 0.200195 11C0.200195 14.5175 0.213609 14.9341 0.276977 16.3233C0.335586 17.6077 0.550162 18.3053 0.730554 18.7695C0.969555 19.3843 1.25505 19.8232 1.71603 20.2842C2.17701 20.7452 2.61583 21.0307 3.23076 21.2696C3.69496 21.45 4.39249 21.6646 5.67692 21.7232C7.06582 21.7866 7.48243 21.8 11.0002 21.8C14.5179 21.8 14.9345 21.7866 16.3234 21.7232C17.6079 21.6646 18.3054 21.45 18.7696 21.2696C19.3845 21.0307 19.8234 20.7452 20.2844 20.2841C20.7453 19.8232 21.0308 19.3843 21.2698 18.7695C21.4502 18.3053 21.6648 17.6077 21.7234 16.3233C21.7868 14.9341 21.8002 14.5175 21.8002 11C21.8002 7.48248 21.7868 7.06583 21.7234 5.67673C21.6648 4.39235 21.4502 3.69478 21.2698 3.23057C21.0308 2.61569 20.7453 2.17683 20.2843 1.71585Z" fill="url(#paint1_radial_1895_28809)"/>
<defs>
<radialGradient id="paint0_radial_1895_28809" cx="0" cy="0" r="1" gradientUnits="userSpaceOnUse" gradientTransform="translate(5.93772 23.4637) rotate(-90) scale(21.4072 19.9104)">
<stop stop-color="#FFDD55"/>
<stop offset="0.1" stop-color="#FFDD55"/>
<stop offset="0.5" stop-color="#FF543E"/>
<stop offset="1" stop-color="#C837AB"/>
</radialGradient>
<radialGradient id="paint1_radial_1895_28809" cx="0" cy="0" r="1" gradientUnits="userSpaceOnUse" gradientTransform="translate(-3.41792 1.75604) rotate(78.6806) scale(9.56911 39.4443)">
<stop stop-color="#3771C8"/>
<stop offset="0.128" stop-color="#3771C8"/>
<stop offset="1" stop-color="#6600FF" stop-opacity="0"/>
</radialGradient>
</defs>
</svg>
