<svg width="35" height="41" viewBox="0 0 35 41" fill="none" xmlns="http://www.w3.org/2000/svg">
<path d="M13.9795 25.5058H12.1967V29.0294H11V21.0212H12.1967V24.4991H14.0039L16.6904 21.0212H17.997L14.9442 24.8995L18.1435 29.0294H16.7514L13.9795 25.5058Z" fill="#232628"/>
<path d="M24.9878 22.0165H20.5918L20.604 29.0294H19.3951V21.0212H25L24.9878 22.0165Z" fill="#232628"/>
<path d="M4.74463 11.9389C4.9291 10.716 5.97996 9.81177 7.21667 9.81177H27.2019C28.4387 9.81177 29.4895 10.716 29.674 11.9389L33.4042 36.6677C33.6323 38.1798 32.4614 39.5406 30.9321 39.5406H3.48647C1.95722 39.5406 0.786339 38.1798 1.01444 36.6677L4.74463 11.9389Z" stroke="#232628"/>
<path d="M21.8263 5.12146C21.8263 7.6743 19.7591 9.74292 17.21 9.74292C14.661 9.74292 12.5938 7.6743 12.5938 5.12146C12.5938 2.56862 14.661 0.5 17.21 0.5C19.7591 0.5 21.8263 2.56862 21.8263 5.12146Z" stroke="#232628"/>
</svg>
