<svg width="20" height="24" viewBox="0 0 20 24" fill="none" xmlns="http://www.w3.org/2000/svg">
<path d="M18 3.00001H13.5V1.5C13.5 0.671253 12.8287 0 12 0H7.49999C6.67124 0 5.99998 0.671253 5.99998 1.5V3.00001H1.5C0.671253 3.00001 0 3.67126 0 4.50001V6.00002C0 6.828 0.671253 7.49925 1.49851 7.50002H18.0008C18.8288 7.49925 19.5 6.828 19.5 6.00002V4.49998C19.5 3.67126 18.8287 3.00001 18 3.00001ZM12 3.00001H7.49999V2.24999C7.49999 1.836 7.83598 1.49997 8.24997 1.49997H11.25C11.664 1.49997 12 1.83596 12 2.24999V3.00001ZM1.49997 21C1.49997 22.6568 2.84321 24 4.49998 24H15C16.6567 24 18 22.6568 18 21V8.99999H1.49997V21ZM12.75 11.25C12.75 10.836 13.086 10.5 13.5 10.5C13.914 10.5 14.25 10.836 14.25 11.25V20.25C14.25 20.664 13.914 21 13.5 21C13.086 21 12.75 20.664 12.75 20.25V11.25ZM8.99999 11.25C8.99999 10.836 9.33599 10.5 9.75001 10.5C10.164 10.5 10.5 10.836 10.5 11.25V20.25C10.5 20.664 10.164 21 9.75001 21C9.33602 21 8.99999 20.664 8.99999 20.25V11.25ZM5.24997 11.25C5.24997 10.836 5.58596 10.5 5.99998 10.5C6.41401 10.5 6.75 10.836 6.75 11.25V20.25C6.75 20.664 6.41401 21 5.99998 21C5.58596 21 5.24997 20.664 5.24997 20.25V11.25Z" fill="#232628"/>
</svg>
