<svg width="142" height="27" viewBox="0 0 142 27" fill="none" xmlns="http://www.w3.org/2000/svg">
<path d="M134.602 13.5297C134.627 13.7334 134.644 13.9456 134.678 14.1493C135.076 16.1863 137.246 16.6107 138.518 15.7619C139.493 15.1678 139.773 14.1493 139.612 13.0289C139.383 11.4332 137.95 10.542 136.39 10.9664C135.297 11.255 134.619 12.2565 134.602 13.5297V13.5297ZM139.561 10.2704V5.98414L141.409 5.98193V17.6949H139.552V16.8461C139.171 17.1008 138.823 17.4403 138.408 17.61C136.492 18.4588 133.881 17.61 133.025 15.2335C132.364 13.3917 132.625 11.6517 134.051 10.2173C134.712 9.54675 135.551 9.20725 136.5 9.12237C137.424 9.02901 138.281 9.19876 139.027 9.76743C139.205 9.90324 139.349 10.0645 139.561 10.2512" fill="white"/>
<path d="M13.6546 0.862061C14.0785 0.915363 14.5023 0.974946 14.9262 1.02078C16.4521 1.17525 18.9105 2.13266 20.0126 2.98991C16.7912 5.7399 15.011 9.22831 15.011 13.5146C15.011 17.6735 16.7064 21.2383 20.0126 24.0392C19.5039 24.2938 19.0801 24.5485 18.5714 24.8031C17.3846 25.3972 16.0282 25.8216 14.5871 25.9914C11.0266 26.4157 7.75441 25.4821 4.92299 23.1904C2.55783 21.2383 1.0743 18.692 0.548709 15.7213C-0.0752196 12.0717 0.721646 8.73603 2.99017 5.79082C4.86365 3.35487 7.33054 1.8271 10.3485 1.16507C10.8571 1.04115 11.4505 1.00635 12.0439 0.929113C12.1287 0.916127 12.2135 0.894483 12.2982 0.876999H13.6546V0.862061Z" fill="white"/>
<path d="M29.2534 0.861084C29.6773 0.913707 30.0164 0.961238 30.4402 1.01895C32.3052 1.27783 34.0855 1.94411 35.6114 3.00506C38.4937 4.97419 40.3587 7.67325 41.0369 11.1107C41.7151 15.0151 40.7825 18.5799 38.1546 21.6354C36.2896 23.9271 33.8312 25.2851 30.9489 25.8792C27.6427 26.4734 24.5061 25.8792 21.7086 24.0119C21.7086 24.0119 21.6238 24.0119 21.6238 23.9271C24.8452 21.211 26.5407 17.7311 26.5407 13.4873C26.5407 9.22649 24.8452 5.75505 21.5391 2.96262C22.2172 2.58916 22.8954 2.2242 23.5736 1.91864C24.8452 1.32366 26.2864 0.985003 27.7275 0.908615C27.8123 0.904371 27.897 0.87721 27.9818 0.861084H29.2534V0.861084Z" fill="white"/>
<path d="M20.773 3.57373C27.3853 8.64932 27.131 18.5968 20.773 23.3499C14.6692 18.6817 13.991 9.0058 20.773 3.57373" fill="white"/>
<path d="M51.4627 9.32842V10.3469C52.1409 9.4133 53.0734 9.05682 54.0907 9.12472C55.1927 9.18413 56.0404 9.66793 56.6339 10.6016C56.7186 10.4318 56.8034 10.3469 56.8882 10.2621C57.4816 9.58305 58.2446 9.21808 59.1771 9.13321C59.8553 9.07379 60.6182 9.15867 61.2964 9.49818C62.2289 9.92256 62.7376 10.6864 62.9071 11.705V12.5537V17.3917V17.7312H61.0421V17.3917V12.9781C61.0421 12.6386 61.0421 12.2991 60.9573 12.0445C60.6182 11.026 59.94 10.8562 59.1771 10.8562C58.5837 10.8562 57.9902 11.1108 57.5664 11.6201C57.3968 11.9596 57.2273 12.384 57.2273 12.8084V17.3917V17.7312H55.3623V17.3917C55.3623 15.8639 55.3623 14.3361 55.2775 12.8084C55.2775 12.4689 55.1927 12.0445 55.1079 11.7898C54.7688 11.1108 54.2602 10.9411 53.6668 10.8562C52.8191 10.8562 51.9713 11.1108 51.6322 12.0445C51.5474 12.384 51.4627 12.8084 51.4627 13.2327V17.3917V17.7312H49.5977V9.32842H51.4627V9.32842Z" fill="white"/>
<path d="M118.174 13.5724V14.2514C118.174 16.2885 120.717 16.628 121.565 15.6943C123.261 15.0153 123.261 14.1666 123.261 13.0632C122.413 11.4505 121.565 10.5169 119.87 11.0261C119.022 11.3656 118.174 12.2993 118.174 13.5724V13.5724ZM123.261 16.7977C122.413 17.3919 121.565 17.8163 120.717 17.9011C119.022 18.1558 117.326 17.0524 116.479 15.1002C115.631 13.4876 115.631 11.9598 117.326 10.6017C118.174 9.75298 119.022 9.24372 119.87 9.14187C120.717 9.05699 121.565 9.16733 122.413 9.58323C122.413 9.75298 122.413 10.0076 123.261 10.2622V9.3286H124.956V17.7314H123.261V16.7977Z" fill="white"/>
<path d="M71.4724 13.4871C71.5572 12.1291 70.5399 10.9408 69.1835 10.8559C68.251 10.8559 67.4881 11.1106 66.9794 11.8745C66.4708 12.5535 66.386 13.2325 66.4708 13.9964C66.7251 15.5241 67.9119 16.3729 69.5226 16.1183C70.879 15.8637 71.5572 14.6754 71.4724 13.4871V13.4871ZM71.3876 10.2618V9.49791C71.3876 9.41303 71.4724 9.32815 71.5572 9.32815H73.1678V17.7309H71.3876V16.7973L71.3028 16.8822C70.5399 17.7309 69.5226 17.9856 68.4206 17.9007C66.5556 17.8158 65.0297 16.4578 64.6058 14.5905C64.3515 13.2325 64.6058 11.8745 65.4535 10.7711C66.1317 9.75254 67.149 9.24328 68.3358 9.14143C69.3531 9.03957 70.2856 9.24328 71.0485 9.92229C71.1333 10.0072 71.2181 10.1769 71.3876 10.2618" fill="white"/>
<path d="M97.8325 12.8084C97.8325 11.3655 96.9848 10.6016 95.2893 10.7714C94.4416 10.9411 93.5939 11.8748 93.5939 12.8084H97.8325ZM98.6802 15.3547C98.6802 15.7791 99.528 16.2035 99.528 16.543V16.8825C97.8325 17.7313 96.9848 17.9859 95.2893 17.9011C93.5939 17.8162 91.8984 16.6279 91.8984 14.5908C91.8984 13.1479 91.8984 11.7899 92.7462 10.6865C93.5939 9.75285 94.4416 9.24359 95.2893 9.14174C96.1371 9.03988 96.9848 9.22661 97.8325 9.83773C99.528 10.5167 99.528 11.4504 99.528 12.5538V14.2513H93.5939C93.5939 15.3547 94.4416 16.1186 95.2893 16.2035C96.9848 16.3733 97.8325 16.0338 98.6802 15.5245V15.3547Z" fill="white"/>
<path d="M74.9453 16.7976C75.2844 16.3733 75.5387 15.864 75.8778 15.4396C75.8778 15.4396 75.9626 15.5245 76.0474 15.5245C77.1494 16.2884 78.3362 16.4581 79.6078 16.1186C79.8621 16.1186 80.1165 15.9489 80.3708 15.7791C80.7099 15.4396 80.6251 14.9303 80.2012 14.7606C79.6926 14.5908 79.2687 14.4211 78.7601 14.4211C78.0819 14.2513 77.3189 14.1665 76.6408 13.827C75.8778 13.4874 75.3692 12.8933 75.3692 12.0445C75.1996 11.026 75.6235 10.2621 76.4712 9.66799C77.0646 9.32848 77.7428 9.16722 78.421 9.13327C79.6926 9.07385 80.7946 9.23512 81.8967 9.75287C81.9814 9.83774 82.151 9.92262 82.2358 10.0075C81.9814 10.5168 81.7271 11.026 81.4728 11.4504C80.9642 11.2806 80.4555 11.026 80.0317 10.9411C79.3535 10.7714 78.6753 10.6865 77.9971 10.8563C77.658 11.026 77.3189 11.1958 77.2342 11.6202C77.2342 11.9597 77.3189 12.1294 77.5733 12.2992C77.9971 12.384 78.421 12.4689 78.9296 12.5538C79.6078 12.7236 80.286 12.7236 80.9642 13.0631C81.8119 13.4026 82.4053 13.9967 82.4901 14.9304C82.5749 15.9489 82.151 16.7128 81.3033 17.3069C80.6251 17.7313 79.8621 17.901 79.0144 17.901C77.7428 17.9859 76.4712 17.8162 75.3692 17.1371C75.2844 17.0523 75.1149 16.9674 75.0301 16.8825L74.9453 16.7976" fill="white"/>
<path d="M85.113 11.0264H83.6719V9.32888H85.113V6.79956H86.8084V9.32888H88.5039H90.1993V9.5835V11.0264H86.8084V11.281C86.8084 12.3844 86.8084 13.5727 87.6562 14.6761V15.3551C87.6562 15.9492 87.6562 16.2887 88.5039 16.119C89.3516 16.0341 89.3516 15.8644 90.1993 15.7795V17.2224V17.3921C89.3516 17.8165 88.5039 17.9863 87.6562 17.9014C87.6562 17.9014 86.8084 17.7316 85.9607 17.3073C85.9607 16.8829 85.113 16.2887 85.113 15.6946V12.2147V11.0264" fill="white"/>
<path d="M113.936 15.4393C114.784 15.9486 114.784 16.373 114.784 16.8823C114.784 17.2218 114.784 17.4764 113.936 17.6461C112.24 18.1554 110.545 18.0705 108.849 16.9671C108.002 16.373 108.002 15.6091 108.002 14.6755C107.154 13.3174 108.002 12.1291 108.002 10.9409C108.849 9.92235 109.697 9.41309 111.393 9.20089C112.24 9.03114 113.088 9.07358 113.936 9.49796C114.784 9.66772 114.784 9.83747 114.784 10.0921C114.784 10.6014 114.784 11.1106 113.936 11.6199C113.936 11.4501 113.936 11.1955 113.088 11.1106C112.24 10.7711 111.393 10.7711 110.545 11.3653C109.697 11.7896 109.697 12.3838 109.697 13.0628C109.697 13.8267 109.697 14.6755 110.545 15.3545C110.545 15.8637 111.393 16.1184 111.393 16.2032C112.24 16.2032 113.088 16.0335 113.936 15.5242V15.4393" fill="white"/>
<path d="M102.07 17.731V17.3915V9.58295V9.32832H103.766V10.1771C103.766 9.7527 104.614 9.32832 105.461 9.17555C105.461 9.04823 106.309 9.1416 107.157 9.32832C107.157 9.92245 107.157 10.5166 106.309 11.0258C106.309 10.941 105.461 10.941 105.461 10.8561C104.614 10.8561 103.766 11.3653 103.766 12.2141V13.1477V17.3915V17.731H102.07Z" fill="white"/>
<path d="M127.504 9.32901H129.199V9.49876V10.2626C130.047 8.99799 130.895 8.93858 132.59 9.32901C132.59 9.92313 131.743 10.5173 131.743 11.1114C131.743 10.8568 130.895 10.8568 130.047 10.9416C130.047 11.0265 129.199 11.5358 129.199 12.2997V13.0635V17.3922V17.7317H127.504V9.32901Z" fill="white"/>
</svg>
