<svg width="30" height="34" viewBox="0 0 30 34" fill="none" xmlns="http://www.w3.org/2000/svg">
<path d="M29.0005 6.26112C29.0005 8.67069 27.0605 10.6241 24.6672 10.6241C22.2739 10.6241 20.334 8.67069 20.334 6.26112C20.334 3.8518 22.2739 1.89844 24.6672 1.89844C27.0605 1.89844 29.0005 3.8518 29.0005 6.26112Z" fill="#D9DADA"/>
<path d="M24.6672 11.6308C21.7258 11.6308 19.334 9.22244 19.334 6.26106C19.334 3.29993 21.7258 0.891602 24.6672 0.891602C27.6086 0.891602 30.0005 3.29993 30.0005 6.26106C30.0005 9.22244 27.6086 11.6308 24.6672 11.6308ZM24.6672 2.90518C22.8286 2.90518 21.334 4.41143 21.334 6.26106C21.334 8.11094 22.8286 9.61719 24.6672 9.61719C26.5059 9.61719 28.0005 8.11094 28.0005 6.26106C28.0005 4.41143 26.5059 2.90518 24.6672 2.90518Z" fill="#D9DADA"/>
<path d="M29.0005 27.7394C29.0005 30.1487 27.0605 32.102 24.6672 32.102C22.2739 32.102 20.334 30.1487 20.334 27.7394C20.334 25.3298 22.2739 23.3765 24.6672 23.3765C27.0605 23.3765 29.0005 25.3298 29.0005 27.7394Z" fill="#D9DADA"/>
<path d="M24.6672 33.1087C21.7258 33.1087 19.334 30.7004 19.334 27.7393C19.334 24.7779 21.7258 22.3696 24.6672 22.3696C27.6086 22.3696 30.0005 24.7779 30.0005 27.7393C30.0005 30.7004 27.6086 33.1087 24.6672 33.1087ZM24.6672 24.3832C22.8286 24.3832 21.334 25.8894 21.334 27.7393C21.334 29.5889 22.8286 31.0952 24.6672 31.0952C26.5059 31.0952 28.0005 29.5889 28.0005 27.7393C28.0005 25.8894 26.5059 24.3832 24.6672 24.3832Z" fill="#D9DADA"/>
<path d="M10.3347 17.0004C10.3347 19.4099 8.39453 21.363 6.00122 21.363C3.60815 21.363 1.66797 19.4099 1.66797 17.0004C1.66797 14.5908 3.60815 12.6377 6.00122 12.6377C8.39453 12.6377 10.3347 14.5908 10.3347 17.0004Z" fill="#D9DADA"/>
<path d="M6.00122 22.3698C3.06006 22.3698 0.667969 19.9617 0.667969 17.0003C0.667969 14.0389 3.06006 11.6309 6.00122 11.6309C8.94263 11.6309 11.3347 14.0389 11.3347 17.0003C11.3347 19.9617 8.94263 22.3698 6.00122 22.3698ZM6.00122 13.6444C4.1626 13.6444 2.66797 15.1504 2.66797 17.0003C2.66797 18.8502 4.1626 20.3562 6.00122 20.3562C7.84009 20.3562 9.33472 18.8502 9.33472 17.0003C9.33472 15.1504 7.84009 13.6444 6.00122 13.6444Z" fill="#D9DADA"/>
<path d="M9.14912 16.356C8.68501 16.356 8.23432 16.1129 7.98896 15.6781C7.62495 15.0351 7.84907 14.2149 8.48774 13.8469L20.8596 6.74584C21.4982 6.37665 22.3129 6.60229 22.6784 7.24776C23.0424 7.89076 22.8183 8.71098 22.1796 9.07894L9.80756 16.18C9.59956 16.2995 9.37299 16.356 9.14912 16.356Z" fill="#D9DADA"/>
<path d="M21.5202 27.4305C21.2961 27.4305 21.0696 27.374 20.8616 27.2545L8.48951 20.1534C7.85084 19.7869 7.62696 18.9667 7.99097 18.3222C8.35352 17.678 9.16944 17.4511 9.80957 17.8203L22.1816 24.9214C22.8203 25.2879 23.0442 26.1081 22.6802 26.7526C22.4336 27.1874 21.9829 27.4305 21.5202 27.4305Z" fill="#D9DADA"/>
</svg>
