<svg width="28" height="16" viewBox="0 0 28 16" fill="none" xmlns="http://www.w3.org/2000/svg">
<path fill-rule="evenodd" clip-rule="evenodd" d="M13.5966 15.463H15.2578C15.2578 15.463 15.7592 15.4109 16.0153 15.1491C16.2518 14.9078 16.244 14.4559 16.244 14.4559C16.244 14.4559 16.2116 12.3401 17.2458 12.028C18.2653 11.7205 19.5752 14.073 20.9627 14.9776C22.0126 15.6624 22.8103 15.5124 22.8103 15.5124L26.5213 15.463C26.5213 15.463 28.4622 15.3494 27.5418 13.9006C27.4662 13.7823 27.005 12.8283 24.7826 10.869C22.4551 8.8184 22.7671 9.15007 25.5705 5.6023C27.2768 3.4427 27.9598 2.12346 27.7459 1.55887C27.5428 1.02037 26.2878 1.16292 26.2878 1.16292L22.1087 1.18714C22.1087 1.18714 21.7987 1.14708 21.5691 1.27751C21.3453 1.40515 21.2011 1.70328 21.2011 1.70328C21.2011 1.70328 20.5388 3.37469 19.6576 4.79641C17.7972 7.79637 17.0525 7.95475 16.7483 7.76842C16.0408 7.33426 16.2175 6.02527 16.2175 5.09454C16.2175 2.18682 16.6826 0.974722 15.3138 0.660751C14.8595 0.557336 14.5249 0.488393 13.3631 0.477213C11.8726 0.462306 10.6108 0.48094 9.89642 0.813544C9.42053 1.03435 9.05355 1.5272 9.27727 1.55515C9.55299 1.59055 10.179 1.71539 10.5107 2.14396C10.9385 2.69737 10.9238 3.93928 10.9238 3.93928C10.9238 3.93928 11.17 7.36128 10.3488 7.78705C9.78554 8.07773 9.01332 7.48333 7.35407 4.761C6.50433 3.36723 5.86261 1.82626 5.86261 1.82626C5.86261 1.82626 5.73898 1.53838 5.5182 1.38372C5.25033 1.19739 4.87648 1.13776 4.87648 1.13776L0.905466 1.16292C0.905466 1.16292 0.309863 1.17876 0.0910498 1.42472C-0.104214 1.64366 0.0753502 2.09644 0.0753502 2.09644C0.0753502 2.09644 3.18387 9.00194 6.70352 12.4817C9.93175 15.6727 13.5966 15.463 13.5966 15.463Z" fill="white"/>
</svg>
