<svg width="31" height="18" viewBox="0 0 31 18" fill="none" xmlns="http://www.w3.org/2000/svg">
<path fill-rule="evenodd" clip-rule="evenodd" d="M29.3502 1.24198C29.5721 0.54123 29.3502 0.0322839 28.3639 0.0322839H25.0825C24.2555 0.0322839 23.8743 0.478561 23.6505 0.955224C23.6505 0.955224 21.9624 5.03629 19.6085 7.68167C18.8441 8.44509 18.4951 8.70146 18.0797 8.70146C17.8578 8.70146 17.5714 8.44509 17.5714 7.74434V1.2116C17.5714 0.38171 17.3173 0 16.6155 0H11.4582C10.9499 0 10.6312 0.38171 10.6312 0.765318C10.6312 1.56292 11.8091 1.75283 11.9362 3.98421V8.8268C11.9362 9.88077 11.7465 10.0707 11.3311 10.0707C10.2177 10.0707 7.5111 5.95923 5.88749 1.27426C5.57073 0.349426 5.25208 0 4.4232 0H1.11339C0.15743 0 0 0.446277 0 0.92294C0 1.78511 1.11339 6.11875 5.18759 11.8558C7.89424 15.7754 11.7465 17.8796 15.2157 17.8796C17.3173 17.8796 17.5714 17.401 17.5714 16.6053V13.6409C17.5714 12.6838 17.7611 12.5262 18.4306 12.5262C18.9086 12.5262 19.7678 12.7806 21.7101 14.6607C23.9388 16.8921 24.32 17.9119 25.5605 17.9119H28.8419C29.7959 17.9119 30.2417 17.4333 29.9856 16.5085C29.7011 15.5855 28.618 14.2467 27.2164 12.6534C26.452 11.7608 25.3063 10.7733 24.9573 10.2948C24.4794 9.65668 24.6064 9.40221 24.9573 8.8287C24.9251 8.8287 28.9367 3.15433 29.3502 1.24198V1.24198Z" fill="white"/>
</svg>
