<svg width="62" height="41" viewBox="0 0 62 41" fill="none" xmlns="http://www.w3.org/2000/svg">
<path opacity="0.3" d="M45.7379 20.0203C45.7379 28.1689 39.139 34.7738 30.9998 34.7738C22.8607 34.7738 16.2617 28.1689 16.2617 20.0203C16.2617 11.8716 22.8607 5.26672 30.9998 5.26672C39.139 5.26672 45.7379 11.8716 45.7379 20.0203Z" stroke="#232628"/>
<path opacity="0.3" d="M37.1673 20.0204C37.1673 23.4303 34.4059 26.1938 31.0006 26.1938C27.5954 26.1938 24.834 23.4303 24.834 20.0204C24.834 16.6104 27.5954 13.8469 31.0006 13.8469C34.4059 13.8469 37.1673 16.6104 37.1673 20.0204Z" stroke="#232628"/>
<path opacity="0.3" d="M34.3104 20.0202C34.3104 21.8506 32.8282 23.3336 31.0009 23.3336C29.1736 23.3336 27.6914 21.8506 27.6914 20.0202C27.6914 18.1898 29.1736 16.7068 31.0009 16.7068C32.8282 16.7068 34.3104 18.1898 34.3104 20.0202Z" stroke="#232628"/>
<path d="M50.5 20.0203C50.5 30.8015 41.7691 39.5405 31 39.5405C20.2309 39.5405 11.5 30.8015 11.5 20.0203C11.5 9.23904 20.2309 0.5 31 0.5C41.7691 0.5 50.5 9.23904 50.5 20.0203Z" stroke="#232628"/>
<line y1="-1" x2="10.9807" y2="-1" transform="matrix(-0.613292 0.613904 -0.613292 -0.613904 43.123 6.53796)" stroke="#F52536" stroke-width="2"/>
<line y1="-1" x2="10.9808" y2="-1" transform="matrix(0.61328 -0.613908 -0.61328 -0.613908 17.5332 32.1543)" stroke="#F52536" stroke-width="2"/>
<path d="M45.1426 5.86377H38.4082L45.1426 12.605V5.86377Z" fill="#F52536"/>
<path d="M16.8574 34.1768V27.4355L23.5917 34.1768H16.8574Z" fill="#F52536"/>
</svg>
