<svg width="30" height="30" viewBox="0 0 30 30" fill="none" xmlns="http://www.w3.org/2000/svg">
<path d="M28.3333 20.8333C26.3333 20.8333 24.3333 20.5 22.3333 19.8333C21.8333 19.6667 21.1666 19.8333 20.6667 20.1667L17 23.8333C12.3334 21.5 8.5 17.5 6 12.8333L9.66667 9.16667C10.1667 8.66667 10.3333 8 10 7.5C9.5 5.66667 9.16667 3.66667 9.16667 1.66667C9.16667 0.666667 8.5 0 7.5 0H1.66667C0.666667 0 0 0.666667 0 1.66667C0 17.3333 12.6667 30 28.3333 30C29.3333 30 30 29.3333 30 28.3333V22.5C30 21.5 29.3333 20.8333 28.3333 20.8333ZM26.6667 15H30C30 6.66667 23.3333 0 15 0V3.33333C21.5 3.33333 26.6667 8.5 26.6667 15ZM20 15H23.3333C23.3333 10.3333 19.6667 6.66667 15 6.66667V10C17.8333 10 20 12.1667 20 15Z" fill="white"/>
</svg>
