<svg width="40" height="40" viewBox="0 0 40 40" fill="none" xmlns="http://www.w3.org/2000/svg">
<rect x="8.43359" y="11.0882" width="23.7059" height="17.2353" fill="white" stroke="#232628"/>
<rect x="10.4805" y="14.9344" width="2.6175" height="5.33063" rx="1.30875" transform="rotate(-45 10.4805 14.9344)" stroke="#232628"/>
<rect x="0.707107" width="2.6175" height="5.33063" rx="1.30875" transform="matrix(0.707107 0.707107 0.707107 -0.707107 9.98054 23.7599)" stroke="#232628"/>
<rect x="-0.707107" width="2.6175" height="5.33063" rx="1.30875" transform="matrix(-0.707107 -0.707107 -0.707107 0.707107 29.1796 14.4344)" stroke="#232628"/>
<rect x="29.6796" y="24.2599" width="2.6175" height="5.33063" rx="1.30875" transform="rotate(135 29.6796 24.2599)" stroke="#232628"/>
<line opacity="0.3" x1="2.58785" y1="28.47" x2="7.88197" y2="23.1758" stroke="#232628"/>
<line opacity="0.3" x1="5.07613" y1="33.2172" x2="9.78202" y2="28.5113" stroke="#232628"/>
<line x1="20.5195" y1="16.7647" x2="20.5195" y2="22.647" stroke="black"/>
<line x1="23.2285" y1="19.9384" x2="17.3462" y2="19.9384" stroke="black"/>
<circle cx="20" cy="20" r="19.5" stroke="#F52536" stroke-dasharray="2 2"/>
</svg>
