<svg width="34" height="24" viewBox="0 0 34 24" fill="none" xmlns="http://www.w3.org/2000/svg">
<path d="M26.6136 0H6.97458C5.12465 0.000449544 3.35064 0.742589 2.0427 2.0632C0.734766 3.38382 -5.36033e-08 5.17476 0 7.04217V16.951C0.000445336 18.8185 0.735638 20.6092 2.04389 21.9295C3.35214 23.2498 5.12633 23.9915 6.97626 23.9915H26.6119C28.4615 23.9915 30.2354 23.25 31.5437 21.9301C32.8519 20.6102 33.5872 18.8199 33.5881 16.9527V7.04217C33.5881 5.17447 32.8531 3.38327 31.5448 2.0626C30.2365 0.741941 28.4621 0 26.6119 0H26.6136ZM21.8944 12.4772L12.7081 16.9019C12.6519 16.9287 12.5899 16.9408 12.5278 16.937C12.4658 16.9332 12.4057 16.9136 12.3531 16.8802C12.3006 16.8467 12.2572 16.8004 12.2271 16.7455C12.1969 16.6906 12.181 16.629 12.1807 16.5662V7.44225C12.1809 7.37865 12.1971 7.31614 12.2279 7.26065C12.2587 7.20517 12.3031 7.15857 12.3568 7.12527C12.4105 7.09198 12.4717 7.07309 12.5347 7.07041C12.5976 7.06774 12.6602 7.08136 12.7165 7.10998L21.9011 11.8093C21.9623 11.841 22.0136 11.8892 22.049 11.9487C22.0845 12.0082 22.1029 12.0765 22.102 12.1459C22.1011 12.2153 22.0811 12.2831 22.0441 12.3416C22.0071 12.4002 21.9547 12.4471 21.8927 12.4772H21.8944Z" fill="white"/>
</svg>
