<svg width="35" height="40" viewBox="0 0 35 40" fill="none" xmlns="http://www.w3.org/2000/svg">
<path d="M14.5029 25.48H12.7201V29H11.5234V21H12.7201V24.4743H14.5274L17.2138 21H18.5204L15.4676 24.8743L18.6669 29H17.2749L14.5029 25.48Z" fill="#232628"/>
<path d="M25.5112 21.9943H21.1152L21.1275 29H19.9186V21H25.5234L25.5112 21.9943Z" fill="#232628"/>
<path d="M5.26773 11.9291C5.45236 10.7064 6.50315 9.80237 7.73971 9.80237H27.7258C28.9623 9.80237 30.0131 10.7064 30.1977 11.9291L33.927 36.6268C34.1554 38.139 32.9844 39.5 31.455 39.5H4.01044C2.48103 39.5 1.31011 38.139 1.53846 36.6268L5.26773 11.9291Z" stroke="#232628"/>
<circle cx="17.7335" cy="5.11628" r="4.61628" stroke="#232628"/>
</svg>
