<svg width="16" height="12" viewBox="0 0 16 12" fill="none" xmlns="http://www.w3.org/2000/svg">
<path fill-rule="evenodd" clip-rule="evenodd" d="M6.34816 8.06539L6.34766 3.59126L10.6707 5.83604L6.34816 8.06539ZM15.84 2.81598C15.84 2.81598 15.6835 1.71873 15.204 1.23553C14.5955 0.601064 13.9135 0.598078 13.601 0.561254C11.362 0.400024 8.0035 0.400024 8.0035 0.400024H7.9965C7.9965 0.400024 4.638 0.400024 2.399 0.561254C2.086 0.598078 1.4045 0.601064 0.7955 1.23553C0.316 1.71873 0.16 2.81598 0.16 2.81598C0.16 2.81598 0 4.10483 0 5.39317V6.6014C0 7.89025 0.16 9.17859 0.16 9.17859C0.16 9.17859 0.316 10.2759 0.7955 10.759C1.4045 11.3935 2.204 11.3736 2.56 11.4398C3.84 11.5622 8 11.6 8 11.6C8 11.6 11.362 11.595 13.601 11.4338C13.9135 11.3965 14.5955 11.3935 15.204 10.759C15.6835 10.2759 15.84 9.17859 15.84 9.17859C15.84 9.17859 16 7.89025 16 6.6014V5.39317C16 4.10483 15.84 2.81598 15.84 2.81598Z" fill="#232628"/>
</svg>
