<svg width="54" height="69" viewBox="0 0 54 69" fill="none" xmlns="http://www.w3.org/2000/svg">
<circle cx="21.7174" cy="47.2825" r="21.2174" stroke="#232628"/>
<path d="M16.2882 19.9805H7.75635V12.9999H51.9668V19.9805H44.2106V24.7893L27.1469 47.4375H16.2882V19.9805Z" fill="white"/>
<path d="M16.2882 19.9805H7.75635V12.9999H51.9668V19.9805H44.2106M16.2882 19.9805V47.4375H27.1469L44.2106 24.7893V19.9805M16.2882 19.9805H44.2106" stroke="#232628"/>
<circle cx="21.7163" cy="46.817" r="3.10249" fill="white" stroke="#232628"/>
<line x1="40.1743" y1="6.00159" x2="53.4707" y2="6.00159" stroke="#F52536" stroke-width="2"/>
<path d="M38 6L44 12L44 2.14569e-07L38 6Z" fill="#F52536"/>
<line y1="-1" x2="13.2964" y2="-1" transform="matrix(-1 -1.56454e-09 -1.56454e-09 1 15.2964 7.00159)" stroke="#F52536" stroke-width="2"/>
<path d="M17.4707 6L11.4707 12L11.4707 2.14569e-07L17.4707 6Z" fill="#F52536"/>
<line opacity="0.3" x1="37.5" y1="35" x2="37.5" y2="2.0945e-08" stroke="#232628"/>
<line opacity="0.3" x1="18.5" y1="47" x2="18.5" y2="-2.18557e-08" stroke="#232628"/>
</svg>
