<svg width="54" height="65" viewBox="0 0 54 65" fill="none" xmlns="http://www.w3.org/2000/svg">
<path d="M13.3555 6.99995L-0.000199476 6.99995" stroke="#F52536" stroke-width="2"/>
<path d="M16.0259 6.67783L9.34805 13.3557L9.34805 -6.07126e-07L16.0259 6.67783Z" fill="#F52536"/>
<path d="M39.6704 6.99995L53.0261 6.99995" stroke="#F52536" stroke-width="2"/>
<path d="M37 6.67783L43.6778 13.3557L43.6778 -6.07126e-07L37 6.67783Z" fill="#F52536"/>
<line opacity="0.3" x1="16.5" y1="30" x2="16.5" y2="1" stroke="#232628"/>
<line opacity="0.3" x1="36.5" y1="30" x2="36.5" y2="4" stroke="#232628"/>
<rect x="16.5" y="9.5" width="20" height="55" rx="5.5" stroke="#232628"/>
<path d="M13.5 29C13.5 28.1716 14.1716 27.5 15 27.5H16.5V47.5H15C14.1716 47.5 13.5 46.8284 13.5 46V29Z" stroke="#232628"/>
<path d="M39.5 29C39.5 28.1716 38.8284 27.5 38 27.5H36.5V47.5H38C38.8284 47.5 39.5 46.8284 39.5 46V29Z" stroke="#232628"/>
</svg>
