<svg width="87" height="25" viewBox="0 0 87 25" fill="none" xmlns="http://www.w3.org/2000/svg">
<path d="M8.64401 0.229307H8.81356C10.9583 0.480541 12.1451 1.7401 12.7385 3.71771C13.671 7.13822 14.6883 10.5502 15.7056 13.9028C15.7056 13.9877 15.7056 14.1575 15.7904 14.2423C15.7904 14.3272 15.8751 14.4121 16.0447 14.4121C16.2142 14.4121 16.2142 14.3272 16.299 14.2423C16.4686 13.7331 16.5533 13.2238 16.7229 12.7146C17.5706 9.57416 18.5031 6.5356 19.3508 3.46309C19.7747 2.00322 20.7072 0.984704 22.1483 0.390572C22.4874 0.249678 22.9113 0.290418 23.2504 0.191113L23.3352 0.190858C23.4199 0.274292 23.5895 0.232787 23.759 0.232957C26.1327 0.235928 28.4216 0.235079 30.7952 0.235079C31.5582 0.235079 31.5582 0.235079 31.5582 1.03546V6.90889V23.7992C31.5582 24.0539 31.6429 24.3085 31.4734 24.4782C31.3886 24.5631 31.2191 24.5631 31.0495 24.5631H23.8438C23.5895 24.4782 23.5895 24.2236 23.5895 24.0539V22.1017V10.8981C23.5895 10.7283 23.759 10.3888 23.4199 10.3039C23.2504 10.3039 23.1656 10.6434 23.1656 10.8132C22.3179 13.6141 21.4702 16.3301 20.6224 19.131L19.0965 23.969C19.0117 24.2236 19.0117 24.4782 18.6727 24.5631H13.332C13.0776 24.5631 13.0776 24.3085 12.9929 24.1387L10.9583 17.5184C10.2801 15.2267 9.51717 12.9351 8.83899 10.6434C8.82204 10.5586 8.80508 10.5586 8.77117 10.4737C8.72031 10.3888 8.66944 10.3039 8.55076 10.3039C8.44903 10.3039 8.44056 10.4737 8.43208 10.5586C8.41512 10.6434 8.4236 10.8132 8.4236 10.9829V23.7143C8.4236 23.8841 8.43208 24.0539 8.40665 24.2236C8.38969 24.3934 8.37274 24.5631 8.15233 24.5631H1.0314C0.879653 24.5631 0.72028 24.5631 0.568536 24.4782C0.511569 24.3934 0.536831 24.2236 0.536831 24.1387C0.535509 16.2453 0.535594 8.43665 0.536195 0.628055C0.536195 0.473581 0.522123 0.358998 0.557389 0.246962C0.704046 0.160388 0.865115 0.203335 1.01855 0.203165C3.40915 0.19994 5.79975 0.201807 8.17339 0.198837C8.32599 0.198667 8.48705 0.240171 8.63965 0.156738" fill="white"/>
<path d="M52.071 0.229004H52.2406C52.3253 0.312183 52.4949 0.270593 52.6644 0.271442C54.699 0.273988 56.7335 0.281627 58.7681 0.265501C59.192 0.262954 59.2767 0.385177 59.2767 0.728926V1.11087V23.8578V24.5368C59.192 24.6216 59.192 24.6216 59.1072 24.6216C56.564 24.7065 54.0208 24.6216 51.5624 24.6216C51.3081 24.6216 51.3081 24.367 51.3081 24.1973V23.0939V10.9565C51.3081 10.7868 51.3928 10.4473 51.1385 10.4473C50.8842 10.3624 50.8842 10.617 50.7994 10.7868C49.5278 13.5877 48.2562 16.3038 46.9846 19.1047C46.476 20.1232 46.0521 21.1417 45.5435 22.1602C44.6958 23.7729 43.4242 24.7065 41.4744 24.6216H34.9469C34.8621 24.6216 34.8621 24.6216 34.8621 24.5368C34.7773 24.367 34.7773 24.1973 34.7773 23.9426V1.02599V0.784944C34.7773 0.344436 34.8621 0.307939 35.286 0.307939C37.5749 0.306241 39.7789 0.30709 42.0678 0.30709C42.5765 0.307939 42.6612 0.339343 42.6612 0.872367V6.78825V13.8415C42.6612 14.0112 42.5765 14.2659 42.6612 14.4356C42.9155 14.6902 43.0851 14.4356 43.1699 14.2659C43.509 13.7566 43.6785 13.1625 43.9328 12.6532C45.1196 10.1069 46.3065 7.53517 47.4933 4.98039C47.8324 4.23347 48.1715 3.47807 48.5106 2.73116C49.104 1.61079 49.9517 0.855392 51.1385 0.422522C51.3928 0.311334 51.7319 0.358865 52.071 0.262106" fill="white"/>
<path d="M87.001 9.1402V9.81921C87.001 10.1587 87.001 10.2436 86.1532 10.2436C83.5253 10.1587 80.7278 10.2436 77.9303 10.1587C76.2348 10.1587 74.4546 10.2436 72.7591 10.1587C67.4185 9.90409 62.756 6.11862 61.4844 0.652598V0.412399C61.4844 0.32243 61.4844 0.282538 61.5691 0.277446C61.7387 0.269807 61.8235 0.273202 61.993 0.273202H78.8628H79.4562C81.0669 0.238403 82.508 0.946269 83.7796 1.9198C85.3055 3.06562 86.1532 4.61037 87.001 6.4352V7.946V8.03087V8.973V9.14275V9.1402Z" fill="white"/>
<path d="M70.2143 24.5878H63.0086H62.5V11.7715C62.5 11.432 62.5848 11.2622 62.9239 11.2622C70.6382 11.3471 78.2677 11.3471 86.1516 11.2622V11.7715C84.7952 14.9119 82.2521 16.6943 78.6916 16.864C76.0636 16.9489 73.3509 16.864 70.723 16.864C70.3839 16.864 70.2991 16.864 70.2991 17.2884V24.1634C70.2991 24.3331 70.2991 24.418 70.2143 24.5878" fill="white"/>
</svg>
