<svg width="46" height="41" viewBox="0 0 46 41" fill="none" xmlns="http://www.w3.org/2000/svg">
<path d="M37.1429 33.1842C32.4172 33.1842 28.5714 29.354 28.5714 24.6472C28.5714 19.9405 32.4172 16.1102 37.1429 16.1102H41.9048V12.316C41.9048 10.2235 40.1962 8.52175 38.0953 8.52175H36.1905V4.72752C36.1905 2.635 34.4819 0.933289 32.381 0.933289H5.71429C2.88953 0.933289 0.554286 2.98976 0.0971429 5.67418C0.0552381 5.82974 0 5.98151 0 6.15036V35.0814C0 38.2192 2.56381 40.7727 5.71429 40.7727H38.0953C40.1962 40.7727 41.9048 39.071 41.9048 36.9785V33.1842H37.1429ZM3.80953 6.62463C3.80953 5.57932 4.66286 4.72752 5.71429 4.72752H32.381V8.52175H5.71429C4.66286 8.52175 3.80953 7.66994 3.80953 6.62463Z" fill="#232628"/>
<path d="M44.2863 18.9558H37.1435C33.993 18.9558 31.4292 21.5093 31.4292 24.6472C31.4292 27.785 33.993 30.3386 37.1435 30.3386H44.2863C45.0749 30.3386 45.7149 29.7011 45.7149 28.9157V20.3787C45.7149 19.5932 45.0749 18.9558 44.2863 18.9558ZM37.1435 26.5443C36.0921 26.5443 35.2387 25.6944 35.2387 24.6472C35.2387 23.6 36.0921 22.7501 37.1435 22.7501C38.1949 22.7501 39.0482 23.6 39.0482 24.6472C39.0482 25.6944 38.1949 26.5443 37.1435 26.5443Z" fill="#232628"/>
</svg>
