<svg width="70" height="57" viewBox="0 0 70 57" fill="none" xmlns="http://www.w3.org/2000/svg">
<line opacity="0.3" x1="52.6323" y1="1.1933" x2="69.1409" y2="1.1933" stroke="#232628"/>
<line opacity="0.3" x1="21.7158" y1="56.3448" x2="69.1396" y2="56.3448" stroke="#232628"/>
<circle cx="21.7174" cy="35.2826" r="21.2174" stroke="#232628"/>
<path d="M16.2882 7.9806H7.75635V1H51.9668V7.9806H44.2106V12.7895L27.1469 35.4376H16.2882V7.9806Z" fill="white"/>
<path d="M16.2882 7.9806H7.75635V1H51.9668V7.9806H44.2106M16.2882 7.9806V35.4376H27.1469L44.2106 12.7895V7.9806M16.2882 7.9806H44.2106" stroke="#232628"/>
<circle cx="21.7163" cy="34.8171" r="3.10249" fill="white" stroke="#232628"/>
<line x1="62.1621" y1="4.35191" x2="62.1621" y2="17.6483" stroke="#F52536" stroke-width="2"/>
<path d="M62.4929 1.6933L55.8447 8.34149H69.1411L62.4929 1.6933Z" fill="#F52536"/>
<line y1="-1" x2="13.2964" y2="-1" transform="matrix(-4.21468e-08 -1 -1 4.21468e-08 61.1611 52.817)" stroke="#F52536" stroke-width="2"/>
<path d="M62.4924 55.4756L55.8442 48.8274H69.1406L62.4924 55.4756Z" fill="#F52536"/>
</svg>
