<svg width="16" height="16" viewBox="0 0 16 16" fill="none" xmlns="http://www.w3.org/2000/svg">
<path fill-rule="evenodd" clip-rule="evenodd" d="M11.1501 3.90604C11.1501 4.41104 11.5604 4.82046 12.0665 4.82046C12.5727 4.82046 12.983 4.41104 12.983 3.90604C12.983 3.40101 12.5727 2.9916 12.0665 2.9916C11.5604 2.9916 11.1501 3.40101 11.1501 3.90604ZM5.44401 7.97378C5.44401 6.57091 6.58379 5.43369 7.98975 5.43369C9.3957 5.43369 10.5355 6.57091 10.5355 7.97378C10.5355 9.37662 9.3957 10.5138 7.98975 10.5138C6.58379 10.5138 5.44401 9.37662 5.44401 7.97378ZM7.99026 11.8869C5.82434 11.8869 4.06852 10.1349 4.06852 7.97374C4.06852 5.8126 5.82434 4.06066 7.99026 4.06066C10.1562 4.06066 11.912 5.8126 11.912 7.97374C11.912 10.1349 10.1562 11.8869 7.99026 11.8869ZM14.1902 1.81054C13.8829 1.50322 13.5903 1.31289 13.1804 1.15359C12.8709 1.0333 12.4059 0.890248 11.5496 0.851176C10.6235 0.80893 10.3458 0.799988 8.00077 0.799988C5.65576 0.799988 5.37799 0.80893 4.4519 0.851176C3.59564 0.890248 3.13062 1.0333 2.82116 1.15359C2.4112 1.31289 2.11866 1.50322 1.81134 1.81054C1.50402 2.11786 1.31369 2.41044 1.15435 2.82036C1.03409 3.12983 0.891041 3.59488 0.851969 4.45114C0.809724 5.3772 0.800781 5.65497 0.800781 7.99997C0.800781 10.345 0.809724 10.6227 0.851969 11.5488C0.891041 12.4051 1.03409 12.8701 1.15435 13.1796C1.31369 13.5895 1.50402 13.8821 1.81134 14.1894C2.11866 14.4968 2.4112 14.6871 2.82116 14.8464C3.13062 14.9666 3.59564 15.1097 4.45193 15.1488C5.37787 15.191 5.6556 15.2 8.00077 15.2C10.3459 15.2 10.6237 15.191 11.5496 15.1488C12.4059 15.1097 12.8709 14.9666 13.1804 14.8464C13.5903 14.6871 13.8829 14.4968 14.1902 14.1894C14.4975 13.8821 14.6879 13.5895 14.8472 13.1796C14.9674 12.8701 15.1105 12.4051 15.1496 11.5488C15.1918 10.6227 15.2008 10.345 15.2008 7.99997C15.2008 5.65497 15.1918 5.3772 15.1496 4.45114C15.1105 3.59488 14.9674 3.12983 14.8472 2.82036C14.6879 2.41044 14.4975 2.11786 14.1902 1.81054Z" fill="#232628"/>
</svg>
