<svg width="514" height="651" viewBox="0 0 514 651" fill="none" xmlns="http://www.w3.org/2000/svg">
<g opacity="0.16">
<circle cx="514" cy="642.056" r="513.5" stroke="black"/>
<circle cx="513.999" cy="642.057" r="449.972" stroke="#999999"/>
<circle cx="514.002" cy="642.056" r="432.646" stroke="#999999"/>
<rect x="393.203" y="492.398" width="241.562" height="79.8539" stroke="black"/>
<circle cx="438.921" cy="532.326" r="22.6011" stroke="black"/>
<path d="M199.254 73.191H189.928C185.509 73.191 181.928 76.7728 181.928 81.191V96.2922H153.051H75.0851H46.2087V81.191C46.2087 76.7728 42.6269 73.191 38.2087 73.191H28.8828V1.00003H75.0851H153.051H372.512H999.13V70.3034L980.634 72.9457C979.648 73.0865 978.917 73.9303 978.917 74.9256V96.2922H846.085V72.3034C846.085 71.1988 845.19 70.3034 844.085 70.3034H825.872L716.141 676.708H311.872L229.429 234.899L199.254 73.191Z" fill="white"/>
<path d="M199.254 73.191H189.928C185.509 73.191 181.928 76.7728 181.928 81.191V96.2922H153.051M199.254 73.191L229.429 234.899M199.254 73.191H340.748M999.13 70.3034V1.00003H372.512M999.13 70.3034L980.634 72.9457C979.648 73.0865 978.917 73.9303 978.917 74.9256V96.2922H846.085V72.3034C846.085 71.1988 845.19 70.3034 844.085 70.3034H825.872M999.13 70.3034H825.872M825.872 70.3034L716.141 676.708H311.872L229.429 234.899M229.429 234.899L340.748 73.191M340.748 73.191V47.2023L372.512 1.00003M372.512 1.00003H153.051M75.0851 1.00003H28.8828V73.191H38.2087C42.6269 73.191 46.2087 76.7728 46.2087 81.191V96.2922H75.0851M75.0851 1.00003V96.2922M75.0851 1.00003H153.051M75.0851 96.2922H153.051M153.051 1.00003V96.2922" stroke="black"/>
<circle cx="513.999" cy="642.055" r="265.163" fill="white" stroke="black"/>
<circle cx="513.996" cy="642.056" r="207.41" fill="white" stroke="black"/>
<rect x="406.562" y="500.08" width="214.88" height="70.96" stroke="#999999"/>
<circle cx="447.181" cy="535.56" r="20.06" stroke="#999999"/>
<circle cx="514.006" cy="642.056" r="91.9045" fill="white" stroke="#232628"/>
<circle cx="514.001" cy="642.055" r="74.5787" fill="white" stroke="#232628"/>
</g>
</svg>
