<svg width="24" height="24" viewBox="0 0 24 24" fill="none" xmlns="http://www.w3.org/2000/svg">
<g clip-path="url(#clip0_826_231)">
<path d="M17.5041 0C16.0336 0 14.6508 0.573054 13.6108 1.61307L9.32298 5.9009C9.65068 5.85515 9.97807 5.80548 10.313 5.80548C11.2367 5.80548 12.1417 5.98491 12.9737 6.31761L15.6446 3.64676C16.1417 3.15026 16.8019 2.87638 17.5041 2.87638C18.9542 2.87638 20.134 4.05614 20.134 5.5063C20.134 6.20857 19.8601 6.86866 19.3636 7.36583L14.5561 12.1734C13.5617 13.1664 11.8314 13.1671 10.837 12.1741L8.80469 14.2093C9.84403 15.2479 11.2267 15.8202 12.6965 15.8202C14.167 15.8202 15.5498 15.2472 16.5898 14.2072L21.3974 9.39957C22.4374 8.35956 23.0105 6.9768 23.0105 5.5063C23.0104 2.46981 20.5406 0 17.5041 0V0Z" fill="#232628"/>
<path d="M10.0115 16.7188L7.36588 19.3645C6.8687 19.861 6.20857 20.1348 5.50634 20.1348C4.05619 20.1348 2.87643 18.9551 2.87643 17.5049C2.87643 16.8027 3.1503 16.1426 3.64681 15.6454L8.45441 10.8378C9.4488 9.84482 11.1791 9.84411 12.1735 10.8371L14.2058 8.80195C12.1265 6.72469 8.50078 6.72402 6.42071 8.80405L1.61307 13.6116C0.573009 14.6517 0 16.0344 0 17.5049C0 20.5414 2.46981 23.0112 5.5063 23.0112C6.9768 23.0112 8.35951 22.4381 9.39957 21.3981L13.6305 17.1672C13.3216 17.2087 13.0143 17.2584 12.6973 17.2584C11.7595 17.2584 10.8511 17.0709 10.0115 16.7188Z" fill="#232628"/>
</g>
<defs>
<clipPath id="clip0_826_231">
<rect width="23.0112" height="23.0112" fill="white"/>
</clipPath>
</defs>
</svg>
