<svg width="36" height="36" viewBox="0 0 36 36" fill="none" xmlns="http://www.w3.org/2000/svg">
<path d="M31.08 3.33L29.886 4.524C26.6415 1.6335 22.461 0 18 0C8.0745 0 0 8.0745 0 18C0 19.7595 0.2595 21.5085 0.7695 23.199C0.948 23.7915 1.5705 24.1305 2.172 23.952C2.766 23.772 3.1035 23.145 2.9235 22.5495C2.4765 21.069 2.25 19.539 2.25 18C2.25 9.315 9.315 2.25 18 2.25C21.8565 2.25 25.473 3.645 28.2945 6.114L27.33 7.08C26.622 7.785 27.1215 9 28.125 9H31.875C32.496 9 33 8.496 33 7.875V4.125C33 3.1305 31.7925 2.619 31.08 3.33Z" fill="#232628"/>
<path d="M35.23 12.801C35.05 12.207 34.4275 11.8665 33.8275 12.048C33.2335 12.228 32.896 12.855 33.076 13.4505C33.523 14.931 33.7495 16.461 33.7495 18C33.7495 26.685 26.6845 33.75 17.9995 33.75C14.143 33.75 10.5265 32.355 7.70501 29.886L8.66951 28.92C9.37751 28.215 8.87801 27 7.87451 27H4.12451C3.50351 27 2.99951 27.504 2.99951 28.125V31.875C2.99951 32.8785 4.21601 33.3735 4.91951 32.67L6.11351 31.476C9.35801 34.3665 13.5385 36 17.9995 36C27.925 36 35.9995 27.9255 35.9995 18C35.9995 16.2405 35.74 14.4915 35.23 12.801Z" fill="#232628"/>
<path d="M17.9995 7.5L28.4995 12L17.9995 16.5L7.49951 12L17.9995 7.5Z" fill="#232628"/>
<path d="M16.4995 19.1205L7.49951 15.264V24C7.49951 24.3105 7.69001 24.5895 7.97951 24.7005L16.4995 27.9765V19.1205Z" fill="#232628"/>
<path d="M19.5005 19.1205V27.9765L28.0205 24.699C28.31 24.5895 28.5005 24.3105 28.5005 24V15.264L19.5005 19.1205Z" fill="#232628"/>
</svg>
