<svg width="442" height="497" viewBox="0 0 442 497" fill="none" xmlns="http://www.w3.org/2000/svg">
<circle cx="221.349" cy="276.08" r="220.06" stroke="black"/>
<circle cx="221.351" cy="276.08" r="192.8" stroke="#999999"/>
<circle cx="221.35" cy="276.08" r="185.365" stroke="#999999"/>
<rect x="169.809" y="212.147" width="103.085" height="33.6948" stroke="black"/>
<circle cx="189.135" cy="228.994" r="9.41281" stroke="black"/>
<circle cx="253.569" cy="228.994" r="9.41281" stroke="black"/>
<circle cx="221.352" cy="423.41" r="14.3692" transform="rotate(45 221.352 423.41)" stroke="black"/>
<line x1="231.209" y1="412.691" x2="211.933" y2="431.967" stroke="black"/>
<path d="M78.8521 39.4121V41.8904H66.4611H33.0053H20.6143V39.4122C20.6143 35.3061 17.2857 31.9775 13.1797 31.9775V1H33.0053H66.4611H160.633H429.518V30.7384L422.561 31.7322C421.576 31.873 420.844 32.7168 420.844 33.7121V41.8904H363.845V32.7384C363.845 31.6339 362.95 30.7384 361.845 30.7384H355.172L308.086 290.95H134.612L99.235 101.367L86.2867 31.9775C82.1807 31.9775 78.8521 35.3061 78.8521 39.4121Z" fill="#F7F9FA"/>
<path d="M86.2867 31.9775V31.9775C82.1807 31.9775 78.8521 35.3061 78.8521 39.4121V41.8904H66.4611M86.2867 31.9775L99.235 101.367M86.2867 31.9775H147.003M429.518 30.7384V1H160.633M429.518 30.7384L422.561 31.7322C421.576 31.873 420.844 32.7168 420.844 33.7121V41.8904H363.845V32.7384C363.845 31.6339 362.95 30.7384 361.845 30.7384H355.172M429.518 30.7384H355.172M355.172 30.7384L308.086 290.95H134.612L99.235 101.367M99.235 101.367L147.003 31.9775M147.003 31.9775V20.8256L160.633 1M160.633 1H66.4611M33.0053 1H13.1797V31.9775V31.9775C17.2857 31.9775 20.6143 35.3061 20.6143 39.4122V41.8904H33.0053M33.0053 1V41.8904M33.0053 1H66.4611M33.0053 41.8904H66.4611M66.4611 1V41.8904" stroke="black"/>
<circle cx="221.353" cy="276.08" r="113.497" fill="#F7F9FA" stroke="black"/>
<circle cx="221.348" cy="276.08" r="88.7153" fill="#F7F9FA" stroke="black"/>
<rect x="175.531" y="215.443" width="91.6352" height="29.8784" stroke="#999999"/>
<circle cx="192.674" cy="230.383" r="8.3224" stroke="#999999"/>
<circle cx="250.026" cy="230.383" r="8.3224" stroke="#999999"/>
<circle cx="221.354" cy="276.08" r="39.1512" fill="#F7F9FA" stroke="#232628"/>
<circle cx="221.346" cy="276.08" r="31.7166" fill="#F7F9FA" stroke="#232628"/>
</svg>
