<svg width="30" height="17" viewBox="0 0 30 17" fill="none" xmlns="http://www.w3.org/2000/svg">
<path fill-rule="evenodd" clip-rule="evenodd" d="M14.6911 16.1344H16.4128C16.4128 16.1344 16.9324 16.0803 17.1978 15.809C17.4429 15.5589 17.4347 15.0906 17.4347 15.0906C17.4347 15.0906 17.4012 12.8979 18.473 12.5744C19.5296 12.2558 20.8871 14.6938 22.325 15.6313C23.4131 16.341 24.2399 16.1855 24.2399 16.1855L28.0858 16.1344C28.0858 16.1344 30.0972 16.0166 29.1434 14.5152C29.0651 14.3925 28.5871 13.4038 26.2839 11.3733C23.8718 9.24813 24.1951 9.59186 27.1004 5.91507C28.8688 3.67694 29.5766 2.30974 29.3549 1.72462C29.1444 1.16653 27.8438 1.31426 27.8438 1.31426L23.5128 1.33937C23.5128 1.33937 23.1914 1.29785 22.9535 1.43302C22.7216 1.5653 22.5722 1.87428 22.5722 1.87428C22.5722 1.87428 21.8857 3.60646 20.9726 5.07988C19.0445 8.18892 18.2727 8.35307 17.9574 8.15996C17.2242 7.71002 17.4073 6.35343 17.4073 5.38885C17.4073 2.37539 17.8893 1.11922 16.4707 0.793835C15.9999 0.686659 15.6531 0.615209 14.4491 0.603623C12.9044 0.588174 11.5967 0.607485 10.8564 0.952184C10.3632 1.18102 9.98287 1.69179 10.2147 1.72076C10.5005 1.75745 11.1493 1.88683 11.493 2.33098C11.9363 2.90451 11.9211 4.19158 11.9211 4.19158C11.9211 4.19158 12.1763 7.73802 11.3252 8.17927C10.7415 8.48052 9.94117 7.8645 8.22159 5.04319C7.34095 3.59874 6.67589 2.00173 6.67589 2.00173C6.67589 2.00173 6.54776 1.70338 6.31896 1.5431C6.04134 1.34999 5.6539 1.28819 5.6539 1.28819L1.53849 1.31426C1.53849 1.31426 0.921228 1.33068 0.694458 1.58558C0.492094 1.81248 0.678188 2.28174 0.678188 2.28174C0.678188 2.28174 3.89974 9.43834 7.54738 13.0446C10.893 16.3516 14.6911 16.1344 14.6911 16.1344Z" fill="#507299"/>
</svg>
