<svg width="40" height="40" viewBox="0 0 40 40" fill="none" xmlns="http://www.w3.org/2000/svg">
<path opacity="0.3" d="M34.7379 20C34.7379 28.1396 28.1394 34.7381 19.9998 34.7381C11.8602 34.7381 5.26172 28.1396 5.26172 20C5.26172 11.8604 11.8602 5.2619 19.9998 5.2619C28.1394 5.2619 34.7379 11.8604 34.7379 20Z" stroke="#232628"/>
<path opacity="0.3" d="M26.1693 20.0001C26.1693 23.4058 23.4084 26.1667 20.0026 26.1667C16.5968 26.1667 13.8359 23.4058 13.8359 20.0001C13.8359 16.5943 16.5968 13.8334 20.0026 13.8334C23.4084 13.8334 26.1693 16.5943 26.1693 20.0001Z" stroke="#232628"/>
<path opacity="0.3" d="M23.3104 20C23.3104 21.8278 21.8287 23.3095 20.0009 23.3095C18.1731 23.3095 16.6914 21.8278 16.6914 20C16.6914 18.1722 18.1731 16.6904 20.0009 16.6904C21.8287 16.6904 23.3104 18.1722 23.3104 20Z" stroke="#232628"/>
<path d="M39.5 20C39.5 30.7696 30.7695 39.5 20 39.5C9.23044 39.5 0.5 30.7696 0.5 20C0.5 9.23045 9.23044 0.5 20 0.5C30.7695 0.5 39.5 9.23045 39.5 20Z" stroke="#232628"/>
<line y1="-1" x2="9.5238" y2="-1" transform="matrix(-0.707108 0.707105 -0.707108 -0.707105 32.1211 6.53131)" stroke="#F52536" stroke-width="2"/>
<line y1="-1" x2="9.52383" y2="-1" transform="matrix(0.707105 -0.707109 -0.707105 -0.707109 6.53125 32.1218)" stroke="#F52536" stroke-width="2"/>
<path d="M34.1406 5.85785H27.4063L34.1406 12.5922V5.85785Z" fill="#F52536"/>
<path d="M5.85546 34.1421V27.4078L12.5898 34.1421H5.85546Z" fill="#F52536"/>
</svg>
