<svg width="36" height="41" viewBox="0 0 36 41" fill="none" xmlns="http://www.w3.org/2000/svg">
<path d="M16.9112 25.7065L19.0813 22.9524V28.5051L16.9112 25.7065ZM20.0813 30.8166H20.8738H21.2871H22.2888L22.2871 29.8149L22.2766 23.8291H25.6595H26.6473L26.6594 22.8414L26.6716 21.8497L26.684 20.8374H25.6716H20.7479H20.0813H19.0813H18.6868H17.3836H16.8927L16.5925 21.2257L14.2133 24.3027H13.9016V21.8374V20.8374H12.9016H11.708H10.708V21.8374V29.8166V30.8166H11.708H12.9016H13.9016V29.8166V27.3058H14.1944L16.6588 30.4353L16.9591 30.8166H17.4445H18.8329H19.0813H20.0813Z" fill="#232628" stroke="white" stroke-width="2"/>
<path d="M5.96493 12.8713C6.11263 11.8931 6.95326 11.1699 7.94252 11.1699H27.8633C28.8525 11.1699 29.6931 11.8931 29.8408 12.8713L33.5581 37.4893C33.7407 38.6991 32.804 39.7879 31.5805 39.7879H4.22528C3.00176 39.7879 2.06502 38.6991 2.2477 37.4893L5.96493 12.8713Z" stroke="#232628" stroke-width="2"/>
<circle cx="17.9028" cy="5.68551" r="4.10299" stroke="#232628" stroke-width="2"/>
</svg>
