<svg width="24" height="22" viewBox="0 0 24 22" fill="none" xmlns="http://www.w3.org/2000/svg">
<path d="M13.3394 0.137922C8.15443 0.137922 3.82279 3.86282 2.87317 8.7796L5.54621e-07 8.7796L4.4783 16.5977L8.9566 8.7796L6.32627 8.7796C7.20738 5.73396 10.0168 3.50005 13.3395 3.50005C17.3657 3.50005 20.6414 6.77902 20.6414 10.8093C20.6414 14.8396 17.3657 18.1186 13.3395 18.1186C12.2551 18.1186 11.2122 17.8868 10.2396 17.4296L8.81173 20.4727C10.2344 21.1416 11.7577 21.4807 13.3394 21.4807C19.2176 21.4806 24 16.6934 24 10.8092C24 4.92503 19.2176 0.137922 13.3394 0.137922Z" fill="#232628"/>
</svg>
