<svg width="73" height="64" viewBox="0 0 73 64" fill="none" xmlns="http://www.w3.org/2000/svg">
<path d="M35.3705 11.7276L36.2478 13.3308L37.125 11.7276C38.282 9.61343 40.231 6.73913 43.1311 4.49624C46.1391 2.16993 49.5316 1 53.2389 1C63.5897 1 71.4956 9.45362 71.4956 20.8869C71.4956 27.0115 69.0507 32.2095 64.6073 37.5712C60.1385 42.9636 53.7249 48.4335 45.8849 55.1146L46.5335 55.8757L45.8849 55.1146C43.2287 57.3782 40.2146 59.9469 37.0807 62.6875L37.0804 62.6878C36.8509 62.8888 36.5555 63 36.2478 63C35.9401 63 35.6448 62.8888 35.4153 62.6878L35.4148 62.6874C32.2828 59.9485 29.27 57.3809 26.6163 55.1194L26.6124 55.116L26.6124 55.116C18.7715 48.4342 12.3575 42.9639 7.88851 37.5714C3.44486 32.2095 1 27.0115 1 20.8869C1 9.45362 8.9059 1 19.2566 1C22.964 1 26.3565 2.16993 29.3644 4.49624L29.9762 3.7052L29.3644 4.49624C32.2646 6.73913 34.2136 9.61331 35.3705 11.7276Z" stroke="white" stroke-width="2"/>
</svg>
