<svg width="16" height="17" viewBox="0 0 16 17" fill="none" xmlns="http://www.w3.org/2000/svg">
<path d="M14.9369 0.0424817H0.67246C0.420715 0.0420056 0.190068 0.182594 0.0750612 0.406488C-0.0415314 0.633397 -0.0210682 0.90664 0.127885 1.11387L5.35377 8.47794C5.35552 8.48048 5.35742 8.48286 5.35917 8.4854C5.54904 8.74182 5.65184 9.05251 5.65231 9.37161V15.3755C5.6512 15.5532 5.721 15.7241 5.84616 15.8503C5.97147 15.9762 6.14184 16.0473 6.31951 16.0473C6.40977 16.0472 6.49923 16.0292 6.58267 15.9945L9.51922 14.8745C9.78223 14.7941 9.95688 14.5458 9.95688 14.2468V9.37161C9.95736 9.05251 10.0601 8.74182 10.2499 8.4854C10.2516 8.48286 10.2535 8.48048 10.2553 8.47794L15.4813 1.11371C15.6303 0.90664 15.6507 0.633555 15.5341 0.406647C15.4193 0.182594 15.1885 0.0420056 14.9369 0.0424817Z" fill="#41474A"/>
</svg>
