<svg width="49" height="48" viewBox="0 0 49 48" fill="none" xmlns="http://www.w3.org/2000/svg">
<circle cx="24.2461" cy="24" r="24" fill="#F52536"/>
<path d="M32.2461 15H27.7461V13.5C27.7461 12.6713 27.0748 12 26.2461 12H21.7461C20.9173 12 20.2461 12.6713 20.2461 13.5V15H15.7461C14.9173 15 14.2461 15.6713 14.2461 16.5V18C14.2461 18.828 14.9173 19.4993 15.7446 19.5H32.2469C33.0749 19.4993 33.7461 18.828 33.7461 18V16.5C33.7461 15.6713 33.0748 15 32.2461 15ZM26.2461 15H21.7461V14.25C21.7461 13.836 22.0821 13.5 22.4961 13.5H25.4961C25.9101 13.5 26.2461 13.836 26.2461 14.25V15ZM15.7461 33C15.7461 34.6568 17.0893 36 18.7461 36H29.2461C30.9028 36 32.2461 34.6568 32.2461 33V21H15.7461V33ZM26.9961 23.25C26.9961 22.836 27.3321 22.5 27.7461 22.5C28.1601 22.5 28.4961 22.836 28.4961 23.25V32.25C28.4961 32.664 28.1601 33 27.7461 33C27.3321 33 26.9961 32.664 26.9961 32.25V23.25ZM23.2461 23.25C23.2461 22.836 23.5821 22.5 23.9961 22.5C24.4101 22.5 24.7461 22.836 24.7461 23.25V32.25C24.7461 32.664 24.4101 33 23.9961 33C23.5821 33 23.2461 32.664 23.2461 32.25V23.25ZM19.4961 23.25C19.4961 22.836 19.8321 22.5 20.2461 22.5C20.6601 22.5 20.9961 22.836 20.9961 23.25V32.25C20.9961 32.664 20.6601 33 20.2461 33C19.8321 33 19.4961 32.664 19.4961 32.25V23.25Z" fill="white"/>
</svg>
