<svg width="112" height="106" viewBox="0 0 112 106" fill="none" xmlns="http://www.w3.org/2000/svg">
<path d="M109.727 81.1319L70.1187 8.21421C67.1292 3.18165 61.8495 0.176025 55.9957 0.176025C50.142 0.176025 44.8622 3.18165 41.8728 8.21421C41.8502 8.25271 41.8312 8.29121 41.8087 8.32971L2.33219 81.0166C-0.721345 86.1553 -0.779095 92.3264 2.17491 97.5228C5.13569 102.722 10.4697 105.824 16.4518 105.824H95.3208C101.303 105.824 106.856 102.722 109.817 97.5228C112.771 92.3267 112.713 86.1551 109.727 81.1319ZM49.4267 33.5636C49.4267 29.9354 52.3677 26.9946 55.9957 26.9946C59.6239 26.9946 62.5648 29.9357 62.5648 33.5636V59.8401C62.5648 63.4678 59.6237 66.4092 55.9957 66.4092C52.3677 66.4092 49.4267 63.4676 49.4267 59.8401V33.5636ZM55.9957 92.6858C50.5622 92.6858 46.1419 88.2658 46.1419 82.832C46.1419 77.3985 50.562 72.9784 55.9957 72.9784C61.4292 72.9784 65.8493 77.3985 65.8493 82.832C65.8495 88.2656 61.4295 92.6858 55.9957 92.6858Z" fill="#F52536"/>
</svg>
