<svg width="79" height="27" viewBox="0 0 79 27" fill="none" xmlns="http://www.w3.org/2000/svg">
<path d="M70.7057 17.1675C70.0275 14.1119 69.4341 11.0564 68.7559 8.00086C68.7559 7.95842 68.6712 7.95842 68.6712 7.95842C67.5691 10.9715 66.4671 14.0271 65.365 17.125H70.7057V17.1675ZM55.7009 25.74C56.2019 24.5517 56.6758 23.4483 57.159 22.2601C59.8294 15.8943 62.4912 9.44375 65.2124 3.07804C65.6363 1.95767 66.5688 1.33808 67.7556 1.3211C69.4511 1.28783 71.1465 1.31941 72.842 1.30498C73.0963 1.30243 73.1811 1.40683 73.2659 1.6657C74.1984 6.10472 75.1309 10.5777 76.0634 14.9913C76.7415 18.4712 77.4197 21.9511 78.1827 25.431C78.2675 25.6857 78.1827 25.8554 77.8436 25.8554H72.842C72.5877 25.8554 72.5029 25.7705 72.4181 25.431C72.2486 24.4974 71.9943 23.4789 71.8247 22.5452C71.7399 22.2906 71.6552 22.1209 71.4009 22.1209C68.9424 22.2057 66.3993 22.2057 63.9239 22.1209C63.6526 22.1209 63.5339 22.2906 63.4407 22.4604C63.0931 23.4789 62.7116 24.4974 62.3556 25.5159C62.2878 25.7705 62.1945 25.8554 61.9656 25.8554H55.9552C55.89 25.8554 55.8264 25.8554 55.6992 25.7705L55.7009 25.74Z" fill="white"/>
<path d="M0.00593411 1.95735C0.0565436 1.72224 0.10088 1.51854 0.148353 1.29701C0.278055 1.28997 0.393347 1.27893 0.508638 1.27893C3.93346 1.27893 7.34982 1.27689 10.7662 1.28241C12.3769 1.28521 13.4789 2.24152 13.818 3.87963C14.6657 8.47144 15.5134 13.1312 16.446 17.7145C16.446 17.7145 16.446 17.7994 16.5307 17.8842C16.6155 17.7145 16.7003 17.6296 16.7003 17.4599C18.8196 12.1975 20.8541 6.93518 22.9735 1.67284C23.0582 1.42161 23.143 1.31382 23.4821 1.31551C25.5167 1.32994 27.5512 1.32307 29.6705 1.32307C29.5858 1.47669 29.5858 1.59382 29.501 1.70586C26.1948 9.6418 22.8887 17.5777 19.5826 25.5561C19.4978 25.8108 19.413 25.8956 19.0739 25.8956H13.1398C12.8855 25.8956 12.7159 25.8108 12.7159 25.5561C11.0205 19.1055 9.32502 12.6549 7.71434 6.20431C7.4685 5.19428 6.98529 4.48132 6.07822 4.02299C4.38276 3.18271 2.58558 2.69043 0.771434 2.22361C0.530679 2.15571 0.289923 2.10054 0 2.02839" fill="white"/>
<path d="M37.8867 24.9255C38.2707 23.1431 38.6412 21.3607 39.0227 19.5783C39.6161 19.833 40.1671 20.0876 40.7266 20.3422C42.6849 21.0212 44.7025 21.3607 46.8048 20.9364C47.3983 20.8515 47.9917 20.5968 48.5003 20.1725C49.5176 19.5783 49.6024 18.3052 48.8394 17.4564C48.3308 16.9472 47.8221 16.6077 47.2287 16.2682C46.381 15.7589 45.4909 15.3345 44.6601 14.8253C44.0412 14.4858 43.4309 14.0614 42.8799 13.637C40.4638 11.6 39.8365 8.87542 41.142 6.0066C42.1338 3.82528 43.9226 2.52667 46.0843 1.70337C47.9069 1.00993 49.8567 0.803683 51.8065 0.874131C53.4171 0.930998 55.0278 1.26117 56.6385 1.77382C56.7233 1.80777 56.8081 1.84172 56.8928 1.88416C56.9776 1.90113 56.9776 1.93508 57.0624 1.97752C56.6385 3.6411 56.2994 5.32165 55.9603 7.03615C55.5365 6.88338 55.1974 6.7306 54.7735 6.60328C52.9933 5.98369 51.0435 5.71208 49.1785 6.09403C48.5003 6.23832 47.8221 6.53538 47.3983 7.11254C46.8896 7.7576 46.8896 8.49603 47.3983 9.09016C47.7373 9.48059 48.1612 9.8201 48.6698 10.0747C49.5176 10.584 50.3653 11.0084 51.213 11.5176C51.8912 11.942 52.5694 12.2815 53.1628 12.7908C55.7908 14.658 56.469 17.2892 55.5365 20.2599C54.6887 22.7213 52.9085 24.2491 50.5349 25.1827C48.8394 25.9466 47.0592 26.2012 45.1772 26.2012C42.9561 26.2012 40.7944 25.9466 38.6836 25.2676C38.4216 25.1827 38.1707 25.013 37.8867 24.9281" fill="white"/>
<path d="M38.7439 1.29115C38.4048 2.97169 38.0657 4.59283 37.7266 6.20548C36.3703 12.4184 35.0139 18.6823 33.7423 24.8782C33.488 25.8119 33.488 25.8119 32.5555 25.8119H27.7235H27.2148C27.3844 25.3026 27.4692 24.7934 27.5539 24.2841C29.0798 16.9848 30.6905 9.60053 32.2164 2.30117C32.4707 1.27417 32.4707 1.27417 33.488 1.27417C35.0139 1.27417 36.6246 1.27502 38.2353 1.27587H38.7439V1.29115Z" fill="white"/>
</svg>
