<svg width="48" height="48" viewBox="0 0 48 48" fill="none" xmlns="http://www.w3.org/2000/svg">
<path d="M7.59375 10.5938H23.9062C23.9062 8.85619 23.9062 3.35925 23.9062 1.40625C23.9062 0.629625 23.2766 0 22.5 0H9C8.22337 0 7.59375 0.629625 7.59375 1.40625V10.5938Z" fill="#232628"/>
<path d="M34.2188 19.5938H48V17.8125C48 15.4863 46.1075 13.5938 43.7812 13.5938H34.2188V19.5938Z" fill="#232628"/>
<path d="M8.90625 19.4062H22.5938V23.3438H8.90625V19.4062Z" fill="#232628"/>
<path d="M34.2188 22.4062V34.4062H43.7812C46.1075 34.4062 48 32.5137 48 30.1875V22.4062H34.2188Z" fill="#232628"/>
<path d="M31.4062 6C31.4062 5.22337 30.7766 4.59375 30 4.59375H26.7188V10.5938H27C27.7763 10.5938 28.4062 11.2238 28.4062 12C28.4062 12.7762 27.7763 13.4062 27 13.4062C25.7348 13.4062 5.58825 13.4062 4.5 13.4062C3.72375 13.4062 3.09375 12.7762 3.09375 12C3.09375 11.2238 3.72375 10.5938 4.5 10.5938H4.78125V4.59375H1.40625C0.629625 4.59375 0 5.22337 0 6V46.5938C0 47.3704 0.629625 48 1.40625 48H30C30.7766 48 31.4062 47.3704 31.4062 46.5938C31.4062 45.5798 31.4062 9.49772 31.4062 6ZM9 42.6562H7.5C6.72337 42.6562 6.09375 42.0266 6.09375 41.25C6.09375 40.4734 6.72337 39.8438 7.5 39.8438H9C9.77662 39.8438 10.4062 40.4734 10.4062 41.25C10.4062 42.0266 9.77662 42.6562 9 42.6562ZM9 37.4062H7.5C6.72337 37.4062 6.09375 36.7766 6.09375 36C6.09375 35.2234 6.72337 34.5938 7.5 34.5938H9C9.77662 34.5938 10.4062 35.2234 10.4062 36C10.4062 36.7766 9.77662 37.4062 9 37.4062ZM9 32.1562H7.5C6.72337 32.1562 6.09375 31.5266 6.09375 30.75C6.09375 29.9734 6.72337 29.3438 7.5 29.3438H9C9.77662 29.3438 10.4062 29.9734 10.4062 30.75C10.4062 31.5266 9.77662 32.1562 9 32.1562ZM16.5 42.6562H15C14.2234 42.6562 13.5938 42.0266 13.5938 41.25C13.5938 40.4734 14.2234 39.8438 15 39.8438H16.5C17.2766 39.8438 17.9062 40.4734 17.9062 41.25C17.9062 42.0266 17.2766 42.6562 16.5 42.6562ZM16.5 37.4062H15C14.2234 37.4062 13.5938 36.7766 13.5938 36C13.5938 35.2234 14.2234 34.5938 15 34.5938H16.5C17.2766 34.5938 17.9062 35.2234 17.9062 36C17.9062 36.7766 17.2766 37.4062 16.5 37.4062ZM16.5 32.1562H15C14.2234 32.1562 13.5938 31.5266 13.5938 30.75C13.5938 29.9734 14.2234 29.3438 15 29.3438H16.5C17.2766 29.3438 17.9062 29.9734 17.9062 30.75C17.9062 31.5266 17.2766 32.1562 16.5 32.1562ZM24 42.6562H22.5C21.7234 42.6562 21.0938 42.0266 21.0938 41.25C21.0938 40.4734 21.7234 39.8438 22.5 39.8438H24C24.7766 39.8438 25.4062 40.4734 25.4062 41.25C25.4062 42.0266 24.7766 42.6562 24 42.6562ZM24 37.4062H22.5C21.7234 37.4062 21.0938 36.7766 21.0938 36C21.0938 35.2234 21.7234 34.5938 22.5 34.5938H24C24.7766 34.5938 25.4062 35.2234 25.4062 36C25.4062 36.7766 24.7766 37.4062 24 37.4062ZM24 32.1562H22.5C21.7234 32.1562 21.0938 31.5266 21.0938 30.75C21.0938 29.9734 21.7234 29.3438 22.5 29.3438H24C24.7766 29.3438 25.4062 29.9734 25.4062 30.75C25.4062 31.5266 24.7766 32.1562 24 32.1562ZM25.4062 24.75C25.4062 25.5266 24.7766 26.1562 24 26.1562H7.5C6.72337 26.1562 6.09375 25.5266 6.09375 24.75V18C6.09375 17.2234 6.72337 16.5938 7.5 16.5938H24C24.7766 16.5938 25.4062 17.2234 25.4062 18V24.75Z" fill="#232628"/>
</svg>
