<svg width="76" height="61" viewBox="0 0 76 61" fill="none" xmlns="http://www.w3.org/2000/svg">
<line x1="10.7367" y1="39.2213" x2="1.29286" y2="29.7774" stroke="#F52536" stroke-width="2"/>
<path d="M12.3869 41.3478L12.3869 31.9039L2.94306 41.3478L12.3869 41.3478Z" fill="#F52536"/>
<line x1="18.3721" y1="49.9187" x2="27.816" y2="59.3626" stroke="#F52536" stroke-width="2"/>
<path d="M16.7219 47.7922L16.7219 57.2361L26.1658 47.7922L16.7219 47.7922Z" fill="#F52536"/>
<rect x="18.5" y="0.5" width="56.4961" height="41.0704" fill="white" stroke="#232628"/>
<rect x="22.9141" y="10.0183" width="7.21887" height="13.383" rx="3.60944" transform="rotate(-45 22.9141 10.0183)" stroke="#232628"/>
<rect x="0.707107" width="7.21887" height="13.383" rx="3.60944" transform="matrix(0.707107 0.707107 0.707107 -0.707107 22.4141 30.7056)" stroke="#232628"/>
<rect x="-0.707107" width="7.21887" height="13.383" rx="3.60944" transform="matrix(-0.707107 -0.707107 -0.707107 0.707107 67.8334 9.51831)" stroke="#232628"/>
<rect x="68.3334" y="31.2056" width="7.21887" height="13.383" rx="3.60944" transform="rotate(135 68.3334 31.2056)" stroke="#232628"/>
<line opacity="0.3" x1="7.64645" y1="46.4572" x2="30.387" y2="23.7167" stroke="#232628"/>
<line opacity="0.3" x1="12.6464" y1="51.4572" x2="35.387" y2="28.7167" stroke="#232628"/>
</svg>
