<svg width="38" height="33" viewBox="0 0 38 33" fill="none" xmlns="http://www.w3.org/2000/svg">
<path d="M17.813 6.27955L18.6902 7.88273L19.5675 6.27957C20.1458 5.22282 21.112 3.8027 22.5358 2.70153C24.0039 1.56612 25.6495 1 27.4513 1C32.4846 1 36.3805 5.10422 36.3805 10.7698C36.3805 13.7788 35.1863 16.3532 32.9402 19.0636C30.6687 21.8046 27.3989 24.5953 23.3452 28.0498L23.3452 28.0498L23.3445 28.0504C21.9753 29.2172 20.4192 30.5434 18.8009 31.9586L18.8005 31.9589C18.7707 31.9851 18.7319 32 18.6903 32C18.6487 32 18.6099 31.9851 18.5801 31.959L18.5796 31.9586C16.9622 30.5442 15.4067 29.2185 14.0388 28.0527L14.0362 28.0505L14.0362 28.0505C9.98206 24.5957 6.71208 21.8047 4.44046 19.0637C2.19418 16.3532 1 13.7788 1 10.7698C1 5.10422 4.89592 1 9.9292 1C11.7311 1 13.3766 1.56612 14.8447 2.70153L15.4565 1.9105L14.8447 2.70153C16.2686 3.80271 17.2347 5.22276 17.813 6.27955Z" stroke="#232628" stroke-width="2"/>
</svg>
