<svg width="49" height="33" viewBox="0 0 49 33" fill="none" xmlns="http://www.w3.org/2000/svg">
<path d="M0 13.9407V26.3213C0 29.8865 2.9018 32.7767 6.48142 32.7767H41.5501C45.1297 32.7767 48.0315 29.8865 48.0315 26.3213V13.9407C48.0315 13.3207 47.5268 12.8181 46.9043 12.8181H1.1272C0.504706 12.8181 0 13.3207 0 13.9407ZM11.9922 21.7994H8.98635C7.89691 21.7994 7.01375 20.9198 7.01375 19.8348C7.01375 18.7497 7.89691 17.8701 8.98635 17.8701H11.9922C13.0817 17.8701 13.9648 18.7497 13.9648 19.8348C13.9648 20.9198 13.0817 21.7994 11.9922 21.7994Z" fill="#232628"/>
<path d="M48.0315 7.76593V7.36055C48.0315 3.7953 45.1297 0.905151 41.5501 0.905151H6.48142C2.9018 0.905151 0 3.7953 0 7.36055V7.76593C0 8.38593 0.504706 8.88861 1.1272 8.88861H46.9043C47.5268 8.88861 48.0315 8.38593 48.0315 7.76593Z" fill="#232628"/>
</svg>
