<svg width="34" height="34" viewBox="0 0 34 34" fill="none" xmlns="http://www.w3.org/2000/svg">
<path fill-rule="evenodd" clip-rule="evenodd" d="M12.3888 8.88078C12.0689 8.11456 11.8263 8.08542 11.3416 8.06583C11.1766 8.05629 10.9928 8.04675 10.7888 8.04675C10.1582 8.04675 9.49901 8.23109 9.1012 8.63843C8.61651 9.13317 7.41382 10.2874 7.41382 12.6541C7.41382 15.0211 9.13987 17.3102 9.37268 17.6307C9.61528 17.9504 12.7379 22.8782 17.5866 24.8865C21.3782 26.4579 22.5033 26.3123 23.3662 26.1282C24.6269 25.8567 26.2076 24.925 26.6054 23.8001C27.0029 22.6748 27.0029 21.7144 26.8864 21.5108C26.7701 21.3071 26.4499 21.1911 25.9652 20.9482C25.4805 20.7056 23.1239 19.5416 22.6779 19.3864C22.2414 19.2216 21.8245 19.2799 21.495 19.7455C21.0294 20.3955 20.5739 21.0552 20.2052 21.4527C19.9144 21.7632 19.439 21.8021 19.0414 21.6371C18.508 21.4143 17.0148 20.8899 15.1722 19.2508C13.7465 17.9803 12.7768 16.3994 12.4958 15.924C12.2145 15.439 12.4667 15.1575 12.6897 14.8958C12.9323 14.5949 13.1648 14.3817 13.4072 14.1002C13.6498 13.8189 13.7854 13.6735 13.9406 13.3435C14.1056 13.0236 13.9891 12.6936 13.8728 12.451C13.7563 12.2078 12.7866 9.84087 12.3888 8.88078ZM16.9951 0.5C7.89896 0.5 0.5 7.90102 0.5 16.9997C0.5 20.6081 1.66377 23.9548 3.64196 26.6708L1.58591 32.8013L7.92809 30.7744C10.5366 32.501 13.6495 33.5 17.0049 33.5C26.101 33.5 33.5 26.0985 33.5 17.0003C33.5 7.90154 26.101 0.500516 17.0049 0.500516H16.9954V0.5H16.9951Z" fill="#67C15E"/>
</svg>
