<svg width="35" height="35" viewBox="0 0 35 35" fill="none" xmlns="http://www.w3.org/2000/svg">
<path fill-rule="evenodd" clip-rule="evenodd" d="M17.0637 8.30176C14.7396 8.30176 12.5108 9.22499 10.8674 10.8684C9.22402 12.5117 8.30078 14.7406 8.30078 17.0647C8.30078 19.3888 9.22402 21.6177 10.8674 23.261C12.5108 24.9044 14.7396 25.8277 17.0637 25.8277C19.3878 25.8277 21.6167 24.9044 23.2601 23.261C24.9034 21.6177 25.8267 19.3888 25.8267 17.0647C25.8267 14.7406 24.9034 12.5117 23.2601 10.8684C21.6167 9.22499 19.3878 8.30176 17.0637 8.30176ZM17.0637 22.7549C16.3166 22.7549 15.5768 22.6078 14.8865 22.3219C14.1963 22.0359 13.5691 21.6169 13.0408 21.0886C12.5125 20.5603 12.0934 19.9331 11.8075 19.2428C11.5216 18.5526 11.3745 17.8128 11.3745 17.0657C11.3745 16.3185 11.5216 15.5787 11.8075 14.8885C12.0934 14.1982 12.5125 13.571 13.0408 13.0427C13.5691 12.5144 14.1963 12.0954 14.8865 11.8094C15.5768 11.5235 16.3166 11.3764 17.0637 11.3764C18.5724 11.3764 20.0192 11.9757 21.086 13.0424C22.1528 14.1092 22.7521 15.5561 22.7521 17.0647C22.7521 18.5733 22.1528 20.0202 21.086 21.087C20.0192 22.1537 18.5724 22.753 17.0637 22.753V22.7549Z" fill="white"/>
<path d="M26.1735 10.0032C26.7168 10.0032 27.2378 9.78739 27.622 9.40323C28.0061 9.01906 28.222 8.49802 28.222 7.95473C28.222 7.41144 28.0061 6.8904 27.622 6.50624C27.2378 6.12207 26.7168 5.90625 26.1735 5.90625C25.6302 5.90625 25.1092 6.12207 24.725 6.50624C24.3408 6.8904 24.125 7.41144 24.125 7.95473C24.125 8.49802 24.3408 9.01906 24.725 9.40323C25.1092 9.78739 25.6302 10.0032 26.1735 10.0032Z" fill="white"/>
<path fill-rule="evenodd" clip-rule="evenodd" d="M17.065 0C12.4312 0 11.8489 0.0189674 10.0281 0.102424C8.21289 0.185881 6.97432 0.474185 5.88938 0.895262C4.74968 1.32354 3.71721 1.99545 2.86408 2.86408C1.99568 3.71666 1.32378 4.74846 0.895262 5.88749C0.474185 6.97242 0.185881 8.21289 0.102424 10.03C0.0189674 11.8508 0 12.4312 0 17.0669C0 21.7006 0.0189674 22.281 0.102424 24.1019C0.185881 25.9171 0.474185 27.1575 0.895262 28.2444C1.32403 29.3827 1.99591 30.4139 2.86408 31.2659C3.81245 32.2143 4.76462 32.7985 5.88749 33.2347C6.97242 33.6558 8.21289 33.946 10.03 34.0275C11.8508 34.111 12.4312 34.13 17.0669 34.13C21.7006 34.13 22.281 34.111 24.1019 34.0275C25.9171 33.9441 27.1575 33.6558 28.2444 33.2347C29.3827 32.8059 30.4139 32.1341 31.2659 31.2659C32.2143 30.3175 32.7985 29.3654 33.2347 28.2444C33.6558 27.1575 33.946 25.9171 34.0275 24.1019C34.111 22.281 34.13 21.7006 34.13 17.065C34.13 12.4312 34.111 11.8489 34.0275 10.0281C33.9441 8.21289 33.6558 6.97242 33.2347 5.88749C32.8062 4.74846 32.1343 3.71666 31.2659 2.86408C30.4139 1.99591 29.3827 1.32403 28.2444 0.895262C27.1575 0.474185 25.9171 0.185881 24.1019 0.102424C22.281 0.0189674 21.6987 0 17.065 0ZM17.065 3.07462C21.621 3.07462 22.1615 3.09359 23.9615 3.17515C25.625 3.25102 26.5278 3.52794 27.1291 3.76314C27.9257 4.0723 28.4948 4.44217 29.0922 5.03775C29.6897 5.63522 30.0596 6.20424 30.3687 7.00087C30.602 7.60214 30.8808 8.50499 30.9567 10.1684C31.0383 11.9703 31.0554 12.509 31.0554 17.065C31.0554 21.621 31.0383 22.1615 30.9567 23.9615C30.8808 25.625 30.602 26.5278 30.3687 27.1291C30.0596 27.9257 29.6897 28.4948 29.0922 29.0922C28.4948 29.6897 27.9257 30.0596 27.1291 30.3687C26.5278 30.602 25.625 30.8808 23.9615 30.9567C22.1615 31.0383 21.6229 31.0554 17.065 31.0554C12.509 31.0554 11.9684 31.0383 10.1703 30.9567C8.50499 30.8808 7.60214 30.602 7.00087 30.3687C6.25933 30.0953 5.58851 29.6591 5.03775 29.0922C4.47084 28.5415 4.03463 27.8707 3.76124 27.1291C3.52794 26.5278 3.24912 25.625 3.17325 23.9615C3.09169 22.1615 3.07462 21.6229 3.07462 17.065C3.07462 12.509 3.09359 11.9684 3.17515 10.1703C3.25102 8.50499 3.52794 7.60214 3.76314 7.00087C4.0723 6.20424 4.44217 5.63522 5.03775 5.03775C5.63522 4.44217 6.20424 4.07041 7.00087 3.76124C7.60214 3.52794 8.50499 3.24912 10.1684 3.17325C11.9703 3.09169 12.509 3.07462 17.065 3.07462Z" fill="white"/>
</svg>
