<svg viewBox="0 0 35 53" fill="none" xmlns="http://www.w3.org/2000/svg">
<path d="M9.34857 50C4.01275 32.4177 15.2872 25.9979 15.2872 25.9979C14.4984 35.38 19.83 42.6893 19.83 42.6893C21.7909 42.0977 25.5337 39.3326 25.5337 39.3326C25.5337 42.6893 23.5588 49.9958 23.5588 49.9958C23.5588 49.9958 30.4723 44.6502 32.6486 35.7716C34.822 26.893 28.5086 17.9795 28.5086 17.9795C28.889 24.2636 26.7631 30.4442 22.5979 35.166C22.8063 34.9254 22.9811 34.6583 23.1154 34.3688C23.8637 32.8722 25.0651 28.9826 24.3616 19.9753C23.3714 7.33162 11.9151 2 11.9151 2C12.9025 9.70372 9.94159 11.4786 3.00573 26.1014C-3.93014 40.7214 9.34857 50 9.34857 50Z" stroke="#232628" stroke-width="2"/>
</svg>