<svg viewBox="0 0 488 90" fill="none" xmlns="http://www.w3.org/2000/svg">
<g opacity="0.16">
<path d="M446.036 56.0753C446.549 48.8949 455.952 44.9628 455.952 44.9628C462.961 42.2274 474.416 43.0822 474.416 43.0822C475.27 41.0307 475.441 39.1501 475.441 39.1501C476.467 35.3889 472.364 34.5341 470.996 34.5341C468.432 34.5341 465.526 36.5856 464.842 39.321H452.532C453.729 32.3116 459.029 28.2085 471.167 28.2085C485.87 28.2085 489.631 34.0212 487.409 43.0822C487.409 43.0822 481.596 66.8459 481.938 65.9911H470.312L471.167 61.7171C467.748 64.1105 461.422 67.1879 456.806 67.1879C448.429 67.3588 445.694 61.3751 446.036 56.0753ZM473.219 48.724C466.722 47.8691 462.619 50.4336 462.619 50.4336C459.029 52.1432 459.371 55.7334 459.371 55.7334C459.884 61.2042 466.38 58.4688 466.38 58.4688C472.535 55.2205 473.219 48.724 473.219 48.724Z" fill="white"/>
<path d="M5.64173 50.0919C8.54809 71.8041 27.012 88.5584 49.579 88.5584C74.0266 88.5584 93.8582 68.7268 93.8582 44.2792C93.8582 19.8316 74.0266 0 49.579 0C29.0636 0 11.7964 14.0189 6.66751 32.9957L6.49654 33.3376H28.2088V66.1623H38.8084V32.9957H64.6237C66.5042 32.9957 68.0429 34.5343 68.0429 36.4149C68.0429 38.2955 66.5042 39.6632 64.6237 39.6632H41.5438V50.2629L58.64 66.3333H72.6589L53.6821 48.8952L64.7946 49.0661C71.8041 49.0661 77.4458 43.4244 77.4458 36.4149C77.4458 29.4055 71.8041 23.7637 64.7946 23.7637L38.9793 23.4218V19.3187H28.3797V23.4218H23.5928L23.9347 22.9089C30.0893 15.5575 39.3213 10.5996 49.75 10.5996C68.2139 10.5996 83.2586 25.6443 83.2586 44.1082C83.2586 62.5721 68.2139 77.6168 49.75 77.6168C33.1667 77.6168 19.4897 65.6495 16.7543 49.9209C16.7543 49.9209 22.396 50.0919 22.396 49.9209C22.396 49.75 11.2835 38.8084 11.2835 38.8084L0 49.9209L5.64173 50.0919Z" fill="white"/>
<path d="M289.783 50.092C285.68 57.6143 290.809 60.5207 294.057 60.5207C299.87 60.6916 301.922 55.9047 303.289 54.1951H315.598C312.179 61.8884 307.563 67.1882 292.861 66.6753C277.645 66.1624 273.713 57.7853 276.961 47.6985C282.261 31.4571 290.809 28.3798 300.725 28.2088C320.385 27.8669 322.095 39.8342 317.308 50.092H289.783ZM305.512 42.9116C308.589 37.6117 305.341 35.3892 302.605 34.7054C296.964 33.3377 292.861 39.6633 292.348 42.9116H305.512Z" fill="white"/>
<path d="M399.71 17.2671H412.361L418.003 27.5248H408.429L404.155 21.7121L397.658 27.5248H389.281L399.71 17.2671Z" fill="white"/>
<path d="M399.542 28.3797C415.783 27.8668 419.374 35.902 417.493 46.6726C415.271 59.3238 404.329 66.6752 393.216 66.6752C382.104 66.6752 372.53 60.0077 376.462 47.3565C381.249 32.9957 387.404 28.7216 399.542 28.3797ZM392.533 40.1761C388.259 49.579 388.429 51.6305 388.429 51.6305C386.891 59.4948 392.362 59.6657 392.362 59.6657C398.516 60.1786 400.226 55.9046 400.226 55.9046C402.448 53.3402 405.184 43.4243 405.184 43.4243C407.406 34.8762 400.739 35.0472 400.739 35.0472C395.268 34.7053 392.533 40.1761 392.533 40.1761Z" fill="white"/>
<path d="M441.598 64.9654C424.844 69.5814 419.202 63.5977 422.45 52.9981L426.725 37.4405H419.031L421.254 30.4311H428.434L431.17 22.5668L443.308 19.4895L440.231 30.4311H448.95L447.069 37.4405H438.35L434.076 52.9981C433.392 57.956 436.127 59.1527 439.547 59.1527L442.966 58.9818L441.598 64.9654Z" fill="white"/>
<path d="M196.779 12.822L181.221 66.1622H168.57L184.128 12.822H196.779Z" fill="white"/>
<path d="M213.872 12.9927L198.143 66.1619H185.492L201.05 12.9927H213.872Z" fill="white"/>
<path d="M239.516 66.1621H228.062L229.258 60.8622C226.181 63.0847 222.078 66.333 214.214 66.504C208.23 66.6749 204.982 61.888 206.349 52.998L212.846 30.26H224.642L218.83 51.4593C218.146 55.7334 219.342 57.1011 222.078 57.1011C225.497 57.1011 230.968 53.5109 231.652 49.7497L237.635 30.26H249.432L239.516 66.1621Z" fill="white"/>
<path d="M254.73 30.0891H267.382L266.014 35.7309H266.185C269.775 31.4568 273.707 29.4053 278.323 29.4053C278.836 29.4053 279.349 29.5762 279.862 29.5762L277.297 39.492C276.443 39.3211 275.246 39.663 274.391 39.663C269.262 39.663 262.595 43.7661 261.398 50.9465L257.124 65.9912H244.473L254.73 30.0891Z" fill="white"/>
<path d="M125.145 64.6234C108.391 69.2394 102.749 63.2557 105.997 52.6561L110.271 37.6114H102.578L104.801 30.0891H111.981L114.716 22.2248L126.855 18.9766L123.777 29.9181H132.497L130.616 37.4405H121.897L117.452 52.4851C116.768 57.443 119.503 58.6398 122.923 58.6398L126.342 58.4688L125.145 64.6234Z" fill="white"/>
<path d="M142.584 50.092C138.481 57.6143 143.61 60.5207 146.858 60.5207C152.671 60.6916 154.722 55.9047 156.09 54.1951H168.399C164.98 61.8884 160.364 67.1882 145.661 66.6753C130.446 66.1624 126.514 57.7853 129.762 47.6985C135.062 31.4571 143.61 28.3798 153.526 28.2088C173.186 27.8669 174.896 39.8342 170.109 50.092H142.584ZM158.313 42.9116C161.39 37.6117 158.142 35.3892 155.406 34.7054C149.764 33.3377 145.661 39.6633 145.148 42.9116H158.313Z" fill="white"/>
<path d="M373.042 66.1622H359.365C359.194 65.1365 359.878 55.2207 359.536 50.9466C359.194 45.8178 358.168 44.4501 350.646 44.4501H346.543L340.217 65.9913H326.711L341.414 12.6511H362.1C375.606 12.1382 382.957 16.2413 381.419 26.67C380.393 33.6794 372.187 38.1245 366.887 39.6631C371.161 41.5437 372.7 42.2276 373.042 50.4337V66.1622ZM348.252 34.7052H353.894C358.339 34.7052 363.639 35.3891 366.374 27.8667C367.742 23.9346 364.665 20.5154 359.023 20.6863H352.184L348.252 34.7052Z" fill="white"/>
<path d="M195.524 76.1097C197.09 76.1097 198.297 76.4603 199.146 77.1615C200.007 77.8507 200.438 78.818 200.438 80.0633C200.438 81.1273 200.186 82.0583 199.684 82.8563C199.194 83.6421 198.489 84.2467 197.568 84.6699C196.659 85.093 195.583 85.3046 194.34 85.3046H191.542L190.861 88.8049H187.938L190.448 76.1097H195.524ZM194.465 82.9107C195.434 82.9107 196.181 82.687 196.707 82.2396C197.233 81.7923 197.496 81.1515 197.496 80.3172C197.496 79.7127 197.293 79.2593 196.887 78.957C196.492 78.6547 195.918 78.5036 195.165 78.5036H192.887L192.009 82.9107H194.465Z" fill="white"/>
<path d="M209.503 86.0845H203.657L202.025 88.8049H198.922L207.046 76.1097H209.916L213 88.8049H210.095L209.503 86.0845ZM209.019 83.8537L207.961 78.957L205.002 83.8537H209.019Z" fill="white"/>
<path d="M217.194 76.1097H227.309L226.824 78.4492H219.579L219.077 81.0608H222.574C223.865 81.0608 224.852 81.351 225.533 81.9313C226.227 82.4996 226.573 83.3278 226.573 84.416C226.573 85.3228 226.334 86.1086 225.856 86.7736C225.378 87.4265 224.69 87.9283 223.794 88.2789C222.909 88.6296 221.851 88.8049 220.619 88.8049H214.683L217.194 76.1097ZM220.888 86.6285C221.725 86.6285 222.383 86.4532 222.861 86.1026C223.339 85.752 223.578 85.2623 223.578 84.6336C223.578 84.15 223.411 83.7933 223.076 83.5636C222.753 83.3338 222.245 83.219 221.552 83.219H218.646L217.983 86.6285H220.888Z" fill="white"/>
<path d="M234.432 89.0225C233.177 89.0225 232.089 88.7928 231.168 88.3333C230.248 87.8739 229.542 87.227 229.052 86.3928C228.562 85.5585 228.317 84.5973 228.317 83.5092C228.317 82.0704 228.64 80.7767 229.285 79.628C229.943 78.4673 230.857 77.5545 232.029 76.8895C233.213 76.2245 234.564 75.892 236.082 75.892C237.338 75.892 238.426 76.1217 239.346 76.5812C240.267 77.0406 240.972 77.6875 241.462 78.5217C241.953 79.356 242.198 80.3172 242.198 81.4054C242.198 82.8442 241.869 84.1439 241.211 85.3046C240.566 86.4532 239.651 87.36 238.467 88.025C237.296 88.69 235.951 89.0225 234.432 89.0225ZM234.683 86.5197C235.604 86.5197 236.411 86.2961 237.104 85.8487C237.798 85.4013 238.33 84.8029 238.701 84.0532C239.071 83.3036 239.256 82.4754 239.256 81.5686C239.256 80.6013 238.958 79.8336 238.36 79.2653C237.762 78.685 236.919 78.3948 235.831 78.3948C234.91 78.3948 234.103 78.6185 233.41 79.0658C232.717 79.5132 232.184 80.1117 231.814 80.8613C231.443 81.6109 231.258 82.4391 231.258 83.3459C231.258 84.3132 231.557 85.087 232.155 85.6673C232.752 86.2356 233.595 86.5197 234.683 86.5197Z" fill="white"/>
<path d="M254.624 78.5036H250.571L248.562 88.8049H245.693L247.701 78.5036H243.738L244.204 76.1097H255.09L254.624 78.5036Z" fill="white"/>
<path d="M262.938 86.0845H257.091L255.459 88.8049H252.356L260.481 76.1097H263.35L266.435 88.8049H263.529L262.938 86.0845ZM262.453 83.8537L261.395 78.957L258.436 83.8537H262.453Z" fill="white"/>
<path d="M273.031 78.4673L272.493 81.224H278.322L277.874 83.5092H272.027L271.453 86.4472H278.304L277.82 88.8049H268.099L270.61 76.1097H280.097L279.613 78.4673H273.031Z" fill="white"/>
<path d="M296.809 76.1097L294.316 88.8049H291.608L293.097 81.2422L288.291 87.4628H286.981L284.399 81.1515L282.892 88.8049H280.184L282.695 76.1097H285.062L288.201 84.017L294.316 76.1097H296.809Z" fill="white"/>
<path d="M316.467 76.1097L313.956 88.8049H311.086L313.077 78.5036H307.41L305.401 88.8049H302.532L305.043 76.1097H316.467Z" fill="white"/>
<path d="M323.542 89.0225C322.287 89.0225 321.199 88.7928 320.278 88.3333C319.357 87.8739 318.652 87.227 318.162 86.3928C317.672 85.5585 317.426 84.5973 317.426 83.5092C317.426 82.0704 317.749 80.7767 318.395 79.628C319.053 78.4673 319.967 77.5545 321.139 76.8895C322.322 76.2245 323.674 75.892 325.192 75.892C326.447 75.892 327.535 76.1217 328.456 76.5812C329.377 77.0406 330.082 77.6875 330.572 78.5217C331.062 79.356 331.307 80.3172 331.307 81.4054C331.307 82.8442 330.979 84.1439 330.321 85.3046C329.675 86.4532 328.761 87.36 327.577 88.025C326.405 88.69 325.06 89.0225 323.542 89.0225ZM323.793 86.5197C324.714 86.5197 325.521 86.2961 326.214 85.8487C326.908 85.4013 327.44 84.8029 327.81 84.0532C328.181 83.3036 328.366 82.4754 328.366 81.5686C328.366 80.6013 328.067 79.8336 327.47 79.2653C326.872 78.685 326.029 78.3948 324.941 78.3948C324.02 78.3948 323.213 78.6185 322.52 79.0658C321.826 79.5132 321.294 80.1117 320.924 80.8613C320.553 81.6109 320.368 82.4391 320.368 83.3459C320.368 84.3132 320.667 85.087 321.264 85.6673C321.862 86.2356 322.705 86.5197 323.793 86.5197Z" fill="white"/>
<path d="M347.822 82.2578C348.36 82.4754 348.773 82.8018 349.06 83.2371C349.359 83.6603 349.508 84.1802 349.508 84.7968C349.508 86.1147 348.994 87.1122 347.966 87.7892C346.937 88.4663 345.568 88.8049 343.859 88.8049H337.277L339.788 76.1097H345.849C347.2 76.1097 348.241 76.3636 348.97 76.8714C349.699 77.3671 350.064 78.0804 350.064 79.0114C350.064 79.7852 349.861 80.4502 349.454 81.0064C349.06 81.5505 348.516 81.9676 347.822 82.2578ZM342.227 78.3223L341.635 81.3147H344.594C345.359 81.3147 345.951 81.1636 346.37 80.8613C346.8 80.5469 347.015 80.0996 347.015 79.5192C347.015 78.7212 346.399 78.3223 345.168 78.3223H342.227ZM344.038 86.5923C344.851 86.5923 345.485 86.4351 345.939 86.1207C346.393 85.8064 346.621 85.353 346.621 84.7605C346.621 83.89 345.993 83.4547 344.738 83.4547H341.222L340.613 86.5923H344.038Z" fill="white"/>
<path d="M357.626 89.0225C356.37 89.0225 355.27 88.7928 354.326 88.3333C353.393 87.8739 352.676 87.227 352.174 86.3928C351.672 85.5585 351.421 84.5973 351.421 83.5092C351.421 82.0704 351.743 80.7767 352.389 79.628C353.047 78.4673 353.967 77.5545 355.151 76.8895C356.335 76.2245 357.692 75.892 359.222 75.892C360.346 75.892 361.338 76.0855 362.199 76.4724C363.06 76.8593 363.711 77.4155 364.154 78.1409L362.056 79.8819C361.386 78.8905 360.376 78.3948 359.025 78.3948C358.104 78.3948 357.291 78.6124 356.586 79.0477C355.88 79.483 355.33 80.0754 354.936 80.825C354.553 81.5746 354.362 82.4089 354.362 83.3278C354.362 84.3071 354.667 85.087 355.276 85.6673C355.898 86.2356 356.765 86.5197 357.877 86.5197C359.204 86.5197 360.316 86.0301 361.213 85.0507L362.934 86.828C361.691 88.291 359.921 89.0225 357.626 89.0225Z" fill="white"/>
<path d="M369.287 78.4673L368.749 81.224H374.577L374.129 83.5092H368.282L367.709 86.4472H374.559L374.075 88.8049H364.355L366.866 76.1097H376.353L375.869 78.4673H369.287Z" fill="white"/>
<path d="M378.951 76.1097H381.82L380.152 84.3797L387.774 76.1097H390.536L388.025 88.8049H385.156L386.841 80.553L379.202 88.8049H376.44L378.951 76.1097ZM384.887 75.3298C383.87 75.3298 383.099 75.1424 382.573 74.7676C382.059 74.3807 381.802 73.8124 381.802 73.0628C381.802 72.8331 381.814 72.6578 381.838 72.5369H383.685C383.673 72.5973 383.667 72.682 383.667 72.7908C383.667 73.1414 383.781 73.4195 384.008 73.625C384.247 73.8185 384.588 73.9152 385.03 73.9152C385.496 73.9152 385.879 73.8003 386.178 73.5706C386.489 73.3288 386.686 72.9842 386.77 72.5369H388.653C388.497 73.4799 388.109 74.1812 387.487 74.6406C386.865 75.1001 385.999 75.3298 384.887 75.3298Z" fill="white"/>
<path d="M403.744 76.1097C405.31 76.1097 406.518 76.4603 407.367 77.1615C408.228 77.8507 408.658 78.818 408.658 80.0633C408.658 81.1273 408.407 82.0583 407.905 82.8563C407.415 83.6421 406.709 84.2467 405.789 84.6699C404.88 85.093 403.804 85.3046 402.561 85.3046H399.763L399.081 88.8049H396.158L398.669 76.1097H403.744ZM402.686 82.9107C403.655 82.9107 404.402 82.687 404.928 82.2396C405.454 81.7923 405.717 81.1515 405.717 80.3172C405.717 79.7127 405.514 79.2593 405.107 78.957C404.713 78.6547 404.139 78.5036 403.385 78.5036H401.108L400.229 82.9107H402.686Z" fill="white"/>
<path d="M415.839 89.0225C414.584 89.0225 413.496 88.7928 412.575 88.3333C411.655 87.8739 410.949 87.227 410.459 86.3928C409.969 85.5585 409.724 84.5973 409.724 83.5092C409.724 82.0704 410.047 80.7767 410.692 79.628C411.35 78.4673 412.264 77.5545 413.436 76.8895C414.62 76.2245 415.971 75.892 417.489 75.892C418.745 75.892 419.833 76.1217 420.753 76.5812C421.674 77.0406 422.379 77.6875 422.869 78.5217C423.36 79.356 423.605 80.3172 423.605 81.4054C423.605 82.8442 423.276 84.1439 422.618 85.3046C421.973 86.4532 421.058 87.36 419.874 88.025C418.703 88.69 417.358 89.0225 415.839 89.0225ZM416.09 86.5197C417.011 86.5197 417.818 86.2961 418.511 85.8487C419.205 85.4013 419.737 84.8029 420.108 84.0532C420.478 83.3036 420.664 82.4754 420.664 81.5686C420.664 80.6013 420.365 79.8336 419.767 79.2653C419.169 78.685 418.326 78.3948 417.238 78.3948C416.318 78.3948 415.51 78.6185 414.817 79.0658C414.124 79.5132 413.592 80.1117 413.221 80.8613C412.85 81.6109 412.665 82.4391 412.665 83.3459C412.665 84.3132 412.964 85.087 413.562 85.6673C414.159 86.2356 415.002 86.5197 416.09 86.5197Z" fill="white"/>
<path d="M431.131 89.0225C429.875 89.0225 428.776 88.7928 427.831 88.3333C426.898 87.8739 426.181 87.227 425.679 86.3928C425.177 85.5585 424.926 84.5973 424.926 83.5092C424.926 82.0704 425.248 80.7767 425.894 79.628C426.552 78.4673 427.472 77.5545 428.656 76.8895C429.84 76.2245 431.197 75.892 432.727 75.892C433.851 75.892 434.843 76.0855 435.704 76.4724C436.565 76.8593 437.216 77.4155 437.659 78.1409L435.561 79.8819C434.891 78.8905 433.881 78.3948 432.53 78.3948C431.609 78.3948 430.796 78.6124 430.091 79.0477C429.385 79.483 428.835 80.0754 428.441 80.825C428.058 81.5746 427.867 82.4089 427.867 83.3278C427.867 84.3071 428.172 85.087 428.782 85.6673C429.403 86.2356 430.27 86.5197 431.382 86.5197C432.709 86.5197 433.821 86.0301 434.718 85.0507L436.439 86.828C435.196 88.291 433.426 89.0225 431.131 89.0225Z" fill="white"/>
<path d="M444.161 89.0225C442.906 89.0225 441.806 88.7928 440.861 88.3333C439.929 87.8739 439.211 87.227 438.709 86.3928C438.207 85.5585 437.956 84.5973 437.956 83.5092C437.956 82.0704 438.279 80.7767 438.924 79.628C439.582 78.4673 440.503 77.5545 441.686 76.8895C442.87 76.2245 444.227 75.892 445.757 75.892C446.881 75.892 447.873 76.0855 448.734 76.4724C449.595 76.8593 450.247 77.4155 450.689 78.1409L448.591 79.8819C447.921 78.8905 446.911 78.3948 445.56 78.3948C444.639 78.3948 443.826 78.6124 443.121 79.0477C442.415 79.483 441.866 80.0754 441.471 80.825C441.088 81.5746 440.897 82.4089 440.897 83.3278C440.897 84.3071 441.202 85.087 441.812 85.6673C442.433 86.2356 443.3 86.5197 444.412 86.5197C445.739 86.5197 446.851 86.0301 447.748 85.0507L449.47 86.828C448.226 88.291 446.457 89.0225 444.161 89.0225Z" fill="white"/>
<path d="M453.419 76.1097H456.288L454.62 84.3797L462.242 76.1097H465.004L462.493 88.8049H459.624L461.31 80.553L453.67 88.8049H450.908L453.419 76.1097Z" fill="white"/>
<path d="M468.148 76.1097H471.017L469.349 84.3797L476.971 76.1097H479.733L477.222 88.8049H474.353L476.039 80.553L468.399 88.8049H465.637L468.148 76.1097Z" fill="white"/>
</g>
</svg>