<svg viewBox="0 0 56 48" fill="none" xmlns="http://www.w3.org/2000/svg">
<rect x="18.5781" y="1" width="16.9296" height="46" rx="4" stroke="#232628" stroke-width="2"/>
<line opacity="0.3" x1="24.3359" y1="5.58453" x2="29.7444" y2="5.58453" stroke="#232628"/>
<line opacity="0.3" x1="24.3359" y1="9.64087" x2="29.7444" y2="9.64087" stroke="#232628"/>
<line opacity="0.3" x1="24.3359" y1="13.6972" x2="29.7444" y2="13.6972" stroke="#232628"/>
<line opacity="0.3" x1="24.3359" y1="17.7535" x2="29.7444" y2="17.7535" stroke="#232628"/>
<line opacity="0.3" x1="24.3359" y1="21.8099" x2="29.7444" y2="21.8099" stroke="#232628"/>
<line opacity="0.3" x1="24.3359" y1="25.8662" x2="29.7444" y2="25.8662" stroke="#232628"/>
<line opacity="0.3" x1="24.3359" y1="29.9225" x2="29.7444" y2="29.9225" stroke="#232628"/>
<line opacity="0.3" x1="24.3359" y1="33.9789" x2="29.7444" y2="33.9789" stroke="#232628"/>
<line opacity="0.3" x1="24.3359" y1="38.0352" x2="29.7444" y2="38.0352" stroke="#232628"/>
<line opacity="0.3" x1="24.3359" y1="42.0916" x2="29.7444" y2="42.0916" stroke="#232628"/>
<rect x="1" y="5.73242" width="10.169" height="41.2676" rx="4" stroke="#232628" stroke-width="2"/>
<line opacity="0.3" x1="3.64844" y1="9.71704" x2="8.52366" y2="9.71704" stroke="#232628"/>
<line opacity="0.3" x1="3.64844" y1="13.3735" x2="8.52366" y2="13.3735" stroke="#232628"/>
<line opacity="0.3" x1="3.64844" y1="17.0299" x2="8.52366" y2="17.0299" stroke="#232628"/>
<line opacity="0.3" x1="3.64844" y1="20.6863" x2="8.52366" y2="20.6863" stroke="#232628"/>
<line opacity="0.3" x1="3.64844" y1="24.3427" x2="8.52366" y2="24.3427" stroke="#232628"/>
<line opacity="0.3" x1="3.64844" y1="27.9991" x2="8.52366" y2="27.9991" stroke="#232628"/>
<line opacity="0.3" x1="3.64844" y1="31.6555" x2="8.52366" y2="31.6555" stroke="#232628"/>
<line opacity="0.3" x1="3.64844" y1="35.312" x2="8.52366" y2="35.312" stroke="#232628"/>
<line opacity="0.3" x1="3.64844" y1="38.9684" x2="8.52366" y2="38.9684" stroke="#232628"/>
<line opacity="0.3" x1="3.64844" y1="42.6248" x2="8.52366" y2="42.6248" stroke="#232628"/>
<rect x="43" y="15" width="11.3307" height="31.8028" rx="4" stroke="#232628" stroke-width="2"/>
<line opacity="0.3" x1="46.6719" y1="17.9821" x2="50.4806" y2="17.9821" stroke="#232628"/>
<line opacity="0.3" x1="46.6719" y1="20.8386" x2="50.4806" y2="20.8386" stroke="#232628"/>
<line opacity="0.3" x1="46.6719" y1="23.6953" x2="50.4806" y2="23.6953" stroke="#232628"/>
<line opacity="0.3" x1="46.6719" y1="26.5518" x2="50.4806" y2="26.5518" stroke="#232628"/>
<line opacity="0.3" x1="46.6719" y1="29.4084" x2="50.4806" y2="29.4084" stroke="#232628"/>
<line opacity="0.3" x1="46.6719" y1="32.265" x2="50.4806" y2="32.265" stroke="#232628"/>
<line opacity="0.3" x1="46.6719" y1="35.1215" x2="50.4806" y2="35.1215" stroke="#232628"/>
<line opacity="0.3" x1="46.6719" y1="37.9781" x2="50.4806" y2="37.9781" stroke="#232628"/>
<line opacity="0.3" x1="46.6719" y1="40.8347" x2="50.4806" y2="40.8347" stroke="#232628"/>
<line opacity="0.3" x1="46.6719" y1="43.6913" x2="50.4806" y2="43.6913" stroke="#232628"/>
</svg>