<svg viewBox="0 0 41 48" fill="none" xmlns="http://www.w3.org/2000/svg">
<path class="not-paint" d="M14.5226 35.9014H15.5226V34.9014V31.7099H16.1602L19.1606 35.5201L19.4609 35.9014H19.9463H21.6039H22.0943H23.0943H23.6448H24.5338H25.5355L25.5338 34.8997L25.521 27.5593H29.7539H30.7417L30.7538 26.5715L30.7683 25.3876L30.7808 24.3753H29.7684H23.4905H23.0943H22.0943H21.4294H19.8736H19.3827L19.0825 24.7636L16.1838 28.5124H15.5226V25.3753V24.3753H14.5226H13.0977H12.0977V25.3753V34.9014V35.9014H13.0977H14.5226ZM22.0943 26.1472V33.902L19.0635 29.9936L22.0943 26.1472Z" fill="#232628" stroke="white" stroke-width="2"/>
<path d="M8.10053 12.4462H32.884C33.8733 12.4462 34.7139 13.1695 34.8616 14.1476L39.4751 44.7014C39.6578 45.9112 38.7211 47 37.4976 47H3.487C2.26348 47 1.32674 45.9112 1.50942 44.7014L6.12295 14.1476C6.27065 13.1695 7.11128 12.4462 8.10053 12.4462Z" stroke="#232628" stroke-width="2"/>
<circle cx="20.4907" cy="6.0923" r="5.0923" stroke="#232628" stroke-width="2"/>
</svg>