<svg viewBox="0 0 208 234" fill="none" xmlns="http://www.w3.org/2000/svg">
<circle cx="103.685" cy="130.315" r="103.185" stroke="black"/>
<circle cx="103.686" cy="130.315" r="90.37" stroke="#999999"/>
<circle cx="103.688" cy="130.315" r="86.875" stroke="#999999"/>
<rect x="79.7188" y="100.525" width="47.93" height="15.31" stroke="black"/>
<circle cx="88.5428" cy="108.18" r="4.16" stroke="black"/>
<circle cx="118.832" cy="108.18" r="4.16" stroke="black"/>
<circle cx="103.684" cy="199.574" r="6.49" transform="rotate(45 103.684 199.574)" stroke="black"/>
<line x1="108.506" y1="194.723" x2="99.4443" y2="203.784" stroke="black"/>
<path d="M36.6967 19.0575V20.2225H30.8717H15.1442H9.31922V19.0575C9.31922 17.1273 7.75446 15.5625 5.82422 15.5625V1H15.1442H30.8717H75.1418H201.544V14.98L199.184 15.3172C198.199 15.458 197.467 16.3018 197.467 17.2971V20.2225H170.672V16.98C170.672 15.8754 169.776 14.98 168.672 14.98H166.594L144.459 137.305H62.9092L46.2787 48.1825L40.1917 15.5625C38.2615 15.5625 36.6967 17.1273 36.6967 19.0575Z" fill="white"/>
<path d="M40.1917 15.5625V15.5625C38.2615 15.5625 36.6967 17.1273 36.6967 19.0575V20.2225H30.8717M40.1917 15.5625L46.2787 48.1825M40.1917 15.5625H68.7343M201.544 14.98V1H75.1418M201.544 14.98L199.184 15.3172C198.199 15.458 197.467 16.3018 197.467 17.2971V20.2225H170.672V16.98C170.672 15.8754 169.776 14.98 168.672 14.98H166.594M201.544 14.98H166.594M166.594 14.98L144.459 137.305H62.9092L46.2787 48.1825M46.2787 48.1825L68.7343 15.5625M68.7343 15.5625V10.32L75.1418 1M75.1418 1H30.8717M15.1442 1H5.82422V15.5625V15.5625C7.75446 15.5625 9.31922 17.1273 9.31922 19.0575V20.2225H15.1442M15.1442 1V20.2225M15.1442 1H30.8717M15.1442 20.2225H30.8717M30.8717 1V20.2225" stroke="black"/>
<circle cx="103.684" cy="130.315" r="53.09" fill="white" stroke="black"/>
<circle cx="103.682" cy="130.315" r="41.44" fill="white" stroke="black"/>
<rect x="82.4102" y="102.074" width="42.5477" height="13.5159" stroke="#999999"/>
<circle cx="90.2021" cy="108.832" r="3.6474" stroke="#999999"/>
<circle cx="117.163" cy="108.832" r="3.6474" stroke="#999999"/>
<circle cx="103.687" cy="130.315" r="18.14" fill="white" stroke="#232628"/>
<circle cx="103.684" cy="130.315" r="14.645" fill="white" stroke="#232628"/>
</svg>