<svg width="16" height="12" fill="none" xmlns="http://www.w3.org/2000/svg"><path fill-rule="evenodd" clip-rule="evenodd" d="M6.348 8.065V3.591l4.323 2.245-4.323 2.23zm9.492-5.249s-.156-1.097-.636-1.58C14.595.6 13.914.598 13.601.56 11.362.4 8.003.4 8.003.4h-.006S4.638.4 2.399.561c-.313.037-.994.04-1.603.675-.48.483-.636 1.58-.636 1.58S0 4.105 0 5.393v1.208C0 7.891.16 9.18.16 9.18s.156 1.097.635 1.58c.61.634 1.409.615 1.765.68C3.84 11.563 8 11.6 8 11.6s3.362-.005 5.601-.166c.313-.037.994-.04 1.603-.675.48-.483.636-1.58.636-1.58S16 7.89 16 6.6V5.393c0-1.288-.16-2.577-.16-2.577z" fill="#232628"/></svg>