<svg width="54" height="65" fill="none" xmlns="http://www.w3.org/2000/svg"><path d="M13.355 7H0" stroke="#F52536" stroke-width="2"/><path d="M16.026 6.678l-6.678 6.678V0l6.678 6.678z" fill="#F52536"/><path d="M39.67 7h13.356" stroke="#F52536" stroke-width="2"/><path d="M37 6.678l6.678 6.678V0L37 6.678z" fill="#F52536"/><path opacity=".3" stroke="#232628" d="M16.5 30V1M36.5 30V4"/><rect x="16.5" y="9.5" width="20" height="55" rx="5.5" stroke="#232628"/><path d="M13.5 29a1.5 1.5 0 011.5-1.5h1.5v20H15a1.5 1.5 0 01-1.5-1.5V29zM39.5 29a1.5 1.5 0 00-1.5-1.5h-1.5v20H38a1.5 1.5 0 001.5-1.5V29z" stroke="#232628"/></svg>