<svg width="76" height="66" fill="none" xmlns="http://www.w3.org/2000/svg"><path opacity=".3" stroke="#232628" d="M0 21.5h74.324M0 48.5h74.324"/><path stroke="#F52536" stroke-width="2" d="M68 18V2"/><path d="M68.38 21.026l-6.678-6.678h13.355l-6.678 6.678z" fill="#F52536"/><path stroke="#F52536" stroke-width="2" d="M8.57 7.015h13.355M46.557 7.015H33.2"/><path d="M5.9 6.678l6.677 6.678V0L5.9 6.678zM49.227 6.678l-6.678 6.678V0l6.678 6.678z" fill="#F52536"/><path stroke="#F52536" stroke-width="2" d="M68.044 51.67v13.356"/><path d="M68.381 49l-6.678 6.678H75.06L68.38 49z" fill="#F52536"/><path fill="#fff" stroke="#232628" d="M.5 14.43h56.496V55.5H.5z"/><rect x="4.914" y="23.948" width="7.219" height="13.383" rx="3.609" transform="rotate(-45 4.914 23.948)" stroke="#232628"/><rect x=".707" width="7.219" height="13.383" rx="3.609" transform="scale(1 -1) rotate(-45 -51.672 -27.646)" stroke="#232628"/><rect x="-.707" width="7.219" height="13.383" rx="3.609" transform="scale(-1 1) rotate(-45 3.388 71.878)" stroke="#232628"/><rect x="50.333" y="45.135" width="7.219" height="13.383" rx="3.609" transform="rotate(135 50.333 45.135)" stroke="#232628"/><path opacity=".3" stroke="#232628" d="M5.411 32.16V0M50.236 32.16V0"/></svg>