<svg width="31" height="18" fill="none" xmlns="http://www.w3.org/2000/svg"><path fill-rule="evenodd" clip-rule="evenodd" d="M29.35 1.242c.222-.7 0-1.21-.986-1.21h-3.282c-.826 0-1.208.447-1.431.923 0 0-1.689 4.081-4.043 6.727-.764.763-1.113 1.02-1.528 1.02-.222 0-.509-.257-.509-.958V1.212c0-.83-.254-1.212-.956-1.212h-5.157c-.508 0-.827.382-.827.765 0 .798 1.178.988 1.305 3.22v4.842c0 1.054-.19 1.244-.605 1.244-1.113 0-3.82-4.112-5.444-8.797C5.571.35 5.252 0 4.423 0h-3.31C.157 0 0 .446 0 .923c0 .862 1.113 5.196 5.188 10.933 2.706 3.92 6.558 6.024 10.028 6.024 2.101 0 2.355-.479 2.355-1.275v-2.964c0-.957.19-1.115.86-1.115.478 0 1.337.255 3.28 2.135 2.228 2.231 2.609 3.25 3.85 3.25h3.28c.955 0 1.4-.478 1.145-1.402-.285-.924-1.368-2.262-2.77-3.856-.764-.892-1.91-1.88-2.259-2.358-.478-.638-.35-.893 0-1.466-.032 0 3.98-5.675 4.393-7.587z" fill="#fff"/></svg>