<svg width="35" height="41" fill="none" xmlns="http://www.w3.org/2000/svg"><path d="M13.98 25.506h-1.783v3.523H11v-8.008h1.197V24.5h1.807l2.686-3.478h1.307L14.944 24.9l3.2 4.13H16.75l-2.772-3.523zM24.988 22.017h-4.396l.012 7.012h-1.209v-8.008H25l-.012.996z" fill="#232628"/><path d="M4.745 11.939a2.5 2.5 0 012.472-2.127h19.985a2.5 2.5 0 012.472 2.127l3.73 24.729a2.5 2.5 0 01-2.472 2.873H3.486a2.5 2.5 0 01-2.472-2.873l3.73-24.73zM21.826 5.121a4.619 4.619 0 01-4.616 4.622 4.619 4.619 0 01-4.616-4.622A4.619 4.619 0 0117.21.5a4.619 4.619 0 014.616 4.621z" stroke="#232628"/></svg>