<svg width="79" height="27" fill="none" xmlns="http://www.w3.org/2000/svg"><path d="M70.706 17.168c-.678-3.056-1.272-6.112-1.95-9.167 0-.043-.085-.043-.085-.043a1099.838 1099.838 0 00-3.306 9.167h5.34v.043zM55.7 25.74c.5-1.188.975-2.292 1.458-3.48 2.67-6.366 5.332-12.816 8.053-19.182.424-1.12 1.357-1.74 2.544-1.757 1.695-.033 3.39-.002 5.086-.016.254-.003.34.102.424.36.932 4.44 1.865 8.913 2.797 13.326.678 3.48 1.357 6.96 2.12 10.44.084.255 0 .424-.34.424h-5.001c-.254 0-.34-.085-.424-.424-.17-.934-.424-1.952-.593-2.886-.085-.254-.17-.424-.424-.424-2.459.085-5.002.085-7.477 0-.271 0-.39.17-.483.34-.348 1.018-.73 2.036-1.085 3.055-.068.255-.162.34-.39.34h-6.01c-.066 0-.13 0-.257-.086l.002-.03zM.006 1.957l.142-.66c.13-.007.245-.018.36-.018 3.425 0 6.842-.002 10.258.003 1.61.003 2.713.96 3.052 2.598.848 4.591 1.695 9.251 2.628 13.835 0 0 0 .084.085.17.085-.17.17-.255.17-.425 2.119-5.263 4.153-10.525 6.273-15.787.084-.251.169-.36.508-.357 2.035.014 4.07.007 6.189.007-.085.154-.085.27-.17.383-3.306 7.936-6.612 15.872-9.918 23.85-.085.255-.17.34-.51.34H13.14c-.255 0-.424-.085-.424-.34-1.695-6.45-3.391-12.901-5.002-19.352-.246-1.01-.729-1.723-1.636-2.181-1.695-.84-3.492-1.333-5.307-1.8C.531 2.157.29 2.102 0 2.029M37.887 24.925c.384-1.782.754-3.564 1.136-5.347.593.255 1.144.51 1.704.764 1.958.68 3.976 1.019 6.078.594a3.41 3.41 0 001.695-.764c1.018-.594 1.102-1.867.34-2.716-.51-.509-1.018-.848-1.611-1.188-.848-.51-1.738-.934-2.569-1.443-.619-.34-1.23-.764-1.78-1.188-2.416-2.037-3.044-4.762-1.738-7.63.992-2.182 2.78-3.48 4.942-4.304 1.823-.693 3.773-.9 5.722-.829 1.611.057 3.222.387 4.833.9.084.034.17.068.254.11.085.017.085.051.17.094-.425 1.663-.764 3.344-1.103 5.058-.424-.153-.763-.305-1.187-.433-1.78-.62-3.73-.89-5.595-.509-.678.144-1.356.441-1.78 1.019-.508.645-.508 1.383 0 1.977.34.39.763.73 1.272.985.848.509 1.695.933 2.543 1.443.678.424 1.356.763 1.95 1.273 2.628 1.867 3.306 4.498 2.373 7.469-.847 2.461-2.628 3.99-5.001 4.923-1.696.764-3.476 1.018-5.358 1.018-2.22 0-4.383-.254-6.493-.933-.262-.085-.513-.255-.797-.34M38.744 1.291c-.34 1.68-.678 3.302-1.017 4.914-1.357 6.213-2.713 12.477-3.985 18.673-.254.934-.254.934-1.186.934h-5.342c.17-.51.255-1.019.34-1.528 1.526-7.3 3.137-14.683 4.662-21.983.255-1.027.255-1.027 1.272-1.027l4.747.002h.509v.015z" fill="#fff"/></svg>