<svg width="41" height="41" fill="none" xmlns="http://www.w3.org/2000/svg"><path d="M29.657 26.733h.001c.567-.564 1.135-.78 1.635-.78s1.07.216 1.643.78c1.758 1.75 3.515 3.496 5.261 5.252.586.59.804 1.166.802 1.67-.002.504-.227 1.089-.821 1.691-.313.316-.646.64-.988.972-.684.666-1.4 1.362-2.04 2.076v.001c-1.123 1.259-2.51 1.69-4.253 1.592h-.002c-2.676-.147-5.172-1.034-7.655-2.24-5.515-2.68-10.229-6.395-14.183-11.097h0c-2.937-3.488-5.337-7.266-6.909-11.5l-.001-.003c-.77-2.051-1.276-4.055-1.118-6.136.093-1.185.522-2.152 1.366-2.951l.002-.002A95.156 95.156 0 004.416 4.06c.432-.437.86-.87 1.28-1.282l.002-.002c.566-.56 1.135-.775 1.638-.776.504 0 1.075.214 1.647.77.59.579 1.168 1.161 1.752 1.75.295.295.59.593.89.892.429.434.858.864 1.285 1.29v.001c.43.429.855.855 1.281 1.286l.002.001c.62.623.842 1.205.843 1.699 0 .493-.22 1.072-.834 1.689h0l-.465.47c-.922.93-1.832 1.849-2.761 2.747l-.007.006-.006.006c-.22.221-.45.527-.522.942-.073.408.034.763.142 1.018.777 1.85 1.879 3.47 3.083 4.95h0c2.407 2.951 5.147 5.602 8.438 7.673l.005.002c.384.24.78.441 1.146.623.082.04.161.08.239.117.283.14.545.269.804.41.302.168.7.303 1.156.212.433-.086.742-.344.947-.556 1.07-1.097 2.16-2.178 3.256-3.265zM34 17c0-5.523-4.477-10-10-10M40 17c0-8.836-7.163-16-16-16" stroke="#232628" stroke-width="2"/></svg>