<svg width="36" height="36" fill="none" xmlns="http://www.w3.org/2000/svg"><path d="M31.08 3.33l-1.194 1.194A17.79 17.79 0 0018 0C8.075 0 0 8.075 0 18c0 1.76.26 3.509.77 5.199a1.125 1.125 0 102.154-.65A15.726 15.726 0 012.25 18C2.25 9.315 9.315 2.25 18 2.25c3.857 0 7.473 1.395 10.294 3.864l-.964.966c-.708.705-.208 1.92.795 1.92h3.75C32.496 9 33 8.496 33 7.875v-3.75c0-.994-1.207-1.506-1.92-.795zM35.23 12.801a1.125 1.125 0 10-2.154.65c.447 1.48.673 3.01.673 4.549 0 8.685-7.065 15.75-15.75 15.75a15.566 15.566 0 01-10.294-3.864l.965-.966c.708-.705.208-1.92-.795-1.92h-3.75C3.504 27 3 27.504 3 28.125v3.75c0 1.004 1.216 1.498 1.92.795l1.194-1.194A17.79 17.79 0 0018 36c9.925 0 18-8.075 18-18 0-1.76-.26-3.508-.77-5.199z" fill="#232628"/><path d="M18 7.5L28.5 12 18 16.5 7.5 12 18 7.5zM16.5 19.12l-9-3.856V24c0 .31.19.59.48.7l8.52 3.277V19.12zM19.5 19.12v8.857l8.52-3.278c.29-.11.48-.389.48-.699v-8.736l-9 3.857z" fill="#232628"/></svg>