<svg width="38" height="33" fill="none" xmlns="http://www.w3.org/2000/svg"><path d="M17.813 6.28l.877 1.603.877-1.603c.579-1.057 1.545-2.477 2.969-3.578C24.004 1.566 25.649 1 27.45 1c5.034 0 8.93 4.104 8.93 9.77 0 3.009-1.195 5.583-3.44 8.294-2.272 2.74-5.542 5.531-9.596 8.986h0A461.758 461.758 0 0018.8 31.96h0a.166.166 0 01-.11.041.167.167 0 01-.11-.041h-.001a463.238 463.238 0 00-4.541-3.906l-.003-.003h0c-4.054-3.454-7.324-6.245-9.596-8.986C2.194 16.354 1 13.779 1 10.77 1 5.104 4.896 1 9.93 1c1.801 0 3.447.566 4.915 1.702l.611-.791-.611.79c1.424 1.102 2.39 2.522 2.968 3.579z" stroke="#232628" stroke-width="2"/></svg>