<svg width="16" height="16" fill="none" xmlns="http://www.w3.org/2000/svg"><path fill-rule="evenodd" clip-rule="evenodd" d="M11.15 3.906a.915.915 0 101.831-.002.915.915 0 00-1.83.002zM5.444 7.974c0-1.403 1.14-2.54 2.546-2.54a2.543 2.543 0 012.546 2.54c0 1.403-1.14 2.54-2.546 2.54a2.543 2.543 0 01-2.546-2.54zm2.546 3.913A3.917 3.917 0 014.07 7.974 3.917 3.917 0 017.99 4.06a3.917 3.917 0 013.922 3.913 3.917 3.917 0 01-3.922 3.913zm6.2-10.076a2.72 2.72 0 00-1.01-.657c-.31-.12-.774-.264-1.63-.303C10.623.81 10.346.8 8 .8 5.657.8 5.379.809 4.453.851c-.856.04-1.321.182-1.63.303-.41.159-.703.35-1.01.657-.308.307-.498.6-.658 1.01-.12.309-.263.774-.302 1.63C.81 5.377.801 5.655.801 8c0 2.345.009 2.623.051 3.549.039.856.182 1.321.302 1.63.16.41.35.703.657 1.01.308.308.6.498 1.01.657.31.12.775.264 1.63.303.927.042 1.205.051 3.55.051 2.345 0 2.623-.009 3.549-.051.856-.04 1.32-.182 1.63-.303.41-.159.703-.35 1.01-.657.308-.307.498-.6.657-1.01.12-.309.264-.774.303-1.63.042-.926.05-1.204.05-3.549 0-2.345-.008-2.623-.05-3.549-.04-.856-.183-1.321-.303-1.63-.16-.41-.35-.703-.657-1.01z" fill="#232628"/></svg>