<svg width="24" height="24" fill="none" xmlns="http://www.w3.org/2000/svg"><circle cx="12" cy="12" r="12" fill="#232628"/><path d="M11.6 14.328c-.396-.432-.595-.96-.595-1.584 0-.48.138-.912.414-1.296.276-.384.576-.672.9-.864.324-.192.624-.42.9-.684.277-.264.415-.528.415-.792 0-.3-.12-.546-.36-.738-.228-.192-.576-.288-1.044-.288-.853 0-1.59.372-2.215 1.116L8.558 7.56c.996-1.164 2.31-1.746 3.941-1.746 1.152 0 2.064.264 2.736.792.673.516 1.009 1.2 1.009 2.052 0 .48-.102.912-.306 1.296a2.95 2.95 0 01-.757.936c-.287.24-.581.462-.881.666-.3.204-.553.426-.757.666-.204.24-.305.498-.305.774 0 .312.107.564.324.756l-1.962.576zm1.89 3.438c-.289.288-.63.432-1.027.432-.395 0-.737-.144-1.025-.432a1.402 1.402 0 01-.433-1.026c0-.396.144-.738.432-1.026.289-.288.63-.432 1.027-.432.396 0 .737.144 1.025.432.288.288.432.63.432 1.026s-.143.738-.431 1.026z" fill="#fff"/></svg>