<svg width="54" height="69" fill="none" xmlns="http://www.w3.org/2000/svg"><circle cx="21.717" cy="47.282" r="21.217" stroke="#232628"/><path d="M16.288 19.98H7.756V13h44.21v6.98h-7.755v4.81L27.147 47.437H16.288V19.98z" fill="#fff"/><path d="M16.288 19.98H7.756V13h44.21v6.98h-7.755m-27.923 0v27.457h10.859L44.21 24.79V19.98m-27.923 0h27.923" stroke="#232628"/><circle cx="21.716" cy="46.817" r="3.102" fill="#fff" stroke="#232628"/><path stroke="#F52536" stroke-width="2" d="M40.174 6.002h13.297"/><path d="M38 6l6 6V0l-6 6z" fill="#F52536"/><path stroke="#F52536" stroke-width="2" d="M15.296 6.002H2"/><path d="M17.47 6l-6 6V0l6 6z" fill="#F52536"/><path opacity=".3" stroke="#232628" d="M37.5 35V0M18.5 47V0"/></svg>