<svg width="76" height="61" fill="none" xmlns="http://www.w3.org/2000/svg"><path stroke="#F52536" stroke-width="2" d="M10.737 39.221l-9.444-9.444"/><path d="M12.387 41.348v-9.444l-9.444 9.444h9.444z" fill="#F52536"/><path stroke="#F52536" stroke-width="2" d="M18.372 49.919l9.444 9.444"/><path d="M16.722 47.792v9.444l9.444-9.444h-9.444z" fill="#F52536"/><path fill="#fff" stroke="#232628" d="M18.5.5h56.496v41.07H18.5z"/><rect x="22.914" y="10.018" width="7.219" height="13.383" rx="3.609" transform="rotate(-45 22.914 10.018)" stroke="#232628"/><rect x=".707" width="7.219" height="13.383" rx="3.609" transform="scale(1 -1) rotate(-45 -25.858 -42.409)" stroke="#232628"/><rect x="-.707" width="7.219" height="13.383" rx="3.609" transform="scale(-1 1) rotate(-45 -22.427 86.641)" stroke="#232628"/><rect x="68.333" y="31.206" width="7.219" height="13.383" rx="3.609" transform="rotate(135 68.333 31.206)" stroke="#232628"/><path opacity=".3" stroke="#232628" d="M7.646 46.457l22.741-22.74M12.646 51.457l22.741-22.74"/></svg>