<svg width="442" height="497" fill="none" xmlns="http://www.w3.org/2000/svg"><circle cx="221.349" cy="276.08" r="220.06" stroke="#000"/><circle cx="221.351" cy="276.08" r="192.8" stroke="#999"/><circle cx="221.35" cy="276.08" r="185.365" stroke="#999"/><path stroke="#000" d="M169.809 212.147h103.085v33.695H169.809z"/><circle cx="189.135" cy="228.994" r="9.413" stroke="#000"/><circle cx="253.569" cy="228.994" r="9.413" stroke="#000"/><circle cx="221.352" cy="423.41" r="14.369" transform="rotate(45 221.352 423.41)" stroke="#000"/><path stroke="#000" d="M231.209 412.691l-19.276 19.276"/><path d="M78.852 39.412v2.478H20.615v-2.478a7.435 7.435 0 00-7.435-7.434V1H429.518v29.738l-6.957.994a2 2 0 00-1.717 1.98v8.178h-56.999v-9.152a2 2 0 00-2-2h-6.673L308.086 290.95H134.612L99.235 101.367l-12.948-69.39a7.435 7.435 0 00-7.435 7.435z" fill="#F7F9FA"/><path d="M86.287 31.977v0a7.435 7.435 0 00-7.435 7.435v2.478h-12.39m19.825-9.913l12.948 69.39m-12.948-69.39h60.716m282.515-1.239V1H160.633m268.885 29.738l-6.957.994a2 2 0 00-1.717 1.98v8.178h-56.999v-9.152a2 2 0 00-2-2h-6.673m74.346 0h-74.346m0 0L308.086 290.95H134.612L99.235 101.367m0 0l47.768-69.39m0 0V20.826L160.633 1m0 0H66.461M33.005 1H13.18v30.977a7.435 7.435 0 017.434 7.435v2.478h12.391m0-40.89v40.89m0-40.89h33.456M33.005 41.89h33.456m0-40.89v40.89" stroke="#000"/><circle cx="221.353" cy="276.08" r="113.497" fill="#F7F9FA" stroke="#000"/><circle cx="221.348" cy="276.08" r="88.715" fill="#F7F9FA" stroke="#000"/><path stroke="#999" d="M175.531 215.443h91.635v29.878h-91.635z"/><circle cx="192.674" cy="230.383" r="8.322" stroke="#999"/><circle cx="250.026" cy="230.383" r="8.322" stroke="#999"/><circle cx="221.354" cy="276.08" r="39.151" fill="#F7F9FA" stroke="#232628"/><circle cx="221.346" cy="276.08" r="31.717" fill="#F7F9FA" stroke="#232628"/></svg>