<svg width="40" height="40" fill="none" xmlns="http://www.w3.org/2000/svg"><path opacity=".3" d="M34.738 20c0 8.14-6.599 14.738-14.738 14.738-8.14 0-14.738-6.598-14.738-14.738S11.86 5.262 20 5.262 34.738 11.86 34.738 20z" stroke="#232628"/><path opacity=".3" d="M26.17 20a6.167 6.167 0 11-12.334 0 6.167 6.167 0 0112.333 0z" stroke="#232628"/><path opacity=".3" d="M23.31 20a3.31 3.31 0 11-6.619 0 3.31 3.31 0 016.62 0z" stroke="#232628"/><path d="M39.5 20c0 10.77-8.73 19.5-19.5 19.5S.5 30.77.5 20 9.23.5 20 .5 39.5 9.23 39.5 20z" stroke="#232628"/><path transform="rotate(135 14.708 9.918)" stroke="#F52536" stroke-width="2" d="M0-1h9.524"/><path transform="scale(1 -1) rotate(45 42.04 -8.177)" stroke="#F52536" stroke-width="2" d="M0-1h9.524"/><path d="M34.14 5.858h-6.734l6.735 6.734V5.858zM5.855 34.142v-6.734l6.735 6.734H5.855z" fill="#F52536"/></svg>