<svg width="142" height="27" fill="none" xmlns="http://www.w3.org/2000/svg"><path d="M134.602 13.53c.025.203.042.416.076.62.398 2.036 2.568 2.46 3.84 1.612.975-.594 1.255-1.613 1.094-2.733-.229-1.596-1.662-2.487-3.222-2.063-1.093.289-1.771 1.29-1.788 2.564zm4.959-3.26V5.984l1.848-.002v11.713h-1.857v-.849c-.381.255-.729.594-1.144.764-1.916.849-4.527 0-5.383-2.377-.661-1.841-.4-3.581 1.026-5.016.661-.67 1.5-1.01 2.449-1.095.924-.093 1.781.077 2.527.645.178.136.322.298.534.484M13.655.862c.424.053.847.113 1.271.159 1.526.154 3.984 1.112 5.087 1.969-3.222 2.75-5.002 6.238-5.002 10.525 0 4.159 1.695 7.723 5.002 10.524-.51.255-.933.51-1.442.764a12.107 12.107 0 01-3.984 1.188c-3.56.425-6.833-.509-9.664-2.8-2.365-1.953-3.849-4.499-4.374-7.47-.624-3.65.173-6.985 2.441-9.93 1.874-2.436 4.34-3.964 7.358-4.626.51-.124 1.102-.159 1.696-.236.085-.013.17-.035.254-.052h1.357V.862zM29.253.861c.424.053.763.1 1.187.158 1.865.259 3.646.925 5.171 1.986 2.883 1.97 4.748 4.668 5.426 8.106.678 3.904-.255 7.469-2.882 10.524-1.865 2.292-4.324 3.65-7.206 4.244-3.306.594-6.443 0-9.24-1.867 0 0-.085 0-.085-.085 3.221-2.716 4.917-6.196 4.917-10.44 0-4.26-1.696-7.732-5.002-10.524a28.84 28.84 0 012.035-1.044c1.271-.595 2.712-.934 4.153-1.01.085-.005.17-.032.255-.048h1.271z" fill="#fff"/><path d="M20.773 3.574c6.612 5.075 6.358 15.023 0 19.776-6.104-4.668-6.782-14.344 0-19.776M51.463 9.328v1.019c.678-.934 1.61-1.29 2.628-1.222 1.102.06 1.95.543 2.543 1.477.085-.17.17-.255.254-.34.594-.679 1.357-1.044 2.29-1.129.677-.06 1.44.026 2.118.365.933.425 1.442 1.188 1.611 2.207v6.027h-1.865v-4.754c0-.34 0-.679-.085-.934-.339-1.018-1.017-1.188-1.78-1.188-.593 0-1.187.255-1.61.764-.17.34-.34.764-.34 1.188V17.732h-1.865v-.34c0-1.528 0-3.056-.084-4.584 0-.34-.085-.764-.17-1.018-.34-.68-.848-.849-1.441-.934-.848 0-1.696.255-2.035 1.188-.085.34-.17.764-.17 1.189v4.499h-1.864V9.327h1.865zM118.174 13.572v.68c0 2.036 2.543 2.376 3.391 1.442 1.696-.679 1.696-1.527 1.696-2.63-.848-1.614-1.696-2.547-3.391-2.038a2.768 2.768 0 00-1.696 2.546zm5.087 3.226c-.848.594-1.696 1.018-2.544 1.103-1.695.255-3.391-.849-4.238-2.8-.848-1.613-.848-3.141.847-4.5.848-.848 1.696-1.357 2.544-1.46a4.592 4.592 0 012.543.442c0 .17 0 .425.848.68v-.934h1.695v8.402h-1.695v-.933zM71.472 13.487c.085-1.358-.932-2.546-2.288-2.631-.933 0-1.696.255-2.205 1.018-.508.68-.593 1.358-.508 2.122.254 1.528 1.44 2.377 3.052 2.122 1.356-.254 2.034-1.443 1.95-2.63zm-.084-3.225v-.764c0-.085.084-.17.17-.17h1.61v8.403h-1.78v-.934l-.085.085c-.763.849-1.78 1.104-2.882 1.019-1.865-.085-3.391-1.443-3.815-3.31-.254-1.358 0-2.716.848-3.82.678-1.018 1.695-1.528 2.882-1.63 1.017-.101 1.95.102 2.713.781.084.085.17.255.339.34M97.832 12.808c0-1.442-.847-2.206-2.543-2.037-.847.17-1.695 1.104-1.695 2.037h4.239zm.848 2.547c0 .424.848.848.848 1.188v.34c-1.696.848-2.543 1.103-4.239 1.018-1.695-.085-3.39-1.273-3.39-3.31 0-1.443 0-2.801.847-3.904.848-.934 1.696-1.443 2.543-1.545.848-.102 1.696.085 2.543.696 1.696.679 1.696 1.612 1.696 2.716v1.697h-5.934c0 1.104.848 1.868 1.695 1.952 1.696.17 2.543-.17 3.391-.678v-.17zM74.945 16.798c.34-.425.594-.934.933-1.358 0 0 .085.085.17.085 1.101.763 2.288.933 3.56.594.254 0 .508-.17.763-.34.339-.34.254-.849-.17-1.018-.508-.17-.932-.34-1.44-.34-.68-.17-1.442-.255-2.12-.594-.763-.34-1.272-.934-1.272-1.783-.17-1.018.255-1.782 1.102-2.376.594-.34 1.272-.5 1.95-.535 1.272-.06 2.374.102 3.476.62.084.085.254.17.339.255-.255.509-.509 1.018-.763 1.442-.509-.17-1.017-.424-1.441-.509-.678-.17-1.357-.255-2.035-.085-.339.17-.678.34-.763.764 0 .34.085.51.34.68.423.084.847.169 1.356.254.678.17 1.356.17 2.034.51.848.339 1.441.933 1.526 1.866.085 1.019-.339 1.783-1.187 2.377-.678.424-1.44.594-2.289.594-1.271.085-2.543-.085-3.645-.764-.085-.085-.254-.17-.339-.255l-.085-.084M85.113 11.026h-1.441V9.33h1.441v-2.53h1.695v2.53H90.2v1.697h-3.39v.255c0 1.103 0 2.292.847 3.395v.68c0 .593 0 .933.848.763.848-.085.848-.255 1.695-.34v1.613c-.847.425-1.695.594-2.543.51 0 0-.848-.17-1.695-.595 0-.424-.848-1.018-.848-1.612V11.026M113.936 15.44c.848.509.848.933.848 1.442 0 .34 0 .594-.848.764-1.696.51-3.391.424-5.087-.679-.847-.594-.847-1.358-.847-2.291-.848-1.359 0-2.547 0-3.735.847-1.019 1.695-1.528 3.391-1.74.847-.17 1.695-.127 2.543.297.848.17.848.34.848.594 0 .51 0 1.019-.848 1.528 0-.17 0-.425-.848-.51-.848-.339-1.695-.339-2.543.255-.848.425-.848 1.019-.848 1.698 0 .764 0 1.612.848 2.291 0 .51.848.764.848.85.847 0 1.695-.17 2.543-.68v-.085M102.07 17.731V9.328h1.696v.85c0-.425.848-.85 1.695-1.002 0-.128.848-.034 1.696.152 0 .594 0 1.189-.848 1.698 0-.085-.848-.085-.848-.17-.847 0-1.695.51-1.695 1.358v5.517h-1.696zM127.504 9.329h1.695v.934c.848-1.265 1.696-1.324 3.391-.934 0 .594-.847 1.188-.847 1.782 0-.254-.848-.254-1.696-.17 0 .085-.848.595-.848 1.359v5.432h-1.695V9.329z" fill="#fff"/></svg>