<svg width="87" height="25" fill="none" xmlns="http://www.w3.org/2000/svg"><path d="M8.644.23h.17c2.144.25 3.331 1.51 3.925 3.488.932 3.42 1.95 6.832 2.967 10.185 0 .085 0 .255.084.34 0 .084.085.17.255.17.17 0 .17-.086.254-.17.17-.51.254-1.02.424-1.528.848-3.14 1.78-6.18 2.628-9.252.424-1.46 1.356-2.478 2.797-3.072.34-.141.763-.1 1.102-.2h.085c.085.083.255.042.424.042 2.374.003 4.663.002 7.036.002.763 0 .763 0 .763.8V23.8c0 .255.085.51-.085.68-.084.084-.254.084-.424.084h-7.205c-.255-.085-.255-.34-.255-.51V10.899c0-.17.17-.51-.17-.594-.169 0-.253.34-.253.51-.848 2.8-1.696 5.516-2.544 8.317l-1.526 4.838c-.084.255-.084.51-.423.594h-5.341c-.254 0-.254-.255-.34-.424l-2.034-6.62c-.678-2.292-1.44-4.584-2.119-6.876-.017-.084-.034-.084-.068-.17-.05-.084-.102-.17-.22-.17-.102 0-.11.17-.119.256-.017.084-.008.254-.008.424v12.731c0 .17.008.34-.017.51-.017.17-.034.34-.255.34h-7.12c-.152 0-.312 0-.463-.086-.057-.085-.032-.254-.032-.34V.629C.536.474.521.36.556.247.704.16.865.203 1.02.203 3.409.2 5.799.202 8.173.2c.153 0 .314.041.467-.042M52.071.229h.17c.084.083.254.042.423.042 2.035.003 4.07.01 6.104-.005.424-.003.509.12.509.463v23.808c-.085.085-.085.085-.17.085-2.543.084-5.086 0-7.545 0-.254 0-.254-.255-.254-.425V10.956c0-.17.085-.509-.17-.509-.254-.085-.254.17-.339.34-1.271 2.8-2.543 5.517-3.814 8.318-.509 1.018-.933 2.037-1.441 3.055-.848 1.613-2.12 2.546-4.07 2.462h-6.527c-.085 0-.085 0-.085-.085-.085-.17-.085-.34-.085-.594V.785c0-.44.085-.477.509-.477 2.289-.002 4.493 0 6.782 0 .509 0 .593.031.593.564V13.841c0 .17-.084.425 0 .595.255.254.424 0 .509-.17.339-.51.508-1.104.763-1.613 1.187-2.546 2.373-5.118 3.56-7.673.34-.747.678-1.502 1.018-2.249.593-1.12 1.44-1.876 2.627-2.308.255-.112.594-.064.933-.16M87.001 9.14v.68c0 .339 0 .424-.848.424-2.628-.085-5.425 0-8.223-.085-1.695 0-3.475.085-5.17 0-5.342-.255-10.004-4.04-11.276-9.506v-.24c0-.09 0-.13.085-.136.17-.007.255-.004.424-.004h17.463c1.61-.035 3.052.673 4.324 1.647C85.305 3.066 86.153 4.61 87 6.435V9.143 9.14zM70.214 24.588H62.5V11.77c0-.339.085-.509.424-.509 7.714.085 15.344.085 23.228 0v.51c-1.357 3.14-3.9 4.922-7.46 5.092-2.628.085-5.341 0-7.969 0-.34 0-.424 0-.424.424v6.875c0 .17 0 .255-.085.425" fill="#fff"/></svg>