<svg width="70" height="57" fill="none" xmlns="http://www.w3.org/2000/svg"><path opacity=".3" stroke="#232628" d="M52.632 1.193h16.509M21.716 56.345H69.14"/><circle cx="21.717" cy="35.283" r="21.217" stroke="#232628"/><path d="M16.288 7.98H7.756V1h44.21v6.98h-7.755v4.81L27.147 35.438H16.288V7.98z" fill="#fff"/><path d="M16.288 7.98H7.756V1h44.21v6.98h-7.755m-27.923 0v27.458h10.859L44.21 12.789V7.982m-27.923 0h27.923" stroke="#232628"/><circle cx="21.716" cy="34.817" r="3.102" fill="#fff" stroke="#232628"/><path stroke="#F52536" stroke-width="2" d="M62.162 4.352v13.296"/><path d="M62.493 1.693l-6.648 6.648H69.14l-6.648-6.648z" fill="#F52536"/><path stroke="#F52536" stroke-width="2" d="M62.161 52.817V39.521"/><path d="M62.492 55.476l-6.648-6.649h13.297l-6.649 6.649z" fill="#F52536"/></svg>