<svg width="29" height="46" viewBox="0 0 29 46" fill="none" xmlns="http://www.w3.org/2000/svg">
<path d="M8.3206 42.6454C3.95917 27.9067 13.1748 22.5253 13.1748 22.5253C12.53 30.3899 16.888 36.5171 16.888 36.5171C18.4908 36.0211 21.5501 33.7032 21.5501 33.7032C21.5501 36.5171 19.9358 42.6419 19.9358 42.6419C19.9358 42.6419 25.5868 38.1608 27.3657 30.7182C29.1423 23.2756 23.9817 15.8037 23.9817 15.8037C24.2927 21.0715 22.555 26.2524 19.1504 30.2106C19.3208 30.0089 19.4637 29.785 19.5734 29.5423C20.1851 28.2878 21.1671 25.0272 20.5921 17.4768C19.7826 6.878 10.4184 2.40869 10.4184 2.40869C11.2256 8.86644 8.80533 10.3543 3.13604 22.612C-2.53325 34.8675 8.3206 42.6454 8.3206 42.6454Z" stroke="#232628" stroke-width="2"/>
</svg>
