<svg viewBox="0 0 35 53" fill="none" xmlns="http://www.w3.org/2000/svg"><path d="M9.349 50c-5.336-17.582 5.938-24.002 5.938-24.002-.789 9.382 4.543 16.691 4.543 16.691 1.96-.591 5.704-3.356 5.704-3.356 0 3.356-1.975 10.663-1.975 10.663s6.913-5.346 9.09-14.224c2.173-8.879-4.14-17.792-4.14-17.792a23.808 23.808 0 01-5.911 17.186c.208-.24.383-.508.517-.797.749-1.497 1.95-5.386 1.247-14.394C23.372 7.332 11.915 2 11.915 2c.988 7.704-1.973 9.479-8.91 24.101C-3.93 40.721 9.35 50 9.35 50z" stroke="#232628" stroke-width="2"/></svg>