<svg viewBox="0 0 488 90" fill="none" xmlns="http://www.w3.org/2000/svg"><g opacity=".16" fill="#fff"><path d="M446.036 56.075c.513-7.18 9.916-11.112 9.916-11.112 7.009-2.736 18.464-1.88 18.464-1.88.854-2.052 1.025-3.933 1.025-3.933 1.026-3.761-3.077-4.616-4.445-4.616-2.564 0-5.47 2.052-6.154 4.787h-12.31c1.197-7.01 6.497-11.112 18.635-11.112 14.703 0 18.464 5.812 16.242 14.873 0 0-5.813 23.764-5.471 22.91h-11.626l.855-4.275c-3.419 2.394-9.745 5.47-14.361 5.47-8.377.172-11.112-5.812-10.77-11.112zm27.183-7.351c-6.497-.855-10.6 1.71-10.6 1.71-3.59 1.71-3.248 5.3-3.248 5.3.513 5.47 7.009 2.735 7.009 2.735 6.155-3.248 6.839-9.745 6.839-9.745zM5.642 50.092c2.906 21.712 21.37 38.466 43.937 38.466 24.448 0 44.28-19.831 44.28-44.279C93.858 19.832 74.026 0 49.578 0 29.064 0 11.796 14.019 6.668 32.996l-.171.342h21.712v32.824h10.6V32.996h25.815a3.43 3.43 0 013.419 3.419c0 1.88-1.539 3.248-3.42 3.248h-23.08v10.6l17.097 16.07h14.019L53.682 48.895l11.113.171c7.01 0 12.65-5.642 12.65-12.651 0-7.01-5.64-12.651-12.65-12.651l-25.816-.342v-4.103h-10.6v4.103h-4.786l.342-.513c6.154-7.351 15.386-12.31 25.815-12.31 18.464 0 33.509 15.045 33.509 33.51 0 18.463-15.045 33.508-33.509 33.508-16.583 0-30.26-11.968-32.996-27.696 0 0 5.642.17 5.642 0 0-.171-11.113-11.113-11.113-11.113L0 49.921l5.642.17zM289.783 50.092c-4.103 7.522 1.026 10.429 4.274 10.429 5.813.17 7.865-4.616 9.232-6.326h12.309c-3.419 7.693-8.035 12.993-22.737 12.48-15.216-.513-19.148-8.89-15.9-18.976 5.3-16.242 13.848-19.32 23.764-19.49 19.66-.342 21.37 11.625 16.583 21.883h-27.525zm15.729-7.18c3.077-5.3-.171-7.523-2.907-8.207-5.641-1.367-9.744 4.958-10.257 8.207h13.164zM399.71 17.267h12.651l5.642 10.258h-9.574l-4.274-5.813-6.497 5.813h-8.377l10.429-10.258zM399.542 28.38c16.241-.513 19.832 7.522 17.951 18.293-2.222 12.65-13.164 20.002-24.277 20.002-11.112 0-20.686-6.667-16.754-19.319 4.787-14.36 10.942-18.634 23.08-18.976zm-7.009 11.796c-4.274 9.403-4.104 11.454-4.104 11.454-1.538 7.865 3.933 8.036 3.933 8.036 6.154.513 7.864-3.761 7.864-3.761 2.222-2.565 4.958-12.48 4.958-12.48 2.222-8.549-4.445-8.378-4.445-8.378-5.471-.342-8.206 5.13-8.206 5.13zM441.598 64.965c-16.754 4.616-22.396-1.367-19.148-11.967l4.275-15.557h-7.694l2.223-7.01h7.18l2.736-7.864 12.138-3.078-3.077 10.942h8.719l-1.881 7.01h-8.719l-4.274 15.557c-.684 4.958 2.051 6.155 5.471 6.155l3.419-.171-1.368 5.983zM196.779 12.822l-15.558 53.34H168.57l15.558-53.34h12.651zM213.872 12.993l-15.729 53.169h-12.651l15.558-53.17h12.822zM239.516 66.162h-11.454l1.196-5.3c-3.077 2.223-7.18 5.471-15.044 5.642-5.984.17-9.232-4.616-7.865-13.506l6.497-22.738h11.796l-5.812 21.2c-.684 4.273.512 5.641 3.248 5.641 3.419 0 8.89-3.59 9.574-7.351l5.983-19.49h11.797l-9.916 35.902zM254.73 30.09h12.652l-1.368 5.64h.171c3.59-4.273 7.522-6.325 12.138-6.325.513 0 1.026.171 1.539.171l-2.565 9.916c-.854-.17-2.051.171-2.906.171-5.129 0-11.796 4.103-12.993 11.284l-4.274 15.044h-12.651L254.73 30.09zM125.145 64.623c-16.754 4.616-22.396-1.367-19.148-11.967l4.274-15.045h-7.693l2.223-7.522h7.18l2.735-7.864 12.139-3.248-3.078 10.941h8.72l-1.881 7.523h-8.719l-4.445 15.044c-.684 4.958 2.051 6.155 5.471 6.155l3.419-.171-1.197 6.154zM142.584 50.092c-4.103 7.522 1.026 10.429 4.274 10.429 5.813.17 7.864-4.616 9.232-6.326h12.309c-3.419 7.693-8.035 12.993-22.738 12.48-15.215-.513-19.147-8.89-15.899-18.976 5.3-16.242 13.848-19.32 23.764-19.49 19.66-.342 21.37 11.625 16.583 21.883h-27.525zm15.729-7.18c3.077-5.3-.171-7.523-2.907-8.207-5.642-1.367-9.745 4.958-10.258 8.207h13.165z"/><path d="M373.042 66.162h-13.677c-.171-1.026.513-10.941.171-15.215-.342-5.13-1.368-6.497-8.89-6.497h-4.103l-6.326 21.541h-13.506l14.703-53.34H362.1c13.506-.513 20.857 3.59 19.319 14.019-1.026 7.01-9.232 11.454-14.532 12.993 4.274 1.88 5.813 2.565 6.155 10.77v15.73zm-24.79-31.457h5.642c4.445 0 9.745.684 12.48-6.838 1.368-3.932-1.709-7.352-7.351-7.18h-6.839l-3.932 14.018zM195.524 76.11c1.566 0 2.773.35 3.622 1.052.861.689 1.292 1.656 1.292 2.901 0 1.064-.252 1.995-.754 2.793-.49.786-1.195 1.39-2.116 1.814-.909.423-1.985.635-3.228.635h-2.798l-.681 3.5h-2.923l2.51-12.695h5.076zm-1.059 6.8c.969 0 1.716-.223 2.242-.67.526-.448.789-1.088.789-1.923 0-.604-.203-1.058-.609-1.36-.395-.302-.969-.453-1.722-.453h-2.278l-.878 4.407h2.456zM209.503 86.085h-5.846l-1.632 2.72h-3.103l8.124-12.695h2.87L213 88.805h-2.905l-.592-2.72zm-.484-2.231l-1.058-4.897-2.959 4.897h4.017zM217.194 76.11h10.115l-.485 2.34h-7.245l-.502 2.61h3.497c1.291 0 2.278.291 2.959.871.694.569 1.04 1.397 1.04 2.485 0 .907-.239 1.693-.717 2.358-.478.653-1.166 1.154-2.062 1.505-.885.35-1.943.526-3.175.526h-5.936l2.511-12.695zm3.694 10.519c.837 0 1.495-.176 1.973-.526.478-.351.717-.84.717-1.47 0-.483-.167-.84-.502-1.07-.323-.23-.831-.344-1.524-.344h-2.906l-.663 3.41h2.905zM234.432 89.022c-1.255 0-2.343-.23-3.264-.689-.92-.46-1.626-1.106-2.116-1.94-.49-.835-.735-1.796-.735-2.884 0-1.439.323-2.732.968-3.881a7.15 7.15 0 012.744-2.739c1.184-.664 2.535-.997 4.053-.997 1.256 0 2.344.23 3.264.69.921.459 1.626 1.106 2.116 1.94.491.834.736 1.795.736 2.883 0 1.44-.329 2.739-.987 3.9-.645 1.148-1.56 2.055-2.744 2.72-1.171.665-2.516.997-4.035.997zm.251-2.502c.921 0 1.728-.224 2.421-.671a4.435 4.435 0 001.597-1.796c.37-.75.555-1.578.555-2.484 0-.968-.298-1.735-.896-2.304-.598-.58-1.441-.87-2.529-.87-.921 0-1.728.224-2.421.67a4.433 4.433 0 00-1.596 1.796c-.371.75-.556 1.578-.556 2.485 0 .967.299 1.741.897 2.321.597.569 1.44.853 2.528.853zM254.624 78.504h-4.053l-2.009 10.3h-2.869l2.008-10.3h-3.963l.466-2.394h10.886l-.466 2.394zM262.938 86.085h-5.847l-1.632 2.72h-3.103l8.125-12.695h2.869l3.085 12.695h-2.906l-.591-2.72zm-.485-2.231l-1.058-4.897-2.959 4.897h4.017zM273.031 78.467l-.538 2.757h5.829l-.448 2.285h-5.847l-.574 2.938h6.851l-.484 2.358h-9.721l2.511-12.695h9.487l-.484 2.357h-6.582zM296.809 76.11l-2.493 12.695h-2.708l1.489-7.563-4.806 6.22h-1.31l-2.582-6.31-1.507 7.653h-2.708l2.511-12.695h2.367l3.139 7.907 6.115-7.907h2.493zM316.467 76.11l-2.511 12.695h-2.87l1.991-10.301h-5.667l-2.009 10.3h-2.869l2.511-12.694h11.424zM323.542 89.022c-1.255 0-2.343-.23-3.264-.689-.921-.46-1.626-1.106-2.116-1.94-.49-.835-.736-1.796-.736-2.884 0-1.439.323-2.732.969-3.881a7.15 7.15 0 012.744-2.739c1.183-.664 2.535-.997 4.053-.997 1.255 0 2.343.23 3.264.69.921.459 1.626 1.106 2.116 1.94.49.834.735 1.795.735 2.883 0 1.44-.328 2.739-.986 3.9-.646 1.148-1.56 2.055-2.744 2.72-1.172.665-2.517.997-4.035.997zm.251-2.502c.921 0 1.728-.224 2.421-.671a4.425 4.425 0 001.596-1.796c.371-.75.556-1.578.556-2.484 0-.968-.299-1.735-.896-2.304-.598-.58-1.441-.87-2.529-.87-.921 0-1.728.224-2.421.67a4.426 4.426 0 00-1.596 1.796c-.371.75-.556 1.578-.556 2.485 0 .967.299 1.741.896 2.321.598.569 1.441.853 2.529.853zM347.822 82.258c.538.217.951.544 1.238.98.299.422.448.942.448 1.559 0 1.318-.514 2.315-1.542 2.992-1.029.677-2.398 1.016-4.107 1.016h-6.582l2.511-12.695h6.061c1.351 0 2.392.254 3.121.761.729.496 1.094 1.21 1.094 2.14 0 .774-.203 1.44-.61 1.995-.394.544-.938.962-1.632 1.252zm-5.595-3.936l-.592 2.993h2.959c.765 0 1.357-.151 1.776-.454.43-.314.645-.761.645-1.342 0-.798-.616-1.197-1.847-1.197h-2.941zm1.811 8.27c.813 0 1.447-.157 1.901-.471.454-.315.682-.768.682-1.36 0-.871-.628-1.306-1.883-1.306h-3.516l-.609 3.137h3.425zM357.626 89.022c-1.256 0-2.356-.23-3.3-.689-.933-.46-1.65-1.106-2.152-1.94-.502-.835-.753-1.796-.753-2.884 0-1.439.322-2.732.968-3.881a7.116 7.116 0 012.762-2.739c1.184-.664 2.541-.997 4.071-.997 1.124 0 2.116.194 2.977.58.861.387 1.512.944 1.955 1.669l-2.098 1.74c-.67-.99-1.68-1.486-3.031-1.486-.921 0-1.734.217-2.439.653a4.513 4.513 0 00-1.65 1.777c-.383.75-.574 1.584-.574 2.503 0 .98.305 1.759.914 2.34.622.568 1.489.852 2.601.852 1.327 0 2.439-.49 3.336-1.47l1.721 1.778c-1.243 1.463-3.013 2.194-5.308 2.194zM369.287 78.467l-.538 2.757h5.828l-.448 2.285h-5.847l-.573 2.938h6.85l-.484 2.358h-9.72l2.511-12.695h9.487l-.484 2.357h-6.582zM378.951 76.11h2.869l-1.668 8.27 7.622-8.27h2.762l-2.511 12.695h-2.869l1.685-8.252-7.639 8.252h-2.762l2.511-12.695zm5.936-.78c-1.017 0-1.788-.188-2.314-.562-.514-.387-.771-.956-.771-1.705 0-.23.012-.405.036-.526h1.847c-.012.06-.018.145-.018.254 0 .35.114.629.341.834.239.194.58.29 1.022.29.466 0 .849-.115 1.148-.344.311-.242.508-.587.592-1.034h1.883c-.156.943-.544 1.644-1.166 2.104-.622.46-1.488.689-2.6.689zM403.744 76.11c1.566 0 2.774.35 3.623 1.052.861.689 1.291 1.656 1.291 2.901 0 1.064-.251 1.995-.753 2.793-.49.786-1.196 1.39-2.116 1.814-.909.423-1.985.635-3.228.635h-2.798l-.682 3.5h-2.923l2.511-12.695h5.075zm-1.058 6.8c.969 0 1.716-.223 2.242-.67.526-.448.789-1.088.789-1.923 0-.604-.203-1.058-.61-1.36-.394-.302-.968-.453-1.722-.453h-2.277l-.879 4.407h2.457zM415.839 89.022c-1.255 0-2.343-.23-3.264-.689-.92-.46-1.626-1.106-2.116-1.94-.49-.835-.735-1.796-.735-2.884 0-1.439.323-2.732.968-3.881a7.15 7.15 0 012.744-2.739c1.184-.664 2.535-.997 4.053-.997 1.256 0 2.344.23 3.264.69.921.459 1.626 1.106 2.116 1.94.491.834.736 1.795.736 2.883 0 1.44-.329 2.739-.987 3.9-.645 1.148-1.56 2.055-2.744 2.72-1.171.665-2.516.997-4.035.997zm.251-2.502c.921 0 1.728-.224 2.421-.671a4.435 4.435 0 001.597-1.796c.37-.75.556-1.578.556-2.484 0-.968-.299-1.735-.897-2.304-.598-.58-1.441-.87-2.529-.87-.92 0-1.728.224-2.421.67a4.44 4.44 0 00-1.596 1.796c-.371.75-.556 1.578-.556 2.485 0 .967.299 1.741.897 2.321.597.569 1.44.853 2.528.853zM431.131 89.022c-1.256 0-2.355-.23-3.3-.689-.933-.46-1.65-1.106-2.152-1.94-.502-.835-.753-1.796-.753-2.884 0-1.439.322-2.732.968-3.881a7.116 7.116 0 012.762-2.739c1.184-.664 2.541-.997 4.071-.997 1.124 0 2.116.194 2.977.58.861.387 1.512.944 1.955 1.669l-2.098 1.74c-.67-.99-1.68-1.486-3.031-1.486-.921 0-1.734.217-2.439.653a4.513 4.513 0 00-1.65 1.777c-.383.75-.574 1.584-.574 2.503 0 .98.305 1.759.915 2.34.621.568 1.488.852 2.6.852 1.327 0 2.439-.49 3.336-1.47l1.721 1.778c-1.243 1.463-3.013 2.194-5.308 2.194zM444.161 89.022c-1.255 0-2.355-.23-3.3-.689-.932-.46-1.65-1.106-2.152-1.94-.502-.835-.753-1.796-.753-2.884 0-1.439.323-2.732.968-3.881a7.123 7.123 0 012.762-2.739c1.184-.664 2.541-.997 4.071-.997 1.124 0 2.116.194 2.977.58.861.387 1.513.944 1.955 1.669l-2.098 1.74c-.67-.99-1.68-1.486-3.031-1.486-.921 0-1.734.217-2.439.653a4.52 4.52 0 00-1.65 1.777c-.383.75-.574 1.584-.574 2.503 0 .98.305 1.759.915 2.34.621.568 1.488.852 2.6.852 1.327 0 2.439-.49 3.336-1.47l1.722 1.778c-1.244 1.463-3.013 2.194-5.309 2.194zM453.419 76.11h2.869l-1.668 8.27 7.622-8.27h2.762l-2.511 12.695h-2.869l1.686-8.252-7.64 8.252h-2.762l2.511-12.695zM468.148 76.11h2.869l-1.668 8.27 7.622-8.27h2.762l-2.511 12.695h-2.869l1.686-8.252-7.64 8.252h-2.762l2.511-12.695z"/></g></svg>