<svg viewBox="0 0 56 48" fill="none" xmlns="http://www.w3.org/2000/svg"><rect x="18.578" y="1" width="16.93" height="46" rx="4" stroke="#232628" stroke-width="2"/><path opacity=".3" stroke="#232628" d="M24.336 5.585h5.408M24.336 9.641h5.408M24.336 13.697h5.408M24.336 17.753h5.408M24.336 21.81h5.408M24.336 25.866h5.408M24.336 29.922h5.408M24.336 33.979h5.408M24.336 38.035h5.408M24.336 42.092h5.408"/><rect x="1" y="5.732" width="10.169" height="41.268" rx="4" stroke="#232628" stroke-width="2"/><path opacity=".3" stroke="#232628" d="M3.648 9.717h4.876M3.648 13.373h4.876M3.648 17.03h4.876M3.648 20.686h4.876M3.648 24.343h4.876M3.648 27.999h4.876M3.648 31.655h4.876M3.648 35.312h4.876M3.648 38.968h4.876M3.648 42.625h4.876"/><rect x="43" y="15" width="11.331" height="31.803" rx="4" stroke="#232628" stroke-width="2"/><path opacity=".3" stroke="#232628" d="M46.672 17.982h3.809M46.672 20.839h3.809M46.672 23.695h3.809M46.672 26.552h3.809M46.672 29.408h3.809M46.672 32.265h3.809M46.672 35.121h3.809M46.672 37.978h3.809M46.672 40.835h3.809M46.672 43.691h3.809"/></svg>