<svg viewBox="0 0 41 48" fill="none" xmlns="http://www.w3.org/2000/svg"><path class="not-paint" d="M14.523 35.901h1V31.71h.637l3 3.81.3.381h6.076l-.002-1.001-.013-7.34h5.221l.012-.988.014-1.184.013-1.013H19.383l-.3.389-2.9 3.748h-.66V24.375h-3.425v11.526h2.425zm7.571-9.754v7.755l-3.03-3.908 3.03-3.847z" fill="#232628" stroke="#fff" stroke-width="2"/><path d="M8.1 12.446h24.784a2 2 0 011.978 1.702L39.475 44.7A2 2 0 0137.498 47H3.487a2 2 0 01-1.978-2.299l4.614-30.553a2 2 0 011.978-1.702z" stroke="#232628" stroke-width="2"/><circle cx="20.491" cy="6.092" r="5.092" stroke="#232628" stroke-width="2"/></svg>