<svg viewBox="0 0 208 234" fill="none" xmlns="http://www.w3.org/2000/svg"><circle cx="103.685" cy="130.315" r="103.185" stroke="#000"/><circle cx="103.686" cy="130.315" r="90.37" stroke="#999"/><circle cx="103.688" cy="130.315" r="86.875" stroke="#999"/><path stroke="#000" d="M79.719 100.525h47.93v15.31h-47.93z"/><circle cx="88.543" cy="108.18" r="4.16" stroke="#000"/><circle cx="118.832" cy="108.18" r="4.16" stroke="#000"/><circle cx="103.684" cy="199.574" r="6.49" transform="rotate(45 103.684 199.574)" stroke="#000"/><path stroke="#000" d="M108.506 194.723l-9.062 9.061"/><path d="M36.697 19.058v1.165H9.319v-1.165a3.495 3.495 0 00-3.495-3.495V1H201.544v13.98l-2.36.337a2 2 0 00-1.717 1.98v2.925h-26.795V16.98a2 2 0 00-2-2h-2.078l-22.135 122.325h-81.55L46.28 48.182l-6.087-32.62a3.495 3.495 0 00-3.495 3.496z" fill="#fff"/><path d="M40.192 15.563v0a3.495 3.495 0 00-3.495 3.495v1.165h-5.825m9.32-4.66l6.087 32.62m-6.087-32.62h28.542m132.81-.583V1H75.142m126.402 13.98l-2.36.337a2 2 0 00-1.717 1.98v2.925h-26.795V16.98a2 2 0 00-2-2h-2.078m34.95 0h-34.95m0 0l-22.135 122.325h-81.55L46.28 48.182m0 0l22.455-32.62m0 0V10.32L75.142 1m0 0h-44.27M15.144 1h-9.32v14.563a3.495 3.495 0 013.495 3.495v1.165h5.825m0-19.223v19.223m0-19.223h15.728M15.144 20.223h15.728m0-19.223v19.223" stroke="#000"/><circle cx="103.684" cy="130.315" r="53.09" fill="#fff" stroke="#000"/><circle cx="103.682" cy="130.315" r="41.44" fill="#fff" stroke="#000"/><path stroke="#999" d="M82.41 102.074h42.548v13.516H82.41z"/><circle cx="90.202" cy="108.832" r="3.647" stroke="#999"/><circle cx="117.163" cy="108.832" r="3.647" stroke="#999"/><circle cx="103.687" cy="130.315" r="18.14" fill="#fff" stroke="#232628"/><circle cx="103.684" cy="130.315" r="14.645" fill="#fff" stroke="#232628"/></svg>